G04 EAGLE Gerber RS-274X export*
G75*
%MOMM*%
%FSLAX34Y34*%
%LPD*%
%INBottom Copper*%
%IPPOS*%
%AMOC8*
5,1,8,0,0,1.08239X$1,22.5*%
G01*
%ADD10R,1.100000X1.000000*%
%ADD11R,1.000000X1.100000*%
%ADD12R,0.500000X1.000000*%
%ADD13R,0.650000X1.528000*%
%ADD14P,1.429621X8X22.500000*%
%ADD15C,1.680000*%
%ADD16R,1.250000X0.600000*%
%ADD17R,0.900000X0.700000*%
%ADD18R,1.600000X2.000000*%
%ADD19R,0.700000X0.900000*%
%ADD20R,0.840000X0.460000*%
%ADD21C,1.650000*%
%ADD22C,1.524000*%
%ADD23P,1.649562X8X292.500000*%
%ADD24R,1.600200X0.558800*%
%ADD25R,0.600000X1.250000*%
%ADD26C,0.200000*%
%ADD27C,0.756400*%


D10*
X29000Y215000D03*
X46000Y215000D03*
D11*
X122500Y199000D03*
X122500Y216000D03*
X-67500Y146500D03*
X-67500Y163500D03*
X-7500Y276000D03*
X-7500Y259000D03*
X52500Y259000D03*
X52500Y276000D03*
D12*
X-28900Y260100D03*
X-28900Y284100D03*
D13*
X101550Y147890D03*
X88850Y147890D03*
X76150Y147890D03*
X63450Y147890D03*
X63450Y202110D03*
X76150Y202110D03*
X88850Y202110D03*
X101550Y202110D03*
D14*
X-45200Y155000D03*
X-19800Y155000D03*
D15*
X19800Y155000D03*
X45200Y155000D03*
D16*
X-49500Y279550D03*
X-49500Y260450D03*
X-70500Y270000D03*
D17*
X-5000Y183500D03*
X-5000Y196500D03*
D18*
X41500Y190000D03*
X13500Y190000D03*
D17*
X-17500Y183500D03*
X-17500Y196500D03*
X-80000Y183500D03*
X-80000Y196500D03*
D19*
X71000Y130000D03*
X84000Y130000D03*
X4000Y295000D03*
X-9000Y295000D03*
D20*
X91500Y260000D03*
X68500Y260000D03*
D16*
X12000Y260500D03*
X12000Y279500D03*
X33000Y270000D03*
D21*
X-88900Y235000D03*
X-63500Y235000D03*
X-38100Y235000D03*
X-12700Y235000D03*
X12700Y235000D03*
X38100Y235000D03*
X63500Y235000D03*
X88900Y235000D03*
D22*
X119880Y149800D02*
X135120Y149800D01*
X135120Y175200D02*
X119880Y175200D01*
D23*
X109800Y122700D03*
X135200Y122700D03*
X109800Y97300D03*
X135200Y97300D03*
D24*
X-40383Y129650D03*
X-40383Y116950D03*
X-40383Y104250D03*
X-40383Y91550D03*
X-40383Y78850D03*
X-40383Y66150D03*
X-40383Y53450D03*
X-40383Y40750D03*
X-40383Y28050D03*
X-40383Y15350D03*
X-134617Y15350D03*
X-134617Y28050D03*
X-134617Y40750D03*
X-134617Y53450D03*
X-134617Y66150D03*
X-134617Y78850D03*
X-134617Y91550D03*
X-134617Y104250D03*
X-134617Y116950D03*
X-134617Y129650D03*
D22*
X-127620Y202900D02*
X-112380Y202900D01*
X-112380Y177500D02*
X-127620Y177500D01*
X-127620Y152100D02*
X-112380Y152100D01*
D17*
X-67500Y209000D03*
X-67500Y196000D03*
D25*
X-52050Y208000D03*
X-32950Y208000D03*
X-42500Y187000D03*
D26*
X63450Y202110D02*
X63450Y216550D01*
X62500Y217500D01*
D27*
X62500Y217500D03*
D26*
X122500Y216000D02*
X122500Y225000D01*
X117500Y230000D01*
D27*
X117500Y230000D03*
D26*
X71058Y276000D02*
X52500Y276000D01*
X71058Y276000D02*
X78963Y268095D01*
D27*
X78963Y268095D03*
D26*
X46500Y270000D02*
X33000Y270000D01*
X46500Y270000D02*
X52500Y276000D01*
X30487Y295000D02*
X4000Y295000D01*
X30487Y295000D02*
X33782Y291705D01*
D27*
X33782Y291705D03*
D26*
X-120000Y144267D02*
X-134617Y129650D01*
X-120000Y144267D02*
X-120000Y152100D01*
X-7500Y240200D02*
X-7500Y259000D01*
X-7500Y240200D02*
X-12700Y235000D01*
X60000Y130000D02*
X71000Y130000D01*
X45200Y144800D02*
X45200Y155000D01*
X45200Y144800D02*
X60000Y130000D01*
X-66787Y164213D02*
X-67500Y163500D01*
X-66787Y164213D02*
X-66787Y178218D01*
D27*
X-66787Y178218D03*
D26*
X63500Y235000D02*
X76150Y222350D01*
X76150Y202110D01*
X70000Y187500D02*
X60000Y187500D01*
X55000Y192500D01*
X55000Y210000D01*
X50000Y215000D01*
X46000Y215000D01*
X70000Y187500D02*
X76150Y193650D01*
X76150Y202110D01*
X46000Y215000D02*
X46000Y227100D01*
X38100Y235000D01*
X88900Y235000D02*
X88900Y202170D01*
X88850Y202110D01*
X122700Y180000D02*
X127500Y175200D01*
X88850Y188650D02*
X88850Y202110D01*
X97500Y180000D02*
X122700Y180000D01*
X97500Y180000D02*
X88850Y188650D01*
X124800Y172500D02*
X127500Y175200D01*
X124800Y172500D02*
X90000Y172500D01*
X87500Y172500D01*
X35000Y172500D01*
X27500Y180000D01*
X12700Y214800D02*
X12700Y235000D01*
X27500Y200000D02*
X27500Y180000D01*
X27500Y200000D02*
X12700Y214800D01*
X101550Y202110D02*
X102500Y201170D01*
X102500Y197500D01*
X121000Y197500D01*
X122500Y199000D01*
X120000Y201500D01*
X120000Y202500D01*
X117500Y202500D01*
X107218Y212782D01*
X107218Y244282D02*
X91500Y260000D01*
X107218Y244282D02*
X107218Y212782D01*
X-2500Y220000D02*
X-25000Y220000D01*
X-5000Y217500D02*
X-2500Y220000D01*
X0Y222500D01*
X-5000Y217500D02*
X-5000Y196500D01*
X0Y242500D02*
X7500Y250000D01*
X81500Y250000D02*
X91500Y260000D01*
X0Y242500D02*
X0Y222500D01*
X7500Y250000D02*
X81500Y250000D01*
X-40383Y129650D02*
X-59650Y129650D01*
X-67500Y137500D02*
X-67500Y146500D01*
X-67500Y137500D02*
X-59650Y129650D01*
X-67500Y146500D02*
X-57500Y156500D01*
D27*
X-84718Y212500D03*
D26*
X-77218Y220000D01*
X-25000Y220000D01*
X-32950Y212050D02*
X-32950Y208000D01*
X-32950Y212050D02*
X-25000Y220000D01*
X-32950Y208000D02*
X-44700Y196250D01*
X-57500Y186000D02*
X-67500Y196000D01*
X-57500Y186000D02*
X-57500Y156500D01*
X-67250Y196250D02*
X-44700Y196250D01*
X-67250Y196250D02*
X-67500Y196000D01*
X109800Y167500D02*
X127500Y149800D01*
X27500Y167500D02*
X13500Y181500D01*
X13500Y190000D01*
X27500Y167500D02*
X109800Y167500D01*
D27*
X27500Y65000D03*
D26*
X-33850Y78850D02*
X-40383Y78850D01*
X-20000Y65000D02*
X27500Y65000D01*
X-20000Y65000D02*
X-33850Y78850D01*
D27*
X22500Y35282D03*
D26*
X22218Y35000D01*
X-20000Y35000D01*
X-25750Y40750D02*
X-40383Y40750D01*
X-25750Y40750D02*
X-20000Y35000D01*
D27*
X102500Y15000D03*
D26*
X-40033Y15000D02*
X-40383Y15350D01*
X-40033Y15000D02*
X102500Y15000D01*
D27*
X-85000Y27500D03*
D26*
X-85000Y40000D01*
X-71550Y53450D02*
X-40383Y53450D01*
X-71550Y53450D02*
X-85000Y40000D01*
D27*
X-102500Y27500D03*
D26*
X-134067Y27500D01*
X-134617Y28050D01*
X-134617Y66150D02*
X-133267Y67500D01*
X-102782Y67500D01*
D27*
X-102782Y67500D03*
D26*
X-20000Y183500D02*
X-17500Y183500D01*
X-20000Y183500D02*
X-45200Y158300D01*
X-45200Y155000D01*
X-80000Y201500D02*
X-72500Y209000D01*
X-80000Y201500D02*
X-80000Y196500D01*
X-72500Y209000D02*
X-67500Y209000D01*
X-53050Y209000D02*
X-52050Y208000D01*
X-53050Y209000D02*
X-67500Y209000D01*
X-49500Y279550D02*
X-45450Y279550D01*
X-31400Y281600D02*
X-28900Y284100D01*
X-31400Y281600D02*
X-43400Y281600D01*
X-45450Y279550D01*
X-28900Y284100D02*
X-18000Y295000D01*
X-9000Y295000D01*
X-4000Y279500D02*
X12000Y279500D01*
X-4000Y279500D02*
X-7500Y276000D01*
X-20000Y276000D01*
X-28900Y267100D01*
X-28900Y260100D01*
X-49150Y260100D01*
X-49500Y260450D01*
X-63500Y235000D02*
X-88900Y235000D01*
D27*
X-85000Y265000D03*
D26*
X-80000Y270000D01*
X-70500Y270000D01*
X52500Y259000D02*
X53500Y260000D01*
X68500Y260000D01*
X53000Y260500D02*
X12000Y260500D01*
X53000Y260500D02*
X53500Y260000D01*
D27*
X-75000Y67500D03*
D26*
X-41733Y67500D01*
X-40383Y66150D01*
D27*
X94718Y67500D03*
D26*
X79718Y67500D01*
X72218Y75000D01*
X-34050Y91550D02*
X-40383Y91550D01*
X-17500Y75000D02*
X72218Y75000D01*
X-17500Y75000D02*
X-34050Y91550D01*
D27*
X75000Y117500D03*
D26*
X-36950Y116950D02*
X-40383Y116950D01*
X-36950Y116950D02*
X-5000Y85000D01*
X65000Y85000D01*
X75000Y95000D02*
X75000Y117500D01*
X75000Y95000D02*
X65000Y85000D01*
D27*
X82500Y82500D03*
D26*
X80000Y80000D01*
X-10000Y80000D01*
X-34250Y104250D02*
X-40383Y104250D01*
X-34250Y104250D02*
X-10000Y80000D01*
X-116432Y78850D02*
X-134617Y78850D01*
X-116432Y78850D02*
X-110282Y85000D01*
D27*
X-110282Y85000D03*
X-110000Y115000D03*
D26*
X-110000Y121213D01*
X-97500Y133713D01*
X-97500Y167500D01*
X-107500Y177500D01*
X-120000Y177500D01*
X-134617Y53450D02*
X-101550Y53450D01*
X-90000Y65000D01*
X-90000Y120000D01*
X-80000Y130000D01*
X-80000Y183500D01*
X-32500Y145000D02*
X-27500Y140000D01*
X-32500Y145000D02*
X-32500Y162500D01*
X-27500Y140000D02*
X-27500Y127495D01*
X-31139Y123856D01*
X-96750Y40750D02*
X-134617Y40750D01*
X-96750Y40750D02*
X-85000Y52500D01*
X-85000Y115000D01*
X-76144Y123856D02*
X-31139Y123856D01*
X-76144Y123856D02*
X-85000Y115000D01*
X-5000Y179800D02*
X-5000Y183500D01*
X-5000Y179800D02*
X4900Y169900D01*
X19800Y155000D01*
X-15000Y169900D02*
X-25100Y169900D01*
X-32500Y162500D01*
X-5000Y179900D02*
X-5000Y183500D01*
X-5000Y179900D02*
X-15000Y169900D01*
X-95000Y100000D02*
X-102218Y92782D01*
X-95000Y100000D02*
X-95000Y122071D01*
X-87500Y129571D02*
X-87500Y172071D01*
X-87500Y129571D02*
X-95000Y122071D01*
X-87500Y172071D02*
X-92500Y177071D01*
X-92500Y212071D02*
X-102714Y222286D01*
X-92500Y212071D02*
X-92500Y177071D01*
X-102714Y222286D02*
X-102714Y242286D01*
X-95000Y250000D01*
D27*
X-19282Y260000D03*
D26*
X-18400Y259118D01*
X-18400Y258857D01*
X-27257Y250000D01*
X-95000Y250000D01*
X-102218Y92782D02*
X-133385Y92782D01*
X-134617Y91550D01*
X-105750Y104250D02*
X-100000Y110000D01*
X-100000Y124142D01*
X-92500Y131642D01*
X-92500Y170000D01*
X-97500Y175000D01*
X-97500Y210000D02*
X-107714Y220214D01*
X-97500Y210000D02*
X-97500Y175000D01*
X-107714Y220214D02*
X-107714Y244357D01*
X-97071Y255000D01*
X-56954Y268046D02*
X-38046Y268046D01*
D27*
X-38046Y268046D03*
D26*
X-70000Y255000D02*
X-97071Y255000D01*
X-70000Y255000D02*
X-56954Y268046D01*
X-105750Y104250D02*
X-134617Y104250D01*
X-134617Y15350D02*
X-82150Y15350D01*
X-28844Y33844D02*
X-20000Y25000D01*
X92500Y25000D01*
X102500Y35000D01*
X102500Y75000D01*
X84000Y93500D02*
X84000Y130000D01*
X-63656Y33844D02*
X-82150Y15350D01*
X-63656Y33844D02*
X-28844Y33844D01*
X84000Y93500D02*
X102500Y75000D01*
X84000Y130000D02*
X88850Y134850D01*
X88850Y147890D01*
X76150Y147890D01*
X95000Y90000D02*
X107500Y77500D01*
X95000Y90000D02*
X95000Y135000D01*
X101550Y141550D02*
X101550Y147890D01*
X107500Y77500D02*
X107500Y32500D01*
X95000Y135000D02*
X101550Y141550D01*
X-33050Y28050D02*
X-40383Y28050D01*
X-33050Y28050D02*
X-25000Y20000D01*
X95000Y20000D01*
X107500Y32500D01*
X101550Y147890D02*
X101550Y155950D01*
X95000Y162500D01*
X70000Y162500D01*
X63450Y155950D02*
X63450Y147890D01*
X63450Y155950D02*
X70000Y162500D01*
X41500Y190000D02*
X41500Y202500D01*
X29000Y215000D01*
X-33000Y196500D02*
X-42500Y187000D01*
X-33000Y196500D02*
X-17500Y196500D01*
M02*
