G04 EAGLE Gerber RS-274X export*
G75*
%MOMM*%
%FSLAX34Y34*%
%LPD*%
%INSilkscreen Bottom*%
%IPPOS*%
%AMOC8*
5,1,8,0,0,1.08239X$1,22.5*%
G01*
%ADD10C,0.101600*%
%ADD11C,0.200000*%
%ADD12C,0.152400*%
%ADD13C,0.254000*%
%ADD14C,0.076200*%

G36*
X-145156Y127620D02*
X-145156Y127620D01*
X-145154Y127619D01*
X-145111Y127639D01*
X-145067Y127657D01*
X-145067Y127659D01*
X-145065Y127660D01*
X-145032Y127745D01*
X-145032Y131555D01*
X-145033Y131557D01*
X-145032Y131559D01*
X-145052Y131602D01*
X-145070Y131646D01*
X-145072Y131646D01*
X-145073Y131648D01*
X-145158Y131681D01*
X-147698Y131681D01*
X-147700Y131680D01*
X-147702Y131681D01*
X-147745Y131661D01*
X-147789Y131643D01*
X-147789Y131641D01*
X-147791Y131640D01*
X-147824Y131555D01*
X-147824Y127745D01*
X-147823Y127743D01*
X-147824Y127741D01*
X-147804Y127698D01*
X-147786Y127654D01*
X-147784Y127654D01*
X-147783Y127652D01*
X-147698Y127619D01*
X-145158Y127619D01*
X-145156Y127620D01*
G37*
G36*
X-27300Y13320D02*
X-27300Y13320D01*
X-27298Y13319D01*
X-27255Y13339D01*
X-27211Y13357D01*
X-27211Y13359D01*
X-27209Y13360D01*
X-27176Y13445D01*
X-27176Y17255D01*
X-27177Y17257D01*
X-27176Y17259D01*
X-27196Y17302D01*
X-27214Y17346D01*
X-27216Y17346D01*
X-27217Y17348D01*
X-27302Y17381D01*
X-29842Y17381D01*
X-29844Y17380D01*
X-29846Y17381D01*
X-29889Y17361D01*
X-29933Y17343D01*
X-29933Y17341D01*
X-29935Y17340D01*
X-29968Y17255D01*
X-29968Y13445D01*
X-29967Y13443D01*
X-29968Y13441D01*
X-29948Y13398D01*
X-29930Y13354D01*
X-29928Y13354D01*
X-29927Y13352D01*
X-29842Y13319D01*
X-27302Y13319D01*
X-27300Y13320D01*
G37*
D10*
X-55508Y130746D02*
X-58754Y133342D01*
X-58754Y121658D01*
X-61999Y121658D02*
X-55508Y121658D01*
X6799Y164158D02*
X9396Y164158D01*
X9495Y164160D01*
X9595Y164166D01*
X9694Y164175D01*
X9792Y164188D01*
X9890Y164205D01*
X9988Y164226D01*
X10084Y164251D01*
X10179Y164279D01*
X10273Y164311D01*
X10366Y164346D01*
X10458Y164385D01*
X10548Y164428D01*
X10636Y164473D01*
X10723Y164523D01*
X10807Y164575D01*
X10890Y164631D01*
X10970Y164689D01*
X11048Y164751D01*
X11123Y164816D01*
X11196Y164884D01*
X11266Y164954D01*
X11334Y165027D01*
X11399Y165102D01*
X11461Y165180D01*
X11519Y165260D01*
X11575Y165343D01*
X11627Y165427D01*
X11677Y165514D01*
X11722Y165602D01*
X11765Y165692D01*
X11804Y165784D01*
X11839Y165877D01*
X11871Y165971D01*
X11899Y166066D01*
X11924Y166162D01*
X11945Y166260D01*
X11962Y166358D01*
X11975Y166456D01*
X11984Y166555D01*
X11990Y166655D01*
X11992Y166754D01*
X11992Y173246D01*
X11990Y173345D01*
X11984Y173445D01*
X11975Y173544D01*
X11962Y173642D01*
X11945Y173740D01*
X11924Y173838D01*
X11899Y173934D01*
X11871Y174029D01*
X11839Y174123D01*
X11804Y174216D01*
X11765Y174308D01*
X11722Y174398D01*
X11677Y174486D01*
X11627Y174573D01*
X11575Y174657D01*
X11519Y174740D01*
X11461Y174820D01*
X11399Y174898D01*
X11334Y174973D01*
X11266Y175046D01*
X11196Y175116D01*
X11123Y175184D01*
X11048Y175249D01*
X10970Y175311D01*
X10890Y175369D01*
X10807Y175425D01*
X10723Y175477D01*
X10636Y175527D01*
X10548Y175572D01*
X10458Y175615D01*
X10366Y175654D01*
X10273Y175689D01*
X10179Y175721D01*
X10084Y175749D01*
X9988Y175774D01*
X9890Y175795D01*
X9792Y175812D01*
X9694Y175825D01*
X9595Y175834D01*
X9495Y175840D01*
X9396Y175842D01*
X6799Y175842D01*
X-12321Y164158D02*
X-14918Y164158D01*
X-12321Y164158D02*
X-12222Y164160D01*
X-12122Y164166D01*
X-12023Y164175D01*
X-11925Y164188D01*
X-11827Y164205D01*
X-11729Y164226D01*
X-11633Y164251D01*
X-11538Y164279D01*
X-11444Y164311D01*
X-11351Y164346D01*
X-11259Y164385D01*
X-11169Y164428D01*
X-11081Y164473D01*
X-10994Y164523D01*
X-10910Y164575D01*
X-10827Y164631D01*
X-10747Y164689D01*
X-10669Y164751D01*
X-10594Y164816D01*
X-10521Y164884D01*
X-10451Y164954D01*
X-10383Y165027D01*
X-10318Y165102D01*
X-10256Y165180D01*
X-10198Y165260D01*
X-10142Y165343D01*
X-10090Y165427D01*
X-10040Y165514D01*
X-9995Y165602D01*
X-9952Y165692D01*
X-9913Y165784D01*
X-9878Y165877D01*
X-9846Y165971D01*
X-9818Y166066D01*
X-9793Y166162D01*
X-9772Y166260D01*
X-9755Y166358D01*
X-9742Y166456D01*
X-9733Y166555D01*
X-9727Y166655D01*
X-9725Y166754D01*
X-9725Y173246D01*
X-9727Y173345D01*
X-9733Y173445D01*
X-9742Y173544D01*
X-9755Y173642D01*
X-9772Y173740D01*
X-9793Y173838D01*
X-9818Y173934D01*
X-9846Y174029D01*
X-9878Y174123D01*
X-9913Y174216D01*
X-9952Y174308D01*
X-9995Y174398D01*
X-10040Y174486D01*
X-10090Y174573D01*
X-10142Y174657D01*
X-10198Y174740D01*
X-10256Y174820D01*
X-10318Y174898D01*
X-10383Y174973D01*
X-10451Y175046D01*
X-10521Y175116D01*
X-10594Y175184D01*
X-10669Y175249D01*
X-10747Y175311D01*
X-10827Y175369D01*
X-10910Y175425D01*
X-10994Y175477D01*
X-11081Y175527D01*
X-11169Y175572D01*
X-11259Y175615D01*
X-11351Y175654D01*
X-11443Y175689D01*
X-11538Y175721D01*
X-11633Y175749D01*
X-11729Y175774D01*
X-11827Y175795D01*
X-11925Y175812D01*
X-12023Y175825D01*
X-12122Y175834D01*
X-12222Y175840D01*
X-12321Y175842D01*
X-14918Y175842D01*
D11*
X-22650Y255100D02*
X-22650Y280600D01*
X-35150Y280600D02*
X-35150Y263600D01*
X107020Y190980D02*
X107020Y159020D01*
X107020Y190980D02*
X57980Y190980D01*
X57980Y159020D01*
X107020Y159020D01*
X108300Y155520D02*
X108300Y140250D01*
D12*
X-20099Y146142D02*
X-20318Y145842D01*
X-20545Y145548D01*
X-20779Y145260D01*
X-21020Y144977D01*
X-21267Y144700D01*
X-21522Y144429D01*
X-21783Y144165D01*
X-22050Y143907D01*
X-22323Y143656D01*
X-22603Y143411D01*
X-22888Y143173D01*
X-23179Y142943D01*
X-23476Y142719D01*
X-23778Y142503D01*
X-24085Y142294D01*
X-24397Y142093D01*
X-24714Y141899D01*
X-25036Y141713D01*
X-25362Y141535D01*
X-25692Y141365D01*
X-26026Y141203D01*
X-26364Y141050D01*
X-26706Y140904D01*
X-27051Y140767D01*
X-27400Y140639D01*
X-27751Y140519D01*
X-28106Y140407D01*
X-28463Y140305D01*
X-28822Y140210D01*
X-29183Y140125D01*
X-29547Y140049D01*
X-29912Y139981D01*
X-30279Y139923D01*
X-30647Y139873D01*
X-31016Y139832D01*
X-31386Y139801D01*
X-31757Y139778D01*
X-32128Y139765D01*
X-32500Y139760D01*
X-32872Y139765D01*
X-33243Y139778D01*
X-33615Y139801D01*
X-33985Y139833D01*
X-34355Y139873D01*
X-34723Y139923D01*
X-35091Y139982D01*
X-35456Y140049D01*
X-35820Y140126D01*
X-36182Y140212D01*
X-36542Y140306D01*
X-36899Y140409D01*
X-37254Y140520D01*
X-37606Y140641D01*
X-37955Y140770D01*
X-38300Y140907D01*
X-38642Y141053D01*
X-38981Y141207D01*
X-39316Y141369D01*
X-39646Y141539D01*
X-39972Y141718D01*
X-40294Y141904D01*
X-40612Y142098D01*
X-40924Y142300D01*
X-41231Y142509D01*
X-41533Y142726D01*
X-41830Y142950D01*
X-42122Y143181D01*
X-42407Y143419D01*
X-42687Y143665D01*
X-42960Y143917D01*
X-43228Y144175D01*
X-43488Y144440D01*
X-43743Y144711D01*
X-43991Y144989D01*
X-44231Y145272D01*
X-44465Y145561D01*
X-44692Y145856D01*
X-32500Y170240D02*
X-32135Y170236D01*
X-31770Y170223D01*
X-31406Y170201D01*
X-31043Y170170D01*
X-30680Y170131D01*
X-30318Y170083D01*
X-29958Y170026D01*
X-29599Y169961D01*
X-29241Y169888D01*
X-28886Y169805D01*
X-28533Y169715D01*
X-28181Y169615D01*
X-27833Y169508D01*
X-27487Y169392D01*
X-27144Y169268D01*
X-26804Y169135D01*
X-26467Y168995D01*
X-26134Y168847D01*
X-25804Y168690D01*
X-25478Y168526D01*
X-25156Y168354D01*
X-24839Y168174D01*
X-24526Y167987D01*
X-24217Y167793D01*
X-23913Y167591D01*
X-23614Y167381D01*
X-23320Y167165D01*
X-23032Y166942D01*
X-22749Y166712D01*
X-22471Y166475D01*
X-22199Y166232D01*
X-21933Y165982D01*
X-21673Y165726D01*
X-21420Y165463D01*
X-21172Y165195D01*
X-20932Y164921D01*
X-20697Y164641D01*
X-20470Y164356D01*
X-32500Y170240D02*
X-32865Y170236D01*
X-33230Y170223D01*
X-33594Y170201D01*
X-33957Y170170D01*
X-34320Y170131D01*
X-34682Y170083D01*
X-35042Y170026D01*
X-35401Y169961D01*
X-35759Y169888D01*
X-36114Y169805D01*
X-36467Y169715D01*
X-36819Y169615D01*
X-37167Y169508D01*
X-37513Y169392D01*
X-37856Y169268D01*
X-38196Y169135D01*
X-38533Y168995D01*
X-38866Y168847D01*
X-39196Y168690D01*
X-39522Y168526D01*
X-39844Y168354D01*
X-40161Y168174D01*
X-40474Y167987D01*
X-40783Y167793D01*
X-41087Y167591D01*
X-41386Y167381D01*
X-41680Y167165D01*
X-41968Y166942D01*
X-42251Y166712D01*
X-42529Y166475D01*
X-42801Y166232D01*
X-43067Y165982D01*
X-43327Y165726D01*
X-43580Y165463D01*
X-43828Y165195D01*
X-44068Y164921D01*
X-44303Y164641D01*
X-44530Y164356D01*
D13*
X-32500Y134680D02*
X-32006Y134686D01*
X-31512Y134704D01*
X-31018Y134734D01*
X-30525Y134776D01*
X-30034Y134830D01*
X-29544Y134896D01*
X-29056Y134974D01*
X-28569Y135064D01*
X-28085Y135165D01*
X-27604Y135279D01*
X-27126Y135404D01*
X-26650Y135540D01*
X-26179Y135688D01*
X-25711Y135848D01*
X-25247Y136019D01*
X-24787Y136201D01*
X-24332Y136394D01*
X-23881Y136598D01*
X-23436Y136813D01*
X-22996Y137039D01*
X-22562Y137276D01*
X-22134Y137523D01*
X-21712Y137780D01*
X-21296Y138048D01*
X-20887Y138326D01*
X-20485Y138613D01*
X-20089Y138910D01*
X-19702Y139217D01*
X-19321Y139533D01*
X-18949Y139858D01*
X-18584Y140193D01*
X-18228Y140536D01*
X-17881Y140887D01*
X-17541Y141247D01*
X-17211Y141615D01*
X-16890Y141991D01*
X-32500Y134680D02*
X-32988Y134686D01*
X-33475Y134703D01*
X-33962Y134733D01*
X-34449Y134774D01*
X-34934Y134826D01*
X-35418Y134891D01*
X-35900Y134967D01*
X-36380Y135054D01*
X-36858Y135153D01*
X-37333Y135263D01*
X-37806Y135385D01*
X-38275Y135518D01*
X-38742Y135663D01*
X-39204Y135818D01*
X-39663Y135985D01*
X-40118Y136162D01*
X-40568Y136351D01*
X-41013Y136550D01*
X-41454Y136760D01*
X-41890Y136980D01*
X-42320Y137211D01*
X-42744Y137452D01*
X-43162Y137703D01*
X-43575Y137964D01*
X-43981Y138235D01*
X-44380Y138515D01*
X-44773Y138805D01*
X-45158Y139105D01*
X-45536Y139414D01*
X-45907Y139731D01*
X-46269Y140058D01*
X-46624Y140393D01*
X-46971Y140736D01*
X-47309Y141088D01*
X-47639Y141447D01*
X-47960Y141815D01*
X-48273Y142190D01*
X-48576Y142573D01*
X-48870Y142962D01*
X-49154Y143359D01*
X-49429Y143762D01*
X-49694Y144172D01*
X-49949Y144588D01*
X-50194Y145010D01*
X-50429Y145438D01*
X-32500Y175320D02*
X-32010Y175314D01*
X-31520Y175296D01*
X-31031Y175267D01*
X-30542Y175225D01*
X-30055Y175172D01*
X-29569Y175108D01*
X-29085Y175031D01*
X-28603Y174943D01*
X-28123Y174843D01*
X-27645Y174732D01*
X-27171Y174609D01*
X-26699Y174474D01*
X-26231Y174329D01*
X-25767Y174172D01*
X-25306Y174004D01*
X-24850Y173825D01*
X-24398Y173635D01*
X-23951Y173434D01*
X-23509Y173222D01*
X-23072Y173000D01*
X-22640Y172768D01*
X-22214Y172525D01*
X-21795Y172271D01*
X-21381Y172008D01*
X-20974Y171735D01*
X-20574Y171452D01*
X-20180Y171159D01*
X-19794Y170858D01*
X-19415Y170546D01*
X-19044Y170226D01*
X-18681Y169897D01*
X-18325Y169560D01*
X-17978Y169213D01*
X-17640Y168859D01*
X-17310Y168496D01*
X-16988Y168126D01*
X-32500Y175320D02*
X-32997Y175314D01*
X-33494Y175296D01*
X-33990Y175265D01*
X-34485Y175223D01*
X-34979Y175168D01*
X-35472Y175102D01*
X-35962Y175023D01*
X-36451Y174932D01*
X-36937Y174830D01*
X-37421Y174715D01*
X-37901Y174589D01*
X-38379Y174451D01*
X-38853Y174302D01*
X-39323Y174141D01*
X-39789Y173968D01*
X-40251Y173784D01*
X-40708Y173589D01*
X-41160Y173383D01*
X-41607Y173166D01*
X-42048Y172937D01*
X-42484Y172699D01*
X-42914Y172449D01*
X-43337Y172189D01*
X-43755Y171919D01*
X-44165Y171639D01*
X-44568Y171349D01*
X-44965Y171049D01*
X-45353Y170739D01*
X-45734Y170420D01*
X-46107Y170092D01*
X-46472Y169755D01*
X-46829Y169409D01*
X-47177Y169054D01*
X-47516Y168691D01*
X-47847Y168320D01*
X-48168Y167940D01*
X-48480Y167553D01*
X-48782Y167159D01*
X-49074Y166757D01*
X-49357Y166348D01*
X-49629Y165933D01*
X-49892Y165510D01*
X-50143Y165082D01*
X16382Y166840D02*
X16664Y167223D01*
X16955Y167600D01*
X17255Y167969D01*
X17564Y168330D01*
X17882Y168684D01*
X18208Y169030D01*
X18543Y169368D01*
X18886Y169698D01*
X19237Y170020D01*
X19595Y170333D01*
X19961Y170637D01*
X20334Y170932D01*
X20715Y171217D01*
X21102Y171494D01*
X21495Y171761D01*
X21896Y172018D01*
X22302Y172266D01*
X22714Y172503D01*
X23132Y172731D01*
X23555Y172948D01*
X23983Y173155D01*
X24417Y173352D01*
X24855Y173537D01*
X25297Y173713D01*
X25743Y173877D01*
X26194Y174030D01*
X26648Y174173D01*
X27105Y174304D01*
X27565Y174424D01*
X28028Y174533D01*
X28494Y174631D01*
X28962Y174717D01*
X29432Y174792D01*
X29903Y174856D01*
X30376Y174908D01*
X30850Y174948D01*
X31325Y174977D01*
X31800Y174994D01*
X32276Y175000D01*
X32752Y174994D01*
X33227Y174977D01*
X33702Y174948D01*
X34176Y174908D01*
X34649Y174856D01*
X35120Y174792D01*
X35590Y174717D01*
X36058Y174631D01*
X36524Y174533D01*
X36987Y174424D01*
X37447Y174304D01*
X37904Y174173D01*
X38358Y174030D01*
X38809Y173877D01*
X39255Y173713D01*
X39697Y173537D01*
X40135Y173352D01*
X40569Y173155D01*
X40997Y172948D01*
X41420Y172731D01*
X41838Y172503D01*
X42250Y172266D01*
X42656Y172018D01*
X43057Y171761D01*
X43450Y171494D01*
X43837Y171217D01*
X44218Y170932D01*
X44591Y170637D01*
X44957Y170333D01*
X45315Y170020D01*
X45666Y169698D01*
X46009Y169368D01*
X46344Y169030D01*
X46670Y168684D01*
X46988Y168330D01*
X47297Y167969D01*
X47597Y167600D01*
X47888Y167223D01*
X48170Y166840D01*
X48170Y143001D02*
X47881Y142619D01*
X47584Y142245D01*
X47277Y141878D01*
X46962Y141519D01*
X46638Y141168D01*
X46306Y140824D01*
X45965Y140489D01*
X45616Y140162D01*
X45260Y139843D01*
X44896Y139534D01*
X44524Y139233D01*
X44145Y138941D01*
X43760Y138659D01*
X43367Y138386D01*
X42968Y138123D01*
X42563Y137870D01*
X42151Y137626D01*
X41734Y137393D01*
X41312Y137169D01*
X40884Y136956D01*
X40451Y136754D01*
X40013Y136562D01*
X39570Y136381D01*
X39124Y136210D01*
X38673Y136051D01*
X38219Y135902D01*
X37761Y135765D01*
X37300Y135639D01*
X36836Y135524D01*
X36369Y135420D01*
X35900Y135328D01*
X35429Y135247D01*
X34956Y135177D01*
X34482Y135119D01*
X34006Y135073D01*
X33529Y135038D01*
X33052Y135015D01*
X32574Y135003D01*
X32096Y135003D01*
X31618Y135015D01*
X31141Y135038D01*
X30664Y135073D01*
X30188Y135119D01*
X29714Y135177D01*
X29241Y135247D01*
X28770Y135328D01*
X28301Y135420D01*
X27834Y135524D01*
X27370Y135639D01*
X26909Y135765D01*
X26451Y135902D01*
X25997Y136051D01*
X25546Y136210D01*
X25100Y136381D01*
X24657Y136562D01*
X24219Y136754D01*
X23786Y136956D01*
X23358Y137169D01*
X22936Y137393D01*
X22519Y137626D01*
X22107Y137870D01*
X21702Y138123D01*
X21303Y138386D01*
X20910Y138659D01*
X20525Y138941D01*
X20146Y139233D01*
X19774Y139534D01*
X19410Y139843D01*
X19054Y140162D01*
X18705Y140489D01*
X18364Y140824D01*
X18032Y141168D01*
X17708Y141519D01*
X17393Y141878D01*
X17086Y142245D01*
X16789Y142619D01*
X16500Y143001D01*
X7500Y154600D02*
X7502Y154637D01*
X7508Y154674D01*
X7518Y154710D01*
X7531Y154745D01*
X7548Y154778D01*
X7569Y154809D01*
X7593Y154837D01*
X7620Y154863D01*
X7649Y154886D01*
X7680Y154906D01*
X7714Y154922D01*
X7749Y154935D01*
X7785Y154944D01*
X7822Y154949D01*
X7859Y154950D01*
X7896Y154947D01*
X7933Y154940D01*
X7969Y154929D01*
X8003Y154915D01*
X8036Y154897D01*
X8066Y154875D01*
X8094Y154851D01*
X8119Y154823D01*
X8142Y154793D01*
X8161Y154761D01*
X8176Y154727D01*
X8188Y154692D01*
X8196Y154656D01*
X8200Y154619D01*
X8200Y154581D01*
X8196Y154544D01*
X8188Y154508D01*
X8176Y154473D01*
X8161Y154439D01*
X8142Y154407D01*
X8119Y154377D01*
X8094Y154349D01*
X8066Y154325D01*
X8036Y154303D01*
X8003Y154285D01*
X7969Y154271D01*
X7933Y154260D01*
X7896Y154253D01*
X7859Y154250D01*
X7822Y154251D01*
X7785Y154256D01*
X7749Y154265D01*
X7714Y154278D01*
X7680Y154294D01*
X7649Y154314D01*
X7620Y154337D01*
X7593Y154363D01*
X7569Y154391D01*
X7548Y154422D01*
X7531Y154455D01*
X7518Y154490D01*
X7508Y154526D01*
X7502Y154563D01*
X7500Y154600D01*
D11*
X-59250Y284600D02*
X-60750Y284600D01*
X-60750Y255400D01*
X-59250Y255400D01*
X-59250Y284600D01*
X-55750Y285050D02*
X-43250Y285050D01*
X71500Y266250D02*
X95700Y266250D01*
X88500Y253750D02*
X71500Y253750D01*
X23250Y255400D02*
X21750Y255400D01*
X23250Y255400D02*
X23250Y284600D01*
X21750Y284600D01*
X21750Y255400D01*
X18250Y255000D02*
X5750Y255000D01*
D12*
X-48892Y7222D02*
X-126108Y7222D01*
X-126108Y9254D01*
X-126108Y137778D02*
X-48892Y137778D01*
X-48892Y135746D01*
X-48892Y9254D02*
X-48892Y7222D01*
X-126108Y135746D02*
X-126108Y137778D01*
D14*
X-36157Y138992D02*
X-36157Y142971D01*
X-36157Y138992D02*
X-38478Y136007D01*
X-36157Y138992D02*
X-33835Y136007D01*
X-36157Y138992D02*
X-39804Y140318D01*
X-36157Y138992D02*
X-32509Y140318D01*
D11*
X-57100Y196750D02*
X-57100Y198250D01*
X-57100Y196750D02*
X-27900Y196750D01*
X-27900Y198250D01*
X-57100Y198250D01*
X-57550Y201750D02*
X-57550Y214250D01*
M02*
