G04 EAGLE Gerber RS-274X export*
G75*
%MOMM*%
%FSLAX34Y34*%
%LPD*%
%INSilkscreen Top*%
%IPPOS*%
%AMOC8*
5,1,8,0,0,1.08239X$1,22.5*%
G01*
%ADD10C,0.101600*%
%ADD11C,0.076200*%
%ADD12C,0.152400*%
%ADD13C,0.150000*%
%ADD14R,0.635000X0.012700*%
%ADD15R,0.533400X0.012700*%
%ADD16R,0.711200X0.012700*%
%ADD17R,0.609600X0.012700*%
%ADD18R,0.749300X0.012700*%
%ADD19R,0.736600X0.012700*%
%ADD20R,0.774700X0.012700*%
%ADD21R,0.660400X0.012700*%
%ADD22R,0.762000X0.012700*%
%ADD23R,0.800100X0.012700*%
%ADD24R,0.685800X0.012700*%
%ADD25R,0.787400X0.012700*%
%ADD26R,0.812800X0.012700*%
%ADD27R,0.838200X0.012700*%
%ADD28R,0.825500X0.012700*%
%ADD29R,0.850900X0.012700*%
%ADD30R,0.863600X0.012700*%
%ADD31R,0.876300X0.012700*%
%ADD32R,0.889000X0.012700*%
%ADD33R,0.901700X0.012700*%
%ADD34R,0.914400X0.012700*%
%ADD35R,0.927100X0.012700*%
%ADD36R,0.203200X0.012700*%
%ADD37R,0.190500X0.012700*%
%ADD38R,0.228600X0.012700*%
%ADD39R,0.266700X0.012700*%
%ADD40R,0.241300X0.012700*%
%ADD41R,0.279400X0.012700*%
%ADD42R,0.012700X0.012700*%
%ADD43R,0.025400X0.012700*%
%ADD44R,0.038100X0.012700*%
%ADD45R,0.050800X0.012700*%
%ADD46R,0.063500X0.012700*%
%ADD47R,0.076200X0.012700*%
%ADD48R,0.088900X0.012700*%
%ADD49R,0.101600X0.012700*%
%ADD50R,0.114300X0.012700*%
%ADD51R,0.127000X0.012700*%
%ADD52R,0.139700X0.012700*%
%ADD53R,0.673100X0.012700*%
%ADD54R,0.152400X0.012700*%
%ADD55R,0.165100X0.012700*%
%ADD56R,0.698500X0.012700*%
%ADD57R,0.177800X0.012700*%
%ADD58R,0.723900X0.012700*%
%ADD59R,0.215900X0.012700*%
%ADD60R,0.254000X0.012700*%
%ADD61R,0.292100X0.012700*%
%ADD62R,0.304800X0.012700*%
%ADD63R,0.317500X0.012700*%
%ADD64R,0.330200X0.012700*%
%ADD65R,0.342900X0.012700*%
%ADD66R,0.355600X0.012700*%
%ADD67R,0.368300X0.012700*%
%ADD68R,0.381000X0.012700*%
%ADD69R,0.393700X0.012700*%
%ADD70R,0.406400X0.012700*%
%ADD71R,0.419100X0.012700*%
%ADD72R,0.431800X0.012700*%
%ADD73R,0.444500X0.012700*%
%ADD74R,0.457200X0.012700*%
%ADD75R,0.939800X0.012700*%
%ADD76R,0.469900X0.012700*%
%ADD77R,0.952500X0.012700*%
%ADD78R,0.965200X0.012700*%
%ADD79R,0.977900X0.012700*%
%ADD80R,0.990600X0.012700*%
%ADD81R,1.003300X0.012700*%
%ADD82R,1.016000X0.012700*%
%ADD83R,1.028700X0.012700*%
%ADD84R,1.041400X0.012700*%
%ADD85R,1.054100X0.012700*%
%ADD86R,1.066800X0.012700*%
%ADD87R,1.079500X0.012700*%
%ADD88R,1.092200X0.012700*%
%ADD89R,1.104900X0.012700*%
%ADD90R,1.117600X0.012700*%
%ADD91C,0.200000*%
%ADD92C,0.127000*%


D10*
X-91026Y72869D02*
X-91125Y72662D01*
X-91218Y72452D01*
X-91306Y72239D01*
X-91389Y72025D01*
X-91467Y71809D01*
X-91540Y71591D01*
X-91608Y71371D01*
X-91670Y71150D01*
X-91727Y70927D01*
X-91779Y70703D01*
X-91825Y70478D01*
X-91866Y70252D01*
X-91901Y70025D01*
X-91931Y69797D01*
X-91956Y69568D01*
X-91975Y69339D01*
X-91989Y69110D01*
X-91997Y68880D01*
X-92000Y68650D01*
X-91026Y72869D02*
X-90993Y72959D01*
X-90957Y73048D01*
X-90917Y73136D01*
X-90873Y73221D01*
X-90826Y73305D01*
X-90776Y73387D01*
X-90722Y73467D01*
X-90666Y73544D01*
X-90606Y73620D01*
X-90543Y73693D01*
X-90478Y73763D01*
X-90409Y73831D01*
X-90338Y73895D01*
X-90265Y73957D01*
X-90189Y74016D01*
X-90111Y74072D01*
X-90030Y74125D01*
X-89948Y74174D01*
X-89864Y74220D01*
X-89777Y74263D01*
X-89690Y74302D01*
X-89600Y74338D01*
X-89510Y74370D01*
X-89418Y74398D01*
X-89325Y74423D01*
X-89231Y74444D01*
X-89137Y74461D01*
X-89042Y74475D01*
X-88946Y74484D01*
X-88850Y74490D01*
X-88754Y74492D01*
X-88658Y74490D01*
X-88562Y74484D01*
X-88466Y74475D01*
X-88371Y74461D01*
X-88277Y74444D01*
X-88183Y74423D01*
X-88090Y74398D01*
X-87998Y74370D01*
X-87908Y74338D01*
X-87818Y74302D01*
X-87731Y74263D01*
X-87644Y74220D01*
X-87560Y74174D01*
X-87478Y74125D01*
X-87397Y74072D01*
X-87319Y74016D01*
X-87243Y73957D01*
X-87170Y73895D01*
X-87099Y73831D01*
X-87030Y73763D01*
X-86965Y73693D01*
X-86902Y73620D01*
X-86842Y73545D01*
X-86786Y73467D01*
X-86732Y73387D01*
X-86682Y73305D01*
X-86635Y73221D01*
X-86592Y73136D01*
X-86551Y73048D01*
X-86515Y72959D01*
X-86482Y72869D01*
X-86383Y72661D01*
X-86290Y72451D01*
X-86202Y72239D01*
X-86119Y72025D01*
X-86041Y71808D01*
X-85968Y71590D01*
X-85900Y71371D01*
X-85838Y71149D01*
X-85781Y70927D01*
X-85729Y70703D01*
X-85683Y70478D01*
X-85642Y70252D01*
X-85607Y70024D01*
X-85577Y69797D01*
X-85552Y69568D01*
X-85533Y69339D01*
X-85519Y69110D01*
X-85511Y68880D01*
X-85508Y68650D01*
X-91999Y68650D02*
X-91996Y68420D01*
X-91988Y68190D01*
X-91974Y67961D01*
X-91955Y67732D01*
X-91930Y67503D01*
X-91900Y67275D01*
X-91865Y67048D01*
X-91824Y66822D01*
X-91778Y66597D01*
X-91726Y66373D01*
X-91669Y66150D01*
X-91607Y65929D01*
X-91539Y65709D01*
X-91466Y65491D01*
X-91388Y65275D01*
X-91305Y65061D01*
X-91217Y64849D01*
X-91124Y64638D01*
X-91025Y64431D01*
X-91026Y64431D02*
X-90993Y64341D01*
X-90957Y64252D01*
X-90916Y64164D01*
X-90873Y64079D01*
X-90826Y63995D01*
X-90776Y63913D01*
X-90722Y63833D01*
X-90666Y63756D01*
X-90606Y63680D01*
X-90543Y63607D01*
X-90478Y63537D01*
X-90409Y63469D01*
X-90338Y63405D01*
X-90265Y63343D01*
X-90189Y63284D01*
X-90111Y63228D01*
X-90030Y63175D01*
X-89948Y63126D01*
X-89864Y63080D01*
X-89777Y63037D01*
X-89690Y62998D01*
X-89600Y62962D01*
X-89510Y62930D01*
X-89418Y62902D01*
X-89325Y62877D01*
X-89231Y62856D01*
X-89137Y62839D01*
X-89042Y62825D01*
X-88946Y62816D01*
X-88850Y62810D01*
X-88754Y62808D01*
X-86482Y64431D02*
X-86383Y64638D01*
X-86290Y64849D01*
X-86202Y65061D01*
X-86119Y65275D01*
X-86041Y65491D01*
X-85968Y65709D01*
X-85900Y65929D01*
X-85838Y66150D01*
X-85781Y66373D01*
X-85729Y66597D01*
X-85683Y66822D01*
X-85642Y67048D01*
X-85607Y67275D01*
X-85577Y67503D01*
X-85552Y67732D01*
X-85533Y67961D01*
X-85519Y68190D01*
X-85511Y68420D01*
X-85508Y68650D01*
X-86482Y64431D02*
X-86515Y64341D01*
X-86551Y64252D01*
X-86592Y64164D01*
X-86635Y64079D01*
X-86682Y63995D01*
X-86732Y63913D01*
X-86786Y63833D01*
X-86842Y63755D01*
X-86902Y63680D01*
X-86965Y63607D01*
X-87030Y63537D01*
X-87099Y63469D01*
X-87170Y63405D01*
X-87243Y63343D01*
X-87319Y63284D01*
X-87397Y63228D01*
X-87478Y63175D01*
X-87560Y63126D01*
X-87644Y63080D01*
X-87731Y63037D01*
X-87818Y62998D01*
X-87908Y62962D01*
X-87998Y62930D01*
X-88090Y62902D01*
X-88183Y62877D01*
X-88277Y62856D01*
X-88371Y62839D01*
X-88466Y62825D01*
X-88562Y62816D01*
X-88658Y62810D01*
X-88754Y62808D01*
X-91350Y65404D02*
X-86157Y71896D01*
X80501Y63650D02*
X80504Y63880D01*
X80512Y64110D01*
X80526Y64339D01*
X80545Y64568D01*
X80570Y64797D01*
X80600Y65024D01*
X80635Y65252D01*
X80676Y65478D01*
X80722Y65703D01*
X80774Y65927D01*
X80831Y66149D01*
X80893Y66371D01*
X80961Y66590D01*
X81034Y66808D01*
X81112Y67025D01*
X81195Y67239D01*
X81283Y67451D01*
X81376Y67661D01*
X81475Y67869D01*
X81474Y67869D02*
X81507Y67959D01*
X81543Y68048D01*
X81583Y68136D01*
X81627Y68221D01*
X81674Y68305D01*
X81724Y68387D01*
X81778Y68467D01*
X81834Y68544D01*
X81894Y68620D01*
X81957Y68693D01*
X82022Y68763D01*
X82091Y68831D01*
X82162Y68895D01*
X82235Y68957D01*
X82311Y69016D01*
X82389Y69072D01*
X82470Y69125D01*
X82552Y69174D01*
X82636Y69220D01*
X82723Y69263D01*
X82810Y69302D01*
X82900Y69338D01*
X82990Y69370D01*
X83082Y69398D01*
X83175Y69423D01*
X83269Y69444D01*
X83363Y69461D01*
X83458Y69475D01*
X83554Y69484D01*
X83650Y69490D01*
X83746Y69492D01*
X83842Y69490D01*
X83938Y69484D01*
X84034Y69475D01*
X84129Y69461D01*
X84223Y69444D01*
X84317Y69423D01*
X84410Y69398D01*
X84502Y69370D01*
X84592Y69338D01*
X84682Y69302D01*
X84769Y69263D01*
X84856Y69220D01*
X84940Y69174D01*
X85022Y69125D01*
X85103Y69072D01*
X85181Y69016D01*
X85257Y68957D01*
X85330Y68895D01*
X85401Y68831D01*
X85470Y68763D01*
X85535Y68693D01*
X85598Y68620D01*
X85658Y68544D01*
X85714Y68467D01*
X85768Y68387D01*
X85818Y68305D01*
X85865Y68221D01*
X85909Y68136D01*
X85949Y68048D01*
X85985Y67959D01*
X86018Y67869D01*
X86019Y67869D02*
X86118Y67662D01*
X86211Y67452D01*
X86299Y67239D01*
X86382Y67025D01*
X86460Y66809D01*
X86533Y66591D01*
X86601Y66371D01*
X86663Y66150D01*
X86720Y65927D01*
X86772Y65703D01*
X86818Y65478D01*
X86859Y65252D01*
X86894Y65025D01*
X86924Y64797D01*
X86949Y64568D01*
X86968Y64339D01*
X86982Y64110D01*
X86990Y63880D01*
X86993Y63650D01*
X80501Y63650D02*
X80504Y63420D01*
X80512Y63190D01*
X80526Y62961D01*
X80545Y62732D01*
X80570Y62503D01*
X80600Y62275D01*
X80635Y62048D01*
X80676Y61822D01*
X80722Y61597D01*
X80774Y61373D01*
X80831Y61150D01*
X80893Y60929D01*
X80961Y60709D01*
X81034Y60491D01*
X81112Y60275D01*
X81195Y60061D01*
X81283Y59849D01*
X81376Y59638D01*
X81475Y59431D01*
X81474Y59431D02*
X81507Y59341D01*
X81543Y59252D01*
X81584Y59164D01*
X81627Y59079D01*
X81674Y58995D01*
X81724Y58913D01*
X81778Y58833D01*
X81834Y58756D01*
X81894Y58680D01*
X81957Y58607D01*
X82022Y58537D01*
X82091Y58469D01*
X82162Y58405D01*
X82235Y58343D01*
X82311Y58284D01*
X82389Y58228D01*
X82470Y58175D01*
X82552Y58126D01*
X82636Y58080D01*
X82723Y58037D01*
X82810Y57998D01*
X82900Y57962D01*
X82990Y57930D01*
X83082Y57902D01*
X83175Y57877D01*
X83269Y57856D01*
X83363Y57839D01*
X83458Y57825D01*
X83554Y57816D01*
X83650Y57810D01*
X83746Y57808D01*
X86018Y59431D02*
X86117Y59638D01*
X86210Y59849D01*
X86298Y60061D01*
X86381Y60275D01*
X86459Y60491D01*
X86532Y60709D01*
X86600Y60929D01*
X86662Y61150D01*
X86719Y61373D01*
X86771Y61597D01*
X86817Y61822D01*
X86858Y62048D01*
X86893Y62275D01*
X86923Y62503D01*
X86948Y62732D01*
X86967Y62961D01*
X86981Y63190D01*
X86989Y63420D01*
X86992Y63650D01*
X86018Y59431D02*
X85985Y59341D01*
X85949Y59252D01*
X85909Y59164D01*
X85865Y59079D01*
X85818Y58995D01*
X85768Y58913D01*
X85714Y58833D01*
X85658Y58756D01*
X85598Y58680D01*
X85535Y58607D01*
X85470Y58537D01*
X85401Y58469D01*
X85330Y58405D01*
X85257Y58343D01*
X85181Y58284D01*
X85103Y58228D01*
X85022Y58175D01*
X84940Y58126D01*
X84856Y58080D01*
X84769Y58037D01*
X84682Y57998D01*
X84592Y57962D01*
X84502Y57930D01*
X84410Y57902D01*
X84317Y57877D01*
X84223Y57856D01*
X84129Y57839D01*
X84034Y57825D01*
X83938Y57816D01*
X83842Y57810D01*
X83746Y57808D01*
X81150Y60404D02*
X86343Y66896D01*
D11*
X-40802Y212295D02*
X-40802Y219869D01*
X-40802Y212295D02*
X-40804Y212203D01*
X-40810Y212111D01*
X-40820Y212020D01*
X-40833Y211929D01*
X-40851Y211839D01*
X-40872Y211750D01*
X-40897Y211661D01*
X-40926Y211574D01*
X-40958Y211488D01*
X-40994Y211404D01*
X-41034Y211321D01*
X-41077Y211240D01*
X-41123Y211160D01*
X-41173Y211083D01*
X-41226Y211008D01*
X-41282Y210936D01*
X-41342Y210865D01*
X-41404Y210798D01*
X-41469Y210733D01*
X-41536Y210671D01*
X-41607Y210611D01*
X-41679Y210555D01*
X-41754Y210502D01*
X-41831Y210452D01*
X-41911Y210406D01*
X-41992Y210363D01*
X-42075Y210323D01*
X-42159Y210287D01*
X-42245Y210255D01*
X-42332Y210226D01*
X-42421Y210201D01*
X-42510Y210180D01*
X-42600Y210162D01*
X-42691Y210149D01*
X-42782Y210139D01*
X-42874Y210133D01*
X-42966Y210131D01*
X-44048Y210131D01*
X-36151Y210131D02*
X-36151Y219869D01*
X-36151Y210131D02*
X-31823Y210131D01*
X-26156Y210131D02*
X-23992Y210131D01*
X-26156Y210131D02*
X-26248Y210133D01*
X-26340Y210139D01*
X-26431Y210149D01*
X-26522Y210162D01*
X-26612Y210180D01*
X-26701Y210201D01*
X-26790Y210226D01*
X-26877Y210255D01*
X-26963Y210287D01*
X-27047Y210323D01*
X-27130Y210363D01*
X-27211Y210406D01*
X-27291Y210452D01*
X-27368Y210502D01*
X-27443Y210555D01*
X-27515Y210611D01*
X-27586Y210671D01*
X-27653Y210733D01*
X-27718Y210798D01*
X-27780Y210865D01*
X-27840Y210936D01*
X-27896Y211008D01*
X-27949Y211083D01*
X-27999Y211160D01*
X-28045Y211240D01*
X-28088Y211321D01*
X-28128Y211404D01*
X-28164Y211488D01*
X-28196Y211574D01*
X-28225Y211661D01*
X-28250Y211750D01*
X-28271Y211839D01*
X-28289Y211929D01*
X-28302Y212020D01*
X-28312Y212111D01*
X-28318Y212203D01*
X-28320Y212295D01*
X-28320Y217705D01*
X-28318Y217797D01*
X-28312Y217889D01*
X-28302Y217980D01*
X-28289Y218071D01*
X-28271Y218161D01*
X-28250Y218250D01*
X-28225Y218339D01*
X-28196Y218426D01*
X-28164Y218512D01*
X-28128Y218596D01*
X-28088Y218679D01*
X-28045Y218760D01*
X-27999Y218840D01*
X-27949Y218917D01*
X-27896Y218992D01*
X-27840Y219064D01*
X-27780Y219135D01*
X-27718Y219202D01*
X-27653Y219267D01*
X-27586Y219329D01*
X-27515Y219389D01*
X-27443Y219445D01*
X-27368Y219498D01*
X-27291Y219548D01*
X-27211Y219594D01*
X-27130Y219637D01*
X-27047Y219677D01*
X-26963Y219713D01*
X-26877Y219745D01*
X-26790Y219774D01*
X-26701Y219799D01*
X-26612Y219820D01*
X-26522Y219838D01*
X-26431Y219851D01*
X-26340Y219861D01*
X-26248Y219867D01*
X-26156Y219869D01*
X-23992Y219869D01*
X-18122Y219869D02*
X-18122Y212295D01*
X-18124Y212203D01*
X-18130Y212111D01*
X-18140Y212020D01*
X-18153Y211929D01*
X-18171Y211839D01*
X-18192Y211750D01*
X-18217Y211661D01*
X-18246Y211574D01*
X-18278Y211488D01*
X-18314Y211404D01*
X-18354Y211321D01*
X-18397Y211240D01*
X-18443Y211160D01*
X-18493Y211083D01*
X-18546Y211008D01*
X-18602Y210936D01*
X-18662Y210865D01*
X-18724Y210798D01*
X-18789Y210733D01*
X-18856Y210671D01*
X-18927Y210611D01*
X-18999Y210555D01*
X-19074Y210502D01*
X-19151Y210452D01*
X-19231Y210406D01*
X-19312Y210363D01*
X-19395Y210323D01*
X-19479Y210287D01*
X-19565Y210255D01*
X-19652Y210226D01*
X-19741Y210201D01*
X-19830Y210180D01*
X-19920Y210162D01*
X-20011Y210149D01*
X-20102Y210139D01*
X-20194Y210133D01*
X-20286Y210131D01*
X-21368Y210131D01*
X-13471Y210131D02*
X-13471Y219869D01*
X-13471Y210131D02*
X-9143Y210131D01*
X-3476Y210131D02*
X-1312Y210131D01*
X-3476Y210131D02*
X-3568Y210133D01*
X-3660Y210139D01*
X-3751Y210149D01*
X-3842Y210162D01*
X-3932Y210180D01*
X-4021Y210201D01*
X-4110Y210226D01*
X-4197Y210255D01*
X-4283Y210287D01*
X-4367Y210323D01*
X-4450Y210363D01*
X-4531Y210406D01*
X-4611Y210452D01*
X-4688Y210502D01*
X-4763Y210555D01*
X-4835Y210611D01*
X-4906Y210671D01*
X-4973Y210733D01*
X-5038Y210798D01*
X-5100Y210865D01*
X-5160Y210936D01*
X-5216Y211008D01*
X-5269Y211083D01*
X-5319Y211160D01*
X-5365Y211240D01*
X-5408Y211321D01*
X-5448Y211404D01*
X-5484Y211488D01*
X-5516Y211574D01*
X-5545Y211661D01*
X-5570Y211750D01*
X-5591Y211839D01*
X-5609Y211929D01*
X-5622Y212020D01*
X-5632Y212111D01*
X-5638Y212203D01*
X-5640Y212295D01*
X-5640Y217705D01*
X-5638Y217797D01*
X-5632Y217889D01*
X-5622Y217980D01*
X-5609Y218071D01*
X-5591Y218161D01*
X-5570Y218250D01*
X-5545Y218339D01*
X-5516Y218426D01*
X-5484Y218512D01*
X-5448Y218596D01*
X-5408Y218679D01*
X-5365Y218760D01*
X-5319Y218840D01*
X-5269Y218917D01*
X-5216Y218992D01*
X-5160Y219064D01*
X-5100Y219135D01*
X-5038Y219202D01*
X-4973Y219267D01*
X-4906Y219329D01*
X-4835Y219389D01*
X-4763Y219445D01*
X-4688Y219498D01*
X-4611Y219548D01*
X-4531Y219594D01*
X-4450Y219637D01*
X-4367Y219677D01*
X-4283Y219713D01*
X-4197Y219745D01*
X-4110Y219774D01*
X-4021Y219799D01*
X-3932Y219820D01*
X-3842Y219838D01*
X-3751Y219851D01*
X-3660Y219861D01*
X-3568Y219867D01*
X-3476Y219869D01*
X-1312Y219869D01*
X4558Y219869D02*
X4558Y212295D01*
X4556Y212203D01*
X4550Y212111D01*
X4540Y212020D01*
X4527Y211929D01*
X4509Y211839D01*
X4488Y211750D01*
X4463Y211661D01*
X4434Y211574D01*
X4402Y211488D01*
X4366Y211404D01*
X4326Y211321D01*
X4283Y211240D01*
X4237Y211160D01*
X4187Y211083D01*
X4134Y211008D01*
X4078Y210936D01*
X4018Y210865D01*
X3956Y210798D01*
X3891Y210733D01*
X3824Y210671D01*
X3753Y210611D01*
X3681Y210555D01*
X3606Y210502D01*
X3529Y210452D01*
X3449Y210406D01*
X3368Y210363D01*
X3285Y210323D01*
X3201Y210287D01*
X3115Y210255D01*
X3028Y210226D01*
X2939Y210201D01*
X2850Y210180D01*
X2760Y210162D01*
X2669Y210149D01*
X2578Y210139D01*
X2486Y210133D01*
X2394Y210131D01*
X1312Y210131D01*
X9209Y210131D02*
X9209Y219869D01*
X9209Y210131D02*
X13537Y210131D01*
X19204Y210131D02*
X21368Y210131D01*
X19204Y210131D02*
X19112Y210133D01*
X19020Y210139D01*
X18929Y210149D01*
X18838Y210162D01*
X18748Y210180D01*
X18659Y210201D01*
X18570Y210226D01*
X18483Y210255D01*
X18397Y210287D01*
X18313Y210323D01*
X18230Y210363D01*
X18149Y210406D01*
X18069Y210452D01*
X17992Y210502D01*
X17917Y210555D01*
X17845Y210611D01*
X17774Y210671D01*
X17707Y210733D01*
X17642Y210798D01*
X17580Y210865D01*
X17520Y210936D01*
X17464Y211008D01*
X17411Y211083D01*
X17361Y211160D01*
X17315Y211240D01*
X17272Y211321D01*
X17232Y211404D01*
X17196Y211488D01*
X17164Y211574D01*
X17135Y211661D01*
X17110Y211750D01*
X17089Y211839D01*
X17071Y211929D01*
X17058Y212020D01*
X17048Y212111D01*
X17042Y212203D01*
X17040Y212295D01*
X17040Y217705D01*
X17042Y217797D01*
X17048Y217889D01*
X17058Y217980D01*
X17071Y218071D01*
X17089Y218161D01*
X17110Y218250D01*
X17135Y218339D01*
X17164Y218426D01*
X17196Y218512D01*
X17232Y218596D01*
X17272Y218679D01*
X17315Y218760D01*
X17361Y218840D01*
X17411Y218917D01*
X17464Y218992D01*
X17520Y219064D01*
X17580Y219135D01*
X17642Y219202D01*
X17707Y219267D01*
X17774Y219329D01*
X17845Y219389D01*
X17917Y219445D01*
X17992Y219498D01*
X18069Y219548D01*
X18149Y219594D01*
X18230Y219637D01*
X18313Y219677D01*
X18397Y219713D01*
X18483Y219745D01*
X18570Y219774D01*
X18659Y219799D01*
X18748Y219820D01*
X18838Y219838D01*
X18929Y219851D01*
X19020Y219861D01*
X19112Y219867D01*
X19204Y219869D01*
X21368Y219869D01*
X27238Y219869D02*
X27238Y212295D01*
X27236Y212203D01*
X27230Y212111D01*
X27220Y212020D01*
X27207Y211929D01*
X27189Y211839D01*
X27168Y211750D01*
X27143Y211661D01*
X27114Y211574D01*
X27082Y211488D01*
X27046Y211404D01*
X27006Y211321D01*
X26963Y211240D01*
X26917Y211160D01*
X26867Y211083D01*
X26814Y211008D01*
X26758Y210936D01*
X26698Y210865D01*
X26636Y210798D01*
X26571Y210733D01*
X26504Y210671D01*
X26433Y210611D01*
X26361Y210555D01*
X26286Y210502D01*
X26209Y210452D01*
X26129Y210406D01*
X26048Y210363D01*
X25965Y210323D01*
X25881Y210287D01*
X25795Y210255D01*
X25708Y210226D01*
X25619Y210201D01*
X25530Y210180D01*
X25440Y210162D01*
X25349Y210149D01*
X25258Y210139D01*
X25166Y210133D01*
X25074Y210131D01*
X23992Y210131D01*
X31889Y210131D02*
X31889Y219869D01*
X31889Y210131D02*
X36217Y210131D01*
X41884Y210131D02*
X44048Y210131D01*
X41884Y210131D02*
X41792Y210133D01*
X41700Y210139D01*
X41609Y210149D01*
X41518Y210162D01*
X41428Y210180D01*
X41339Y210201D01*
X41250Y210226D01*
X41163Y210255D01*
X41077Y210287D01*
X40993Y210323D01*
X40910Y210363D01*
X40829Y210406D01*
X40749Y210452D01*
X40672Y210502D01*
X40597Y210555D01*
X40525Y210611D01*
X40454Y210671D01*
X40387Y210733D01*
X40322Y210798D01*
X40260Y210865D01*
X40200Y210936D01*
X40144Y211008D01*
X40091Y211083D01*
X40041Y211160D01*
X39995Y211240D01*
X39952Y211321D01*
X39912Y211404D01*
X39876Y211488D01*
X39844Y211574D01*
X39815Y211661D01*
X39790Y211750D01*
X39769Y211839D01*
X39751Y211929D01*
X39738Y212020D01*
X39728Y212111D01*
X39722Y212203D01*
X39720Y212295D01*
X39720Y217705D01*
X39722Y217797D01*
X39728Y217889D01*
X39738Y217980D01*
X39751Y218071D01*
X39769Y218161D01*
X39790Y218250D01*
X39815Y218339D01*
X39844Y218426D01*
X39876Y218512D01*
X39912Y218596D01*
X39952Y218679D01*
X39995Y218760D01*
X40041Y218840D01*
X40091Y218917D01*
X40144Y218992D01*
X40200Y219064D01*
X40260Y219135D01*
X40322Y219202D01*
X40387Y219267D01*
X40454Y219329D01*
X40525Y219389D01*
X40597Y219445D01*
X40672Y219498D01*
X40749Y219548D01*
X40829Y219594D01*
X40910Y219637D01*
X40993Y219677D01*
X41077Y219713D01*
X41163Y219745D01*
X41250Y219774D01*
X41339Y219799D01*
X41428Y219820D01*
X41518Y219838D01*
X41609Y219851D01*
X41700Y219861D01*
X41792Y219867D01*
X41884Y219869D01*
X44048Y219869D01*
D12*
X-27000Y121500D02*
X-26992Y122163D01*
X-26967Y122825D01*
X-26927Y123486D01*
X-26870Y124146D01*
X-26797Y124805D01*
X-26708Y125462D01*
X-26602Y126116D01*
X-26481Y126767D01*
X-26344Y127416D01*
X-26191Y128060D01*
X-26022Y128701D01*
X-25837Y129338D01*
X-25637Y129969D01*
X-25422Y130596D01*
X-25191Y131217D01*
X-24945Y131832D01*
X-24684Y132442D01*
X-24408Y133044D01*
X-24117Y133640D01*
X-23812Y134228D01*
X-23492Y134808D01*
X-23159Y135381D01*
X-22811Y135945D01*
X-22450Y136500D01*
X-22075Y137047D01*
X-21687Y137584D01*
X-21285Y138111D01*
X-20871Y138629D01*
X-20445Y139136D01*
X-20006Y139632D01*
X-19555Y140118D01*
X-19092Y140592D01*
X-18618Y141055D01*
X-18132Y141506D01*
X-17636Y141945D01*
X-17129Y142371D01*
X-16611Y142785D01*
X-16084Y143187D01*
X-15547Y143575D01*
X-15000Y143950D01*
X-14445Y144311D01*
X-13881Y144659D01*
X-13308Y144992D01*
X-12728Y145312D01*
X-12140Y145617D01*
X-11544Y145908D01*
X-10942Y146184D01*
X-10332Y146445D01*
X-9717Y146691D01*
X-9096Y146922D01*
X-8469Y147137D01*
X-7838Y147337D01*
X-7201Y147522D01*
X-6560Y147691D01*
X-5916Y147844D01*
X-5267Y147981D01*
X-4616Y148102D01*
X-3962Y148208D01*
X-3305Y148297D01*
X-2646Y148370D01*
X-1986Y148427D01*
X-1325Y148467D01*
X-663Y148492D01*
X0Y148500D01*
X663Y148492D01*
X1325Y148467D01*
X1986Y148427D01*
X2646Y148370D01*
X3305Y148297D01*
X3962Y148208D01*
X4616Y148102D01*
X5267Y147981D01*
X5916Y147844D01*
X6560Y147691D01*
X7201Y147522D01*
X7838Y147337D01*
X8469Y147137D01*
X9096Y146922D01*
X9717Y146691D01*
X10332Y146445D01*
X10942Y146184D01*
X11544Y145908D01*
X12140Y145617D01*
X12728Y145312D01*
X13308Y144992D01*
X13881Y144659D01*
X14445Y144311D01*
X15000Y143950D01*
X15547Y143575D01*
X16084Y143187D01*
X16611Y142785D01*
X17129Y142371D01*
X17636Y141945D01*
X18132Y141506D01*
X18618Y141055D01*
X19092Y140592D01*
X19555Y140118D01*
X20006Y139632D01*
X20445Y139136D01*
X20871Y138629D01*
X21285Y138111D01*
X21687Y137584D01*
X22075Y137047D01*
X22450Y136500D01*
X22811Y135945D01*
X23159Y135381D01*
X23492Y134808D01*
X23812Y134228D01*
X24117Y133640D01*
X24408Y133044D01*
X24684Y132442D01*
X24945Y131832D01*
X25191Y131217D01*
X25422Y130596D01*
X25637Y129969D01*
X25837Y129338D01*
X26022Y128701D01*
X26191Y128060D01*
X26344Y127416D01*
X26481Y126767D01*
X26602Y126116D01*
X26708Y125462D01*
X26797Y124805D01*
X26870Y124146D01*
X26927Y123486D01*
X26967Y122825D01*
X26992Y122163D01*
X27000Y121500D01*
X26992Y120837D01*
X26967Y120175D01*
X26927Y119514D01*
X26870Y118854D01*
X26797Y118195D01*
X26708Y117538D01*
X26602Y116884D01*
X26481Y116233D01*
X26344Y115584D01*
X26191Y114940D01*
X26022Y114299D01*
X25837Y113662D01*
X25637Y113031D01*
X25422Y112404D01*
X25191Y111783D01*
X24945Y111168D01*
X24684Y110558D01*
X24408Y109956D01*
X24117Y109360D01*
X23812Y108772D01*
X23492Y108192D01*
X23159Y107619D01*
X22811Y107055D01*
X22450Y106500D01*
X22075Y105953D01*
X21687Y105416D01*
X21285Y104889D01*
X20871Y104371D01*
X20445Y103864D01*
X20006Y103368D01*
X19555Y102882D01*
X19092Y102408D01*
X18618Y101945D01*
X18132Y101494D01*
X17636Y101055D01*
X17129Y100629D01*
X16611Y100215D01*
X16084Y99813D01*
X15547Y99425D01*
X15000Y99050D01*
X14445Y98689D01*
X13881Y98341D01*
X13308Y98008D01*
X12728Y97688D01*
X12140Y97383D01*
X11544Y97092D01*
X10942Y96816D01*
X10332Y96555D01*
X9717Y96309D01*
X9096Y96078D01*
X8469Y95863D01*
X7838Y95663D01*
X7201Y95478D01*
X6560Y95309D01*
X5916Y95156D01*
X5267Y95019D01*
X4616Y94898D01*
X3962Y94792D01*
X3305Y94703D01*
X2646Y94630D01*
X1986Y94573D01*
X1325Y94533D01*
X663Y94508D01*
X0Y94500D01*
X-663Y94508D01*
X-1325Y94533D01*
X-1986Y94573D01*
X-2646Y94630D01*
X-3305Y94703D01*
X-3962Y94792D01*
X-4616Y94898D01*
X-5267Y95019D01*
X-5916Y95156D01*
X-6560Y95309D01*
X-7201Y95478D01*
X-7838Y95663D01*
X-8469Y95863D01*
X-9096Y96078D01*
X-9717Y96309D01*
X-10332Y96555D01*
X-10942Y96816D01*
X-11544Y97092D01*
X-12140Y97383D01*
X-12728Y97688D01*
X-13308Y98008D01*
X-13881Y98341D01*
X-14445Y98689D01*
X-15000Y99050D01*
X-15547Y99425D01*
X-16084Y99813D01*
X-16611Y100215D01*
X-17129Y100629D01*
X-17636Y101055D01*
X-18132Y101494D01*
X-18618Y101945D01*
X-19092Y102408D01*
X-19555Y102882D01*
X-20006Y103368D01*
X-20445Y103864D01*
X-20871Y104371D01*
X-21285Y104889D01*
X-21687Y105416D01*
X-22075Y105953D01*
X-22450Y106500D01*
X-22811Y107055D01*
X-23159Y107619D01*
X-23492Y108192D01*
X-23812Y108772D01*
X-24117Y109360D01*
X-24408Y109956D01*
X-24684Y110558D01*
X-24945Y111168D01*
X-25191Y111783D01*
X-25422Y112404D01*
X-25637Y113031D01*
X-25837Y113662D01*
X-26022Y114299D01*
X-26191Y114940D01*
X-26344Y115584D01*
X-26481Y116233D01*
X-26602Y116884D01*
X-26708Y117538D01*
X-26797Y118195D01*
X-26870Y118854D01*
X-26927Y119514D01*
X-26967Y120175D01*
X-26992Y120837D01*
X-27000Y121500D01*
D10*
X27281Y133246D02*
X30527Y135842D01*
X30527Y124158D01*
X33772Y124158D02*
X27281Y124158D01*
X41307Y129351D02*
X45202Y129351D01*
X41307Y129351D02*
X41208Y129353D01*
X41108Y129359D01*
X41009Y129368D01*
X40911Y129381D01*
X40813Y129398D01*
X40715Y129419D01*
X40619Y129444D01*
X40524Y129472D01*
X40430Y129504D01*
X40337Y129539D01*
X40245Y129578D01*
X40155Y129621D01*
X40067Y129666D01*
X39980Y129716D01*
X39896Y129768D01*
X39813Y129824D01*
X39733Y129882D01*
X39655Y129944D01*
X39580Y130009D01*
X39507Y130077D01*
X39437Y130147D01*
X39369Y130220D01*
X39304Y130295D01*
X39242Y130373D01*
X39184Y130453D01*
X39128Y130536D01*
X39076Y130620D01*
X39026Y130707D01*
X38981Y130795D01*
X38938Y130885D01*
X38899Y130977D01*
X38864Y131070D01*
X38832Y131164D01*
X38804Y131259D01*
X38779Y131355D01*
X38758Y131453D01*
X38741Y131551D01*
X38728Y131649D01*
X38719Y131748D01*
X38713Y131848D01*
X38711Y131947D01*
X38711Y132596D01*
X38713Y132709D01*
X38719Y132822D01*
X38729Y132935D01*
X38743Y133048D01*
X38760Y133160D01*
X38782Y133271D01*
X38807Y133381D01*
X38837Y133491D01*
X38870Y133599D01*
X38907Y133706D01*
X38947Y133812D01*
X38992Y133916D01*
X39040Y134019D01*
X39091Y134120D01*
X39146Y134219D01*
X39204Y134316D01*
X39266Y134411D01*
X39331Y134504D01*
X39399Y134594D01*
X39470Y134682D01*
X39545Y134768D01*
X39622Y134851D01*
X39702Y134931D01*
X39785Y135008D01*
X39871Y135083D01*
X39959Y135154D01*
X40049Y135222D01*
X40142Y135287D01*
X40237Y135349D01*
X40334Y135407D01*
X40433Y135462D01*
X40534Y135513D01*
X40637Y135561D01*
X40741Y135606D01*
X40847Y135646D01*
X40954Y135683D01*
X41062Y135716D01*
X41172Y135746D01*
X41282Y135771D01*
X41393Y135793D01*
X41505Y135810D01*
X41618Y135824D01*
X41731Y135834D01*
X41844Y135840D01*
X41957Y135842D01*
X42070Y135840D01*
X42183Y135834D01*
X42296Y135824D01*
X42409Y135810D01*
X42521Y135793D01*
X42632Y135771D01*
X42742Y135746D01*
X42852Y135716D01*
X42960Y135683D01*
X43067Y135646D01*
X43173Y135606D01*
X43277Y135561D01*
X43380Y135513D01*
X43481Y135462D01*
X43580Y135407D01*
X43677Y135349D01*
X43772Y135287D01*
X43865Y135222D01*
X43955Y135154D01*
X44043Y135083D01*
X44129Y135008D01*
X44212Y134931D01*
X44292Y134851D01*
X44369Y134768D01*
X44444Y134682D01*
X44515Y134594D01*
X44583Y134504D01*
X44648Y134411D01*
X44710Y134316D01*
X44768Y134219D01*
X44823Y134120D01*
X44874Y134019D01*
X44922Y133916D01*
X44967Y133812D01*
X45007Y133706D01*
X45044Y133599D01*
X45077Y133491D01*
X45107Y133381D01*
X45132Y133271D01*
X45154Y133160D01*
X45171Y133048D01*
X45185Y132935D01*
X45195Y132822D01*
X45201Y132709D01*
X45203Y132596D01*
X45202Y132596D02*
X45202Y129351D01*
X45200Y129208D01*
X45194Y129065D01*
X45184Y128922D01*
X45170Y128780D01*
X45153Y128638D01*
X45131Y128496D01*
X45106Y128355D01*
X45076Y128215D01*
X45043Y128076D01*
X45006Y127938D01*
X44965Y127801D01*
X44921Y127665D01*
X44872Y127530D01*
X44820Y127397D01*
X44765Y127265D01*
X44705Y127135D01*
X44642Y127006D01*
X44576Y126879D01*
X44506Y126754D01*
X44433Y126632D01*
X44356Y126511D01*
X44276Y126392D01*
X44193Y126276D01*
X44107Y126161D01*
X44018Y126050D01*
X43925Y125940D01*
X43830Y125834D01*
X43731Y125730D01*
X43630Y125629D01*
X43526Y125530D01*
X43420Y125435D01*
X43310Y125342D01*
X43199Y125253D01*
X43084Y125167D01*
X42968Y125084D01*
X42849Y125004D01*
X42728Y124927D01*
X42605Y124854D01*
X42481Y124784D01*
X42354Y124718D01*
X42225Y124655D01*
X42095Y124595D01*
X41963Y124540D01*
X41830Y124488D01*
X41695Y124439D01*
X41559Y124395D01*
X41422Y124354D01*
X41284Y124317D01*
X41145Y124284D01*
X41005Y124254D01*
X40864Y124229D01*
X40722Y124207D01*
X40580Y124190D01*
X40438Y124176D01*
X40295Y124166D01*
X40152Y124160D01*
X40009Y124158D01*
X53711Y135842D02*
X53818Y135840D01*
X53924Y135834D01*
X54030Y135824D01*
X54136Y135811D01*
X54242Y135793D01*
X54346Y135772D01*
X54450Y135747D01*
X54553Y135718D01*
X54654Y135686D01*
X54754Y135649D01*
X54853Y135609D01*
X54951Y135566D01*
X55047Y135519D01*
X55141Y135468D01*
X55233Y135414D01*
X55323Y135357D01*
X55411Y135297D01*
X55496Y135233D01*
X55579Y135166D01*
X55660Y135096D01*
X55738Y135024D01*
X55814Y134948D01*
X55886Y134870D01*
X55956Y134789D01*
X56023Y134706D01*
X56087Y134621D01*
X56147Y134533D01*
X56204Y134443D01*
X56258Y134351D01*
X56309Y134257D01*
X56356Y134161D01*
X56399Y134063D01*
X56439Y133964D01*
X56476Y133864D01*
X56508Y133763D01*
X56537Y133660D01*
X56562Y133556D01*
X56583Y133452D01*
X56601Y133346D01*
X56614Y133240D01*
X56624Y133134D01*
X56630Y133028D01*
X56632Y132921D01*
X53711Y135842D02*
X53590Y135840D01*
X53469Y135834D01*
X53349Y135824D01*
X53228Y135811D01*
X53109Y135793D01*
X52989Y135772D01*
X52871Y135747D01*
X52754Y135718D01*
X52637Y135685D01*
X52522Y135649D01*
X52408Y135608D01*
X52295Y135565D01*
X52183Y135517D01*
X52074Y135466D01*
X51966Y135411D01*
X51859Y135353D01*
X51755Y135292D01*
X51653Y135227D01*
X51553Y135159D01*
X51455Y135088D01*
X51359Y135014D01*
X51266Y134937D01*
X51176Y134856D01*
X51088Y134773D01*
X51003Y134687D01*
X50920Y134598D01*
X50841Y134507D01*
X50764Y134413D01*
X50691Y134317D01*
X50621Y134219D01*
X50554Y134118D01*
X50490Y134015D01*
X50430Y133910D01*
X50373Y133803D01*
X50319Y133695D01*
X50269Y133585D01*
X50223Y133473D01*
X50180Y133360D01*
X50141Y133245D01*
X55659Y130649D02*
X55738Y130726D01*
X55814Y130807D01*
X55887Y130890D01*
X55957Y130975D01*
X56024Y131063D01*
X56088Y131153D01*
X56148Y131245D01*
X56205Y131340D01*
X56259Y131436D01*
X56310Y131534D01*
X56357Y131634D01*
X56401Y131736D01*
X56441Y131839D01*
X56477Y131943D01*
X56509Y132049D01*
X56538Y132155D01*
X56563Y132263D01*
X56585Y132371D01*
X56602Y132481D01*
X56616Y132590D01*
X56625Y132700D01*
X56631Y132811D01*
X56633Y132921D01*
X55658Y130649D02*
X50141Y124158D01*
X56632Y124158D01*
X61571Y130000D02*
X61574Y130230D01*
X61582Y130460D01*
X61596Y130689D01*
X61615Y130918D01*
X61640Y131147D01*
X61670Y131374D01*
X61705Y131602D01*
X61746Y131828D01*
X61792Y132053D01*
X61844Y132277D01*
X61901Y132499D01*
X61963Y132721D01*
X62031Y132940D01*
X62104Y133158D01*
X62182Y133375D01*
X62265Y133589D01*
X62353Y133801D01*
X62446Y134011D01*
X62545Y134219D01*
X62544Y134219D02*
X62577Y134309D01*
X62613Y134398D01*
X62653Y134486D01*
X62697Y134571D01*
X62744Y134655D01*
X62794Y134737D01*
X62848Y134817D01*
X62904Y134894D01*
X62964Y134970D01*
X63027Y135043D01*
X63092Y135113D01*
X63161Y135181D01*
X63232Y135245D01*
X63305Y135307D01*
X63381Y135366D01*
X63459Y135422D01*
X63540Y135475D01*
X63622Y135524D01*
X63706Y135570D01*
X63793Y135613D01*
X63880Y135652D01*
X63970Y135688D01*
X64060Y135720D01*
X64152Y135748D01*
X64245Y135773D01*
X64339Y135794D01*
X64433Y135811D01*
X64528Y135825D01*
X64624Y135834D01*
X64720Y135840D01*
X64816Y135842D01*
X64912Y135840D01*
X65008Y135834D01*
X65104Y135825D01*
X65199Y135811D01*
X65293Y135794D01*
X65387Y135773D01*
X65480Y135748D01*
X65572Y135720D01*
X65662Y135688D01*
X65752Y135652D01*
X65839Y135613D01*
X65926Y135570D01*
X66010Y135524D01*
X66092Y135475D01*
X66173Y135422D01*
X66251Y135366D01*
X66327Y135307D01*
X66400Y135245D01*
X66471Y135181D01*
X66540Y135113D01*
X66605Y135043D01*
X66668Y134970D01*
X66728Y134894D01*
X66784Y134817D01*
X66838Y134737D01*
X66888Y134655D01*
X66935Y134571D01*
X66979Y134486D01*
X67019Y134398D01*
X67055Y134309D01*
X67088Y134219D01*
X67089Y134219D02*
X67188Y134012D01*
X67281Y133802D01*
X67369Y133589D01*
X67452Y133375D01*
X67530Y133159D01*
X67603Y132941D01*
X67671Y132721D01*
X67733Y132500D01*
X67790Y132277D01*
X67842Y132053D01*
X67888Y131828D01*
X67929Y131602D01*
X67964Y131375D01*
X67994Y131147D01*
X68019Y130918D01*
X68038Y130689D01*
X68052Y130460D01*
X68060Y130230D01*
X68063Y130000D01*
X61571Y130000D02*
X61574Y129770D01*
X61582Y129540D01*
X61596Y129311D01*
X61615Y129082D01*
X61640Y128853D01*
X61670Y128625D01*
X61705Y128398D01*
X61746Y128172D01*
X61792Y127947D01*
X61844Y127723D01*
X61901Y127500D01*
X61963Y127279D01*
X62031Y127059D01*
X62104Y126841D01*
X62182Y126625D01*
X62265Y126411D01*
X62353Y126199D01*
X62446Y125988D01*
X62545Y125781D01*
X62544Y125781D02*
X62577Y125691D01*
X62613Y125602D01*
X62654Y125514D01*
X62697Y125429D01*
X62744Y125345D01*
X62794Y125263D01*
X62848Y125183D01*
X62904Y125106D01*
X62964Y125030D01*
X63027Y124957D01*
X63092Y124887D01*
X63161Y124819D01*
X63232Y124755D01*
X63305Y124693D01*
X63381Y124634D01*
X63459Y124578D01*
X63540Y124525D01*
X63622Y124476D01*
X63706Y124430D01*
X63793Y124387D01*
X63880Y124348D01*
X63970Y124312D01*
X64060Y124280D01*
X64152Y124252D01*
X64245Y124227D01*
X64339Y124206D01*
X64433Y124189D01*
X64528Y124175D01*
X64624Y124166D01*
X64720Y124160D01*
X64816Y124158D01*
X67088Y125781D02*
X67187Y125988D01*
X67280Y126199D01*
X67368Y126411D01*
X67451Y126625D01*
X67529Y126841D01*
X67602Y127059D01*
X67670Y127279D01*
X67732Y127500D01*
X67789Y127723D01*
X67841Y127947D01*
X67887Y128172D01*
X67928Y128398D01*
X67963Y128625D01*
X67993Y128853D01*
X68018Y129082D01*
X68037Y129311D01*
X68051Y129540D01*
X68059Y129770D01*
X68062Y130000D01*
X67088Y125781D02*
X67055Y125691D01*
X67019Y125602D01*
X66979Y125514D01*
X66935Y125429D01*
X66888Y125345D01*
X66838Y125263D01*
X66784Y125183D01*
X66728Y125106D01*
X66668Y125030D01*
X66605Y124957D01*
X66540Y124887D01*
X66471Y124819D01*
X66400Y124755D01*
X66327Y124693D01*
X66251Y124634D01*
X66173Y124578D01*
X66092Y124525D01*
X66010Y124476D01*
X65926Y124430D01*
X65839Y124387D01*
X65752Y124348D01*
X65662Y124312D01*
X65572Y124280D01*
X65480Y124252D01*
X65387Y124227D01*
X65293Y124206D01*
X65199Y124189D01*
X65104Y124175D01*
X65008Y124166D01*
X64912Y124160D01*
X64816Y124158D01*
X62220Y126754D02*
X67413Y133246D01*
X73001Y130000D02*
X73004Y130230D01*
X73012Y130460D01*
X73026Y130689D01*
X73045Y130918D01*
X73070Y131147D01*
X73100Y131374D01*
X73135Y131602D01*
X73176Y131828D01*
X73222Y132053D01*
X73274Y132277D01*
X73331Y132499D01*
X73393Y132721D01*
X73461Y132940D01*
X73534Y133158D01*
X73612Y133375D01*
X73695Y133589D01*
X73783Y133801D01*
X73876Y134011D01*
X73975Y134219D01*
X73974Y134219D02*
X74007Y134309D01*
X74043Y134398D01*
X74083Y134486D01*
X74127Y134571D01*
X74174Y134655D01*
X74224Y134737D01*
X74278Y134817D01*
X74334Y134894D01*
X74394Y134970D01*
X74457Y135043D01*
X74522Y135113D01*
X74591Y135181D01*
X74662Y135245D01*
X74735Y135307D01*
X74811Y135366D01*
X74889Y135422D01*
X74970Y135475D01*
X75052Y135524D01*
X75136Y135570D01*
X75223Y135613D01*
X75310Y135652D01*
X75400Y135688D01*
X75490Y135720D01*
X75582Y135748D01*
X75675Y135773D01*
X75769Y135794D01*
X75863Y135811D01*
X75958Y135825D01*
X76054Y135834D01*
X76150Y135840D01*
X76246Y135842D01*
X76342Y135840D01*
X76438Y135834D01*
X76534Y135825D01*
X76629Y135811D01*
X76723Y135794D01*
X76817Y135773D01*
X76910Y135748D01*
X77002Y135720D01*
X77092Y135688D01*
X77182Y135652D01*
X77269Y135613D01*
X77356Y135570D01*
X77440Y135524D01*
X77522Y135475D01*
X77603Y135422D01*
X77681Y135366D01*
X77757Y135307D01*
X77830Y135245D01*
X77901Y135181D01*
X77970Y135113D01*
X78035Y135043D01*
X78098Y134970D01*
X78158Y134894D01*
X78214Y134817D01*
X78268Y134737D01*
X78318Y134655D01*
X78365Y134571D01*
X78409Y134486D01*
X78449Y134398D01*
X78485Y134309D01*
X78518Y134219D01*
X78519Y134219D02*
X78618Y134012D01*
X78711Y133802D01*
X78799Y133589D01*
X78882Y133375D01*
X78960Y133159D01*
X79033Y132941D01*
X79101Y132721D01*
X79163Y132500D01*
X79220Y132277D01*
X79272Y132053D01*
X79318Y131828D01*
X79359Y131602D01*
X79394Y131375D01*
X79424Y131147D01*
X79449Y130918D01*
X79468Y130689D01*
X79482Y130460D01*
X79490Y130230D01*
X79493Y130000D01*
X73001Y130000D02*
X73004Y129770D01*
X73012Y129540D01*
X73026Y129311D01*
X73045Y129082D01*
X73070Y128853D01*
X73100Y128625D01*
X73135Y128398D01*
X73176Y128172D01*
X73222Y127947D01*
X73274Y127723D01*
X73331Y127500D01*
X73393Y127279D01*
X73461Y127059D01*
X73534Y126841D01*
X73612Y126625D01*
X73695Y126411D01*
X73783Y126199D01*
X73876Y125988D01*
X73975Y125781D01*
X73974Y125781D02*
X74007Y125691D01*
X74043Y125602D01*
X74084Y125514D01*
X74127Y125429D01*
X74174Y125345D01*
X74224Y125263D01*
X74278Y125183D01*
X74334Y125106D01*
X74394Y125030D01*
X74457Y124957D01*
X74522Y124887D01*
X74591Y124819D01*
X74662Y124755D01*
X74735Y124693D01*
X74811Y124634D01*
X74889Y124578D01*
X74970Y124525D01*
X75052Y124476D01*
X75136Y124430D01*
X75223Y124387D01*
X75310Y124348D01*
X75400Y124312D01*
X75490Y124280D01*
X75582Y124252D01*
X75675Y124227D01*
X75769Y124206D01*
X75863Y124189D01*
X75958Y124175D01*
X76054Y124166D01*
X76150Y124160D01*
X76246Y124158D01*
X78518Y125781D02*
X78617Y125988D01*
X78710Y126199D01*
X78798Y126411D01*
X78881Y126625D01*
X78959Y126841D01*
X79032Y127059D01*
X79100Y127279D01*
X79162Y127500D01*
X79219Y127723D01*
X79271Y127947D01*
X79317Y128172D01*
X79358Y128398D01*
X79393Y128625D01*
X79423Y128853D01*
X79448Y129082D01*
X79467Y129311D01*
X79481Y129540D01*
X79489Y129770D01*
X79492Y130000D01*
X78518Y125781D02*
X78485Y125691D01*
X78449Y125602D01*
X78409Y125514D01*
X78365Y125429D01*
X78318Y125345D01*
X78268Y125263D01*
X78214Y125183D01*
X78158Y125106D01*
X78098Y125030D01*
X78035Y124957D01*
X77970Y124887D01*
X77901Y124819D01*
X77830Y124755D01*
X77757Y124693D01*
X77681Y124634D01*
X77603Y124578D01*
X77522Y124525D01*
X77440Y124476D01*
X77356Y124430D01*
X77269Y124387D01*
X77182Y124348D01*
X77092Y124312D01*
X77002Y124280D01*
X76910Y124252D01*
X76817Y124227D01*
X76723Y124206D01*
X76629Y124189D01*
X76534Y124175D01*
X76438Y124166D01*
X76342Y124160D01*
X76246Y124158D01*
X73650Y126754D02*
X78843Y133246D01*
X30527Y86658D02*
X27281Y86658D01*
X30527Y86658D02*
X30640Y86660D01*
X30753Y86666D01*
X30866Y86676D01*
X30979Y86690D01*
X31091Y86707D01*
X31202Y86729D01*
X31312Y86754D01*
X31422Y86784D01*
X31530Y86817D01*
X31637Y86854D01*
X31743Y86894D01*
X31847Y86939D01*
X31950Y86987D01*
X32051Y87038D01*
X32150Y87093D01*
X32247Y87151D01*
X32342Y87213D01*
X32435Y87278D01*
X32525Y87346D01*
X32613Y87417D01*
X32699Y87492D01*
X32782Y87569D01*
X32862Y87649D01*
X32939Y87732D01*
X33014Y87818D01*
X33085Y87906D01*
X33153Y87996D01*
X33218Y88089D01*
X33280Y88184D01*
X33338Y88281D01*
X33393Y88380D01*
X33444Y88481D01*
X33492Y88584D01*
X33537Y88688D01*
X33577Y88794D01*
X33614Y88901D01*
X33647Y89009D01*
X33677Y89119D01*
X33702Y89229D01*
X33724Y89340D01*
X33741Y89452D01*
X33755Y89565D01*
X33765Y89678D01*
X33771Y89791D01*
X33773Y89904D01*
X33771Y90017D01*
X33765Y90130D01*
X33755Y90243D01*
X33741Y90356D01*
X33724Y90468D01*
X33702Y90579D01*
X33677Y90689D01*
X33647Y90799D01*
X33614Y90907D01*
X33577Y91014D01*
X33537Y91120D01*
X33492Y91224D01*
X33444Y91327D01*
X33393Y91428D01*
X33338Y91527D01*
X33280Y91624D01*
X33218Y91719D01*
X33153Y91812D01*
X33085Y91902D01*
X33014Y91990D01*
X32939Y92076D01*
X32862Y92159D01*
X32782Y92239D01*
X32699Y92316D01*
X32613Y92391D01*
X32525Y92462D01*
X32435Y92530D01*
X32342Y92595D01*
X32247Y92657D01*
X32150Y92715D01*
X32051Y92770D01*
X31950Y92821D01*
X31847Y92869D01*
X31743Y92914D01*
X31637Y92954D01*
X31530Y92991D01*
X31422Y93024D01*
X31312Y93054D01*
X31202Y93079D01*
X31091Y93101D01*
X30979Y93118D01*
X30866Y93132D01*
X30753Y93142D01*
X30640Y93148D01*
X30527Y93150D01*
X31176Y98342D02*
X27281Y98342D01*
X31176Y98342D02*
X31277Y98340D01*
X31377Y98334D01*
X31477Y98324D01*
X31577Y98311D01*
X31676Y98293D01*
X31775Y98272D01*
X31872Y98247D01*
X31969Y98218D01*
X32064Y98185D01*
X32158Y98149D01*
X32250Y98109D01*
X32341Y98066D01*
X32430Y98019D01*
X32517Y97969D01*
X32603Y97915D01*
X32686Y97858D01*
X32766Y97798D01*
X32845Y97735D01*
X32921Y97668D01*
X32994Y97599D01*
X33064Y97527D01*
X33132Y97453D01*
X33197Y97376D01*
X33258Y97296D01*
X33317Y97214D01*
X33372Y97130D01*
X33424Y97044D01*
X33473Y96956D01*
X33518Y96866D01*
X33560Y96774D01*
X33598Y96681D01*
X33632Y96586D01*
X33663Y96491D01*
X33690Y96394D01*
X33713Y96296D01*
X33733Y96197D01*
X33748Y96097D01*
X33760Y95997D01*
X33768Y95897D01*
X33772Y95796D01*
X33772Y95696D01*
X33768Y95595D01*
X33760Y95495D01*
X33748Y95395D01*
X33733Y95295D01*
X33713Y95196D01*
X33690Y95098D01*
X33663Y95001D01*
X33632Y94906D01*
X33598Y94811D01*
X33560Y94718D01*
X33518Y94626D01*
X33473Y94536D01*
X33424Y94448D01*
X33372Y94362D01*
X33317Y94278D01*
X33258Y94196D01*
X33197Y94116D01*
X33132Y94039D01*
X33064Y93965D01*
X32994Y93893D01*
X32921Y93824D01*
X32845Y93757D01*
X32766Y93694D01*
X32686Y93634D01*
X32603Y93577D01*
X32517Y93523D01*
X32430Y93473D01*
X32341Y93426D01*
X32250Y93383D01*
X32158Y93343D01*
X32064Y93307D01*
X31969Y93274D01*
X31872Y93245D01*
X31775Y93220D01*
X31676Y93199D01*
X31577Y93181D01*
X31477Y93168D01*
X31377Y93158D01*
X31277Y93152D01*
X31176Y93150D01*
X31176Y93149D02*
X28579Y93149D01*
X38711Y89904D02*
X38713Y90017D01*
X38719Y90130D01*
X38729Y90243D01*
X38743Y90356D01*
X38760Y90468D01*
X38782Y90579D01*
X38807Y90689D01*
X38837Y90799D01*
X38870Y90907D01*
X38907Y91014D01*
X38947Y91120D01*
X38992Y91224D01*
X39040Y91327D01*
X39091Y91428D01*
X39146Y91527D01*
X39204Y91624D01*
X39266Y91719D01*
X39331Y91812D01*
X39399Y91902D01*
X39470Y91990D01*
X39545Y92076D01*
X39622Y92159D01*
X39702Y92239D01*
X39785Y92316D01*
X39871Y92391D01*
X39959Y92462D01*
X40049Y92530D01*
X40142Y92595D01*
X40237Y92657D01*
X40334Y92715D01*
X40433Y92770D01*
X40534Y92821D01*
X40637Y92869D01*
X40741Y92914D01*
X40847Y92954D01*
X40954Y92991D01*
X41062Y93024D01*
X41172Y93054D01*
X41282Y93079D01*
X41393Y93101D01*
X41505Y93118D01*
X41618Y93132D01*
X41731Y93142D01*
X41844Y93148D01*
X41957Y93150D01*
X42070Y93148D01*
X42183Y93142D01*
X42296Y93132D01*
X42409Y93118D01*
X42521Y93101D01*
X42632Y93079D01*
X42742Y93054D01*
X42852Y93024D01*
X42960Y92991D01*
X43067Y92954D01*
X43173Y92914D01*
X43277Y92869D01*
X43380Y92821D01*
X43481Y92770D01*
X43580Y92715D01*
X43677Y92657D01*
X43772Y92595D01*
X43865Y92530D01*
X43955Y92462D01*
X44043Y92391D01*
X44129Y92316D01*
X44212Y92239D01*
X44292Y92159D01*
X44369Y92076D01*
X44444Y91990D01*
X44515Y91902D01*
X44583Y91812D01*
X44648Y91719D01*
X44710Y91624D01*
X44768Y91527D01*
X44823Y91428D01*
X44874Y91327D01*
X44922Y91224D01*
X44967Y91120D01*
X45007Y91014D01*
X45044Y90907D01*
X45077Y90799D01*
X45107Y90689D01*
X45132Y90579D01*
X45154Y90468D01*
X45171Y90356D01*
X45185Y90243D01*
X45195Y90130D01*
X45201Y90017D01*
X45203Y89904D01*
X45201Y89791D01*
X45195Y89678D01*
X45185Y89565D01*
X45171Y89452D01*
X45154Y89340D01*
X45132Y89229D01*
X45107Y89119D01*
X45077Y89009D01*
X45044Y88901D01*
X45007Y88794D01*
X44967Y88688D01*
X44922Y88584D01*
X44874Y88481D01*
X44823Y88380D01*
X44768Y88281D01*
X44710Y88184D01*
X44648Y88089D01*
X44583Y87996D01*
X44515Y87906D01*
X44444Y87818D01*
X44369Y87732D01*
X44292Y87649D01*
X44212Y87569D01*
X44129Y87492D01*
X44043Y87417D01*
X43955Y87346D01*
X43865Y87278D01*
X43772Y87213D01*
X43677Y87151D01*
X43580Y87093D01*
X43481Y87038D01*
X43380Y86987D01*
X43277Y86939D01*
X43173Y86894D01*
X43067Y86854D01*
X42960Y86817D01*
X42852Y86784D01*
X42742Y86754D01*
X42632Y86729D01*
X42521Y86707D01*
X42409Y86690D01*
X42296Y86676D01*
X42183Y86666D01*
X42070Y86660D01*
X41957Y86658D01*
X41844Y86660D01*
X41731Y86666D01*
X41618Y86676D01*
X41505Y86690D01*
X41393Y86707D01*
X41282Y86729D01*
X41172Y86754D01*
X41062Y86784D01*
X40954Y86817D01*
X40847Y86854D01*
X40741Y86894D01*
X40637Y86939D01*
X40534Y86987D01*
X40433Y87038D01*
X40334Y87093D01*
X40237Y87151D01*
X40142Y87213D01*
X40049Y87278D01*
X39959Y87346D01*
X39871Y87417D01*
X39785Y87492D01*
X39702Y87569D01*
X39622Y87649D01*
X39545Y87732D01*
X39470Y87818D01*
X39399Y87906D01*
X39331Y87996D01*
X39266Y88089D01*
X39204Y88184D01*
X39146Y88281D01*
X39091Y88380D01*
X39040Y88481D01*
X38992Y88584D01*
X38947Y88688D01*
X38907Y88794D01*
X38870Y88901D01*
X38837Y89009D01*
X38807Y89119D01*
X38782Y89229D01*
X38760Y89340D01*
X38743Y89452D01*
X38729Y89565D01*
X38719Y89678D01*
X38713Y89791D01*
X38711Y89904D01*
X39361Y95746D02*
X39363Y95847D01*
X39369Y95947D01*
X39379Y96047D01*
X39392Y96147D01*
X39410Y96246D01*
X39431Y96345D01*
X39456Y96442D01*
X39485Y96539D01*
X39518Y96634D01*
X39554Y96728D01*
X39594Y96820D01*
X39637Y96911D01*
X39684Y97000D01*
X39734Y97087D01*
X39788Y97173D01*
X39845Y97256D01*
X39905Y97336D01*
X39968Y97415D01*
X40035Y97491D01*
X40104Y97564D01*
X40176Y97634D01*
X40250Y97702D01*
X40327Y97767D01*
X40407Y97828D01*
X40489Y97887D01*
X40573Y97942D01*
X40659Y97994D01*
X40747Y98043D01*
X40837Y98088D01*
X40929Y98130D01*
X41022Y98168D01*
X41117Y98202D01*
X41212Y98233D01*
X41309Y98260D01*
X41407Y98283D01*
X41506Y98303D01*
X41606Y98318D01*
X41706Y98330D01*
X41806Y98338D01*
X41907Y98342D01*
X42007Y98342D01*
X42108Y98338D01*
X42208Y98330D01*
X42308Y98318D01*
X42408Y98303D01*
X42507Y98283D01*
X42605Y98260D01*
X42702Y98233D01*
X42797Y98202D01*
X42892Y98168D01*
X42985Y98130D01*
X43077Y98088D01*
X43167Y98043D01*
X43255Y97994D01*
X43341Y97942D01*
X43425Y97887D01*
X43507Y97828D01*
X43587Y97767D01*
X43664Y97702D01*
X43738Y97634D01*
X43810Y97564D01*
X43879Y97491D01*
X43946Y97415D01*
X44009Y97336D01*
X44069Y97256D01*
X44126Y97173D01*
X44180Y97087D01*
X44230Y97000D01*
X44277Y96911D01*
X44320Y96820D01*
X44360Y96728D01*
X44396Y96634D01*
X44429Y96539D01*
X44458Y96442D01*
X44483Y96345D01*
X44504Y96246D01*
X44522Y96147D01*
X44535Y96047D01*
X44545Y95947D01*
X44551Y95847D01*
X44553Y95746D01*
X44551Y95645D01*
X44545Y95545D01*
X44535Y95445D01*
X44522Y95345D01*
X44504Y95246D01*
X44483Y95147D01*
X44458Y95050D01*
X44429Y94953D01*
X44396Y94858D01*
X44360Y94764D01*
X44320Y94672D01*
X44277Y94581D01*
X44230Y94492D01*
X44180Y94405D01*
X44126Y94319D01*
X44069Y94236D01*
X44009Y94156D01*
X43946Y94077D01*
X43879Y94001D01*
X43810Y93928D01*
X43738Y93858D01*
X43664Y93790D01*
X43587Y93725D01*
X43507Y93664D01*
X43425Y93605D01*
X43341Y93550D01*
X43255Y93498D01*
X43167Y93449D01*
X43077Y93404D01*
X42985Y93362D01*
X42892Y93324D01*
X42797Y93290D01*
X42702Y93259D01*
X42605Y93232D01*
X42507Y93209D01*
X42408Y93189D01*
X42308Y93174D01*
X42208Y93162D01*
X42108Y93154D01*
X42007Y93150D01*
X41907Y93150D01*
X41806Y93154D01*
X41706Y93162D01*
X41606Y93174D01*
X41506Y93189D01*
X41407Y93209D01*
X41309Y93232D01*
X41212Y93259D01*
X41117Y93290D01*
X41022Y93324D01*
X40929Y93362D01*
X40837Y93404D01*
X40747Y93449D01*
X40659Y93498D01*
X40573Y93550D01*
X40489Y93605D01*
X40407Y93664D01*
X40327Y93725D01*
X40250Y93790D01*
X40176Y93858D01*
X40104Y93928D01*
X40035Y94001D01*
X39968Y94077D01*
X39905Y94156D01*
X39845Y94236D01*
X39788Y94319D01*
X39734Y94405D01*
X39684Y94492D01*
X39637Y94581D01*
X39594Y94672D01*
X39554Y94764D01*
X39518Y94858D01*
X39485Y94953D01*
X39456Y95050D01*
X39431Y95147D01*
X39410Y95246D01*
X39392Y95345D01*
X39379Y95445D01*
X39369Y95545D01*
X39363Y95645D01*
X39361Y95746D01*
X50141Y89254D02*
X52737Y98342D01*
X50141Y89254D02*
X56632Y89254D01*
X54685Y91851D02*
X54685Y86658D01*
X61571Y92500D02*
X61574Y92730D01*
X61582Y92960D01*
X61596Y93189D01*
X61615Y93418D01*
X61640Y93647D01*
X61670Y93874D01*
X61705Y94102D01*
X61746Y94328D01*
X61792Y94553D01*
X61844Y94777D01*
X61901Y94999D01*
X61963Y95221D01*
X62031Y95440D01*
X62104Y95658D01*
X62182Y95875D01*
X62265Y96089D01*
X62353Y96301D01*
X62446Y96511D01*
X62545Y96719D01*
X62544Y96719D02*
X62577Y96809D01*
X62613Y96898D01*
X62653Y96986D01*
X62697Y97071D01*
X62744Y97155D01*
X62794Y97237D01*
X62848Y97317D01*
X62904Y97394D01*
X62964Y97470D01*
X63027Y97543D01*
X63092Y97613D01*
X63161Y97681D01*
X63232Y97745D01*
X63305Y97807D01*
X63381Y97866D01*
X63459Y97922D01*
X63540Y97975D01*
X63622Y98024D01*
X63706Y98070D01*
X63793Y98113D01*
X63880Y98152D01*
X63970Y98188D01*
X64060Y98220D01*
X64152Y98248D01*
X64245Y98273D01*
X64339Y98294D01*
X64433Y98311D01*
X64528Y98325D01*
X64624Y98334D01*
X64720Y98340D01*
X64816Y98342D01*
X64912Y98340D01*
X65008Y98334D01*
X65104Y98325D01*
X65199Y98311D01*
X65293Y98294D01*
X65387Y98273D01*
X65480Y98248D01*
X65572Y98220D01*
X65662Y98188D01*
X65752Y98152D01*
X65839Y98113D01*
X65926Y98070D01*
X66010Y98024D01*
X66092Y97975D01*
X66173Y97922D01*
X66251Y97866D01*
X66327Y97807D01*
X66400Y97745D01*
X66471Y97681D01*
X66540Y97613D01*
X66605Y97543D01*
X66668Y97470D01*
X66728Y97394D01*
X66784Y97317D01*
X66838Y97237D01*
X66888Y97155D01*
X66935Y97071D01*
X66979Y96986D01*
X67019Y96898D01*
X67055Y96809D01*
X67088Y96719D01*
X67089Y96719D02*
X67188Y96512D01*
X67281Y96302D01*
X67369Y96089D01*
X67452Y95875D01*
X67530Y95659D01*
X67603Y95441D01*
X67671Y95221D01*
X67733Y95000D01*
X67790Y94777D01*
X67842Y94553D01*
X67888Y94328D01*
X67929Y94102D01*
X67964Y93875D01*
X67994Y93647D01*
X68019Y93418D01*
X68038Y93189D01*
X68052Y92960D01*
X68060Y92730D01*
X68063Y92500D01*
X61571Y92500D02*
X61574Y92270D01*
X61582Y92040D01*
X61596Y91811D01*
X61615Y91582D01*
X61640Y91353D01*
X61670Y91125D01*
X61705Y90898D01*
X61746Y90672D01*
X61792Y90447D01*
X61844Y90223D01*
X61901Y90000D01*
X61963Y89779D01*
X62031Y89559D01*
X62104Y89341D01*
X62182Y89125D01*
X62265Y88911D01*
X62353Y88699D01*
X62446Y88488D01*
X62545Y88281D01*
X62544Y88281D02*
X62577Y88191D01*
X62613Y88102D01*
X62654Y88014D01*
X62697Y87929D01*
X62744Y87845D01*
X62794Y87763D01*
X62848Y87683D01*
X62904Y87606D01*
X62964Y87530D01*
X63027Y87457D01*
X63092Y87387D01*
X63161Y87319D01*
X63232Y87255D01*
X63305Y87193D01*
X63381Y87134D01*
X63459Y87078D01*
X63540Y87025D01*
X63622Y86976D01*
X63706Y86930D01*
X63793Y86887D01*
X63880Y86848D01*
X63970Y86812D01*
X64060Y86780D01*
X64152Y86752D01*
X64245Y86727D01*
X64339Y86706D01*
X64433Y86689D01*
X64528Y86675D01*
X64624Y86666D01*
X64720Y86660D01*
X64816Y86658D01*
X67088Y88281D02*
X67187Y88488D01*
X67280Y88699D01*
X67368Y88911D01*
X67451Y89125D01*
X67529Y89341D01*
X67602Y89559D01*
X67670Y89779D01*
X67732Y90000D01*
X67789Y90223D01*
X67841Y90447D01*
X67887Y90672D01*
X67928Y90898D01*
X67963Y91125D01*
X67993Y91353D01*
X68018Y91582D01*
X68037Y91811D01*
X68051Y92040D01*
X68059Y92270D01*
X68062Y92500D01*
X67088Y88281D02*
X67055Y88191D01*
X67019Y88102D01*
X66979Y88014D01*
X66935Y87929D01*
X66888Y87845D01*
X66838Y87763D01*
X66784Y87683D01*
X66728Y87606D01*
X66668Y87530D01*
X66605Y87457D01*
X66540Y87387D01*
X66471Y87319D01*
X66400Y87255D01*
X66327Y87193D01*
X66251Y87134D01*
X66173Y87078D01*
X66092Y87025D01*
X66010Y86976D01*
X65926Y86930D01*
X65839Y86887D01*
X65752Y86848D01*
X65662Y86812D01*
X65572Y86780D01*
X65480Y86752D01*
X65387Y86727D01*
X65293Y86706D01*
X65199Y86689D01*
X65104Y86675D01*
X65008Y86666D01*
X64912Y86660D01*
X64816Y86658D01*
X62220Y89254D02*
X67413Y95746D01*
X73001Y92500D02*
X73004Y92730D01*
X73012Y92960D01*
X73026Y93189D01*
X73045Y93418D01*
X73070Y93647D01*
X73100Y93874D01*
X73135Y94102D01*
X73176Y94328D01*
X73222Y94553D01*
X73274Y94777D01*
X73331Y94999D01*
X73393Y95221D01*
X73461Y95440D01*
X73534Y95658D01*
X73612Y95875D01*
X73695Y96089D01*
X73783Y96301D01*
X73876Y96511D01*
X73975Y96719D01*
X73974Y96719D02*
X74007Y96809D01*
X74043Y96898D01*
X74083Y96986D01*
X74127Y97071D01*
X74174Y97155D01*
X74224Y97237D01*
X74278Y97317D01*
X74334Y97394D01*
X74394Y97470D01*
X74457Y97543D01*
X74522Y97613D01*
X74591Y97681D01*
X74662Y97745D01*
X74735Y97807D01*
X74811Y97866D01*
X74889Y97922D01*
X74970Y97975D01*
X75052Y98024D01*
X75136Y98070D01*
X75223Y98113D01*
X75310Y98152D01*
X75400Y98188D01*
X75490Y98220D01*
X75582Y98248D01*
X75675Y98273D01*
X75769Y98294D01*
X75863Y98311D01*
X75958Y98325D01*
X76054Y98334D01*
X76150Y98340D01*
X76246Y98342D01*
X76342Y98340D01*
X76438Y98334D01*
X76534Y98325D01*
X76629Y98311D01*
X76723Y98294D01*
X76817Y98273D01*
X76910Y98248D01*
X77002Y98220D01*
X77092Y98188D01*
X77182Y98152D01*
X77269Y98113D01*
X77356Y98070D01*
X77440Y98024D01*
X77522Y97975D01*
X77603Y97922D01*
X77681Y97866D01*
X77757Y97807D01*
X77830Y97745D01*
X77901Y97681D01*
X77970Y97613D01*
X78035Y97543D01*
X78098Y97470D01*
X78158Y97394D01*
X78214Y97317D01*
X78268Y97237D01*
X78318Y97155D01*
X78365Y97071D01*
X78409Y96986D01*
X78449Y96898D01*
X78485Y96809D01*
X78518Y96719D01*
X78519Y96719D02*
X78618Y96512D01*
X78711Y96302D01*
X78799Y96089D01*
X78882Y95875D01*
X78960Y95659D01*
X79033Y95441D01*
X79101Y95221D01*
X79163Y95000D01*
X79220Y94777D01*
X79272Y94553D01*
X79318Y94328D01*
X79359Y94102D01*
X79394Y93875D01*
X79424Y93647D01*
X79449Y93418D01*
X79468Y93189D01*
X79482Y92960D01*
X79490Y92730D01*
X79493Y92500D01*
X73001Y92500D02*
X73004Y92270D01*
X73012Y92040D01*
X73026Y91811D01*
X73045Y91582D01*
X73070Y91353D01*
X73100Y91125D01*
X73135Y90898D01*
X73176Y90672D01*
X73222Y90447D01*
X73274Y90223D01*
X73331Y90000D01*
X73393Y89779D01*
X73461Y89559D01*
X73534Y89341D01*
X73612Y89125D01*
X73695Y88911D01*
X73783Y88699D01*
X73876Y88488D01*
X73975Y88281D01*
X73974Y88281D02*
X74007Y88191D01*
X74043Y88102D01*
X74084Y88014D01*
X74127Y87929D01*
X74174Y87845D01*
X74224Y87763D01*
X74278Y87683D01*
X74334Y87606D01*
X74394Y87530D01*
X74457Y87457D01*
X74522Y87387D01*
X74591Y87319D01*
X74662Y87255D01*
X74735Y87193D01*
X74811Y87134D01*
X74889Y87078D01*
X74970Y87025D01*
X75052Y86976D01*
X75136Y86930D01*
X75223Y86887D01*
X75310Y86848D01*
X75400Y86812D01*
X75490Y86780D01*
X75582Y86752D01*
X75675Y86727D01*
X75769Y86706D01*
X75863Y86689D01*
X75958Y86675D01*
X76054Y86666D01*
X76150Y86660D01*
X76246Y86658D01*
X78518Y88281D02*
X78617Y88488D01*
X78710Y88699D01*
X78798Y88911D01*
X78881Y89125D01*
X78959Y89341D01*
X79032Y89559D01*
X79100Y89779D01*
X79162Y90000D01*
X79219Y90223D01*
X79271Y90447D01*
X79317Y90672D01*
X79358Y90898D01*
X79393Y91125D01*
X79423Y91353D01*
X79448Y91582D01*
X79467Y91811D01*
X79481Y92040D01*
X79489Y92270D01*
X79492Y92500D01*
X78518Y88281D02*
X78485Y88191D01*
X78449Y88102D01*
X78409Y88014D01*
X78365Y87929D01*
X78318Y87845D01*
X78268Y87763D01*
X78214Y87683D01*
X78158Y87606D01*
X78098Y87530D01*
X78035Y87457D01*
X77970Y87387D01*
X77901Y87319D01*
X77830Y87255D01*
X77757Y87193D01*
X77681Y87134D01*
X77603Y87078D01*
X77522Y87025D01*
X77440Y86976D01*
X77356Y86930D01*
X77269Y86887D01*
X77182Y86848D01*
X77092Y86812D01*
X77002Y86780D01*
X76910Y86752D01*
X76817Y86727D01*
X76723Y86706D01*
X76629Y86689D01*
X76534Y86675D01*
X76438Y86666D01*
X76342Y86660D01*
X76246Y86658D01*
X73650Y89254D02*
X78843Y95746D01*
X89499Y96101D02*
X89499Y92206D01*
X89497Y92107D01*
X89491Y92007D01*
X89482Y91908D01*
X89469Y91810D01*
X89452Y91712D01*
X89431Y91614D01*
X89406Y91518D01*
X89378Y91423D01*
X89346Y91329D01*
X89311Y91236D01*
X89272Y91144D01*
X89229Y91054D01*
X89184Y90966D01*
X89134Y90879D01*
X89082Y90795D01*
X89026Y90712D01*
X88968Y90632D01*
X88906Y90554D01*
X88841Y90479D01*
X88773Y90406D01*
X88703Y90336D01*
X88630Y90268D01*
X88555Y90203D01*
X88477Y90141D01*
X88397Y90083D01*
X88314Y90027D01*
X88230Y89975D01*
X88143Y89925D01*
X88055Y89880D01*
X87965Y89837D01*
X87873Y89798D01*
X87780Y89763D01*
X87686Y89731D01*
X87591Y89703D01*
X87495Y89678D01*
X87397Y89657D01*
X87299Y89640D01*
X87201Y89627D01*
X87102Y89618D01*
X87002Y89612D01*
X86903Y89610D01*
X86254Y89610D01*
X86254Y89609D02*
X86141Y89611D01*
X86028Y89617D01*
X85915Y89627D01*
X85802Y89641D01*
X85690Y89658D01*
X85579Y89680D01*
X85469Y89705D01*
X85359Y89735D01*
X85251Y89768D01*
X85144Y89805D01*
X85038Y89845D01*
X84934Y89890D01*
X84831Y89938D01*
X84730Y89989D01*
X84631Y90044D01*
X84534Y90102D01*
X84439Y90164D01*
X84346Y90229D01*
X84256Y90297D01*
X84168Y90368D01*
X84082Y90443D01*
X83999Y90520D01*
X83919Y90600D01*
X83842Y90683D01*
X83767Y90769D01*
X83696Y90857D01*
X83628Y90947D01*
X83563Y91040D01*
X83501Y91135D01*
X83443Y91232D01*
X83388Y91331D01*
X83337Y91432D01*
X83289Y91535D01*
X83244Y91639D01*
X83204Y91745D01*
X83167Y91852D01*
X83134Y91960D01*
X83104Y92070D01*
X83079Y92180D01*
X83057Y92291D01*
X83040Y92403D01*
X83026Y92516D01*
X83016Y92629D01*
X83010Y92742D01*
X83008Y92855D01*
X83010Y92968D01*
X83016Y93081D01*
X83026Y93194D01*
X83040Y93307D01*
X83057Y93419D01*
X83079Y93530D01*
X83104Y93640D01*
X83134Y93750D01*
X83167Y93858D01*
X83204Y93965D01*
X83244Y94071D01*
X83289Y94175D01*
X83337Y94278D01*
X83388Y94379D01*
X83443Y94478D01*
X83501Y94575D01*
X83563Y94670D01*
X83628Y94763D01*
X83696Y94853D01*
X83767Y94941D01*
X83842Y95027D01*
X83919Y95110D01*
X83999Y95190D01*
X84082Y95267D01*
X84168Y95342D01*
X84256Y95413D01*
X84346Y95481D01*
X84439Y95546D01*
X84534Y95608D01*
X84631Y95666D01*
X84730Y95721D01*
X84831Y95772D01*
X84934Y95820D01*
X85038Y95865D01*
X85144Y95905D01*
X85251Y95942D01*
X85359Y95975D01*
X85469Y96005D01*
X85579Y96030D01*
X85690Y96052D01*
X85802Y96069D01*
X85915Y96083D01*
X86028Y96093D01*
X86141Y96099D01*
X86254Y96101D01*
X89499Y96101D01*
X89642Y96099D01*
X89785Y96093D01*
X89928Y96083D01*
X90070Y96069D01*
X90212Y96052D01*
X90354Y96030D01*
X90495Y96005D01*
X90635Y95975D01*
X90774Y95942D01*
X90912Y95905D01*
X91049Y95864D01*
X91185Y95820D01*
X91320Y95771D01*
X91453Y95719D01*
X91585Y95664D01*
X91715Y95604D01*
X91844Y95541D01*
X91971Y95475D01*
X92096Y95405D01*
X92218Y95332D01*
X92339Y95255D01*
X92458Y95175D01*
X92574Y95092D01*
X92689Y95006D01*
X92800Y94917D01*
X92910Y94824D01*
X93016Y94729D01*
X93120Y94630D01*
X93221Y94529D01*
X93320Y94425D01*
X93415Y94319D01*
X93508Y94209D01*
X93597Y94098D01*
X93683Y93983D01*
X93766Y93867D01*
X93846Y93748D01*
X93923Y93627D01*
X93996Y93505D01*
X94066Y93380D01*
X94132Y93253D01*
X94195Y93124D01*
X94255Y92994D01*
X94310Y92862D01*
X94362Y92729D01*
X94411Y92594D01*
X94455Y92458D01*
X94496Y92321D01*
X94533Y92183D01*
X94566Y92044D01*
X94596Y91904D01*
X94621Y91763D01*
X94643Y91621D01*
X94660Y91479D01*
X94674Y91337D01*
X94684Y91194D01*
X94690Y91051D01*
X94692Y90908D01*
X88201Y101039D02*
X88201Y104934D01*
X88203Y105033D01*
X88209Y105133D01*
X88218Y105232D01*
X88231Y105330D01*
X88248Y105428D01*
X88269Y105526D01*
X88294Y105622D01*
X88322Y105717D01*
X88354Y105811D01*
X88389Y105904D01*
X88428Y105996D01*
X88471Y106086D01*
X88516Y106174D01*
X88566Y106261D01*
X88618Y106345D01*
X88674Y106428D01*
X88732Y106508D01*
X88794Y106586D01*
X88859Y106661D01*
X88927Y106734D01*
X88997Y106804D01*
X89070Y106872D01*
X89145Y106937D01*
X89223Y106999D01*
X89303Y107057D01*
X89386Y107113D01*
X89470Y107165D01*
X89557Y107215D01*
X89645Y107260D01*
X89735Y107303D01*
X89827Y107342D01*
X89920Y107377D01*
X90014Y107409D01*
X90109Y107437D01*
X90205Y107462D01*
X90303Y107483D01*
X90401Y107500D01*
X90499Y107513D01*
X90598Y107522D01*
X90698Y107528D01*
X90797Y107530D01*
X90797Y107531D02*
X91446Y107531D01*
X91559Y107529D01*
X91672Y107523D01*
X91785Y107513D01*
X91898Y107499D01*
X92010Y107482D01*
X92121Y107460D01*
X92231Y107435D01*
X92341Y107405D01*
X92449Y107372D01*
X92556Y107335D01*
X92662Y107295D01*
X92766Y107250D01*
X92869Y107202D01*
X92970Y107151D01*
X93069Y107096D01*
X93166Y107038D01*
X93261Y106976D01*
X93354Y106911D01*
X93444Y106843D01*
X93532Y106772D01*
X93618Y106697D01*
X93701Y106620D01*
X93781Y106540D01*
X93858Y106457D01*
X93933Y106371D01*
X94004Y106283D01*
X94072Y106193D01*
X94137Y106100D01*
X94199Y106005D01*
X94257Y105908D01*
X94312Y105809D01*
X94363Y105708D01*
X94411Y105605D01*
X94456Y105501D01*
X94496Y105395D01*
X94533Y105288D01*
X94566Y105180D01*
X94596Y105070D01*
X94621Y104960D01*
X94643Y104849D01*
X94660Y104737D01*
X94674Y104624D01*
X94684Y104511D01*
X94690Y104398D01*
X94692Y104285D01*
X94690Y104172D01*
X94684Y104059D01*
X94674Y103946D01*
X94660Y103833D01*
X94643Y103721D01*
X94621Y103610D01*
X94596Y103500D01*
X94566Y103390D01*
X94533Y103282D01*
X94496Y103175D01*
X94456Y103069D01*
X94411Y102965D01*
X94363Y102862D01*
X94312Y102761D01*
X94257Y102662D01*
X94199Y102565D01*
X94137Y102470D01*
X94072Y102377D01*
X94004Y102287D01*
X93933Y102199D01*
X93858Y102113D01*
X93781Y102030D01*
X93701Y101950D01*
X93618Y101873D01*
X93532Y101798D01*
X93444Y101727D01*
X93354Y101659D01*
X93261Y101594D01*
X93166Y101532D01*
X93069Y101474D01*
X92970Y101419D01*
X92869Y101368D01*
X92766Y101320D01*
X92662Y101275D01*
X92556Y101235D01*
X92449Y101198D01*
X92341Y101165D01*
X92231Y101135D01*
X92121Y101110D01*
X92010Y101088D01*
X91898Y101071D01*
X91785Y101057D01*
X91672Y101047D01*
X91559Y101041D01*
X91446Y101039D01*
X88201Y101039D01*
X88058Y101041D01*
X87915Y101047D01*
X87772Y101057D01*
X87630Y101071D01*
X87488Y101088D01*
X87346Y101110D01*
X87205Y101135D01*
X87065Y101165D01*
X86926Y101198D01*
X86788Y101235D01*
X86651Y101276D01*
X86515Y101320D01*
X86380Y101369D01*
X86247Y101421D01*
X86115Y101476D01*
X85985Y101536D01*
X85856Y101599D01*
X85729Y101665D01*
X85605Y101735D01*
X85482Y101808D01*
X85361Y101885D01*
X85242Y101964D01*
X85126Y102048D01*
X85011Y102134D01*
X84900Y102223D01*
X84791Y102316D01*
X84684Y102411D01*
X84580Y102510D01*
X84479Y102611D01*
X84380Y102715D01*
X84285Y102821D01*
X84192Y102931D01*
X84103Y103042D01*
X84017Y103156D01*
X83934Y103273D01*
X83854Y103392D01*
X83777Y103513D01*
X83704Y103635D01*
X83634Y103760D01*
X83568Y103887D01*
X83505Y104016D01*
X83445Y104146D01*
X83390Y104278D01*
X83338Y104411D01*
X83289Y104546D01*
X83245Y104682D01*
X83204Y104819D01*
X83167Y104957D01*
X83134Y105096D01*
X83104Y105236D01*
X83079Y105377D01*
X83057Y105519D01*
X83040Y105661D01*
X83026Y105803D01*
X83016Y105946D01*
X83010Y106089D01*
X83008Y106232D01*
X84631Y113443D02*
X84838Y113344D01*
X85049Y113251D01*
X85261Y113163D01*
X85475Y113080D01*
X85691Y113002D01*
X85909Y112929D01*
X86129Y112861D01*
X86350Y112799D01*
X86573Y112742D01*
X86797Y112690D01*
X87022Y112644D01*
X87248Y112603D01*
X87475Y112568D01*
X87703Y112538D01*
X87932Y112513D01*
X88161Y112494D01*
X88390Y112480D01*
X88620Y112472D01*
X88850Y112469D01*
X84631Y113443D02*
X84541Y113476D01*
X84452Y113512D01*
X84364Y113552D01*
X84279Y113596D01*
X84195Y113643D01*
X84113Y113693D01*
X84033Y113747D01*
X83956Y113803D01*
X83880Y113863D01*
X83807Y113926D01*
X83737Y113991D01*
X83669Y114060D01*
X83605Y114131D01*
X83543Y114204D01*
X83484Y114280D01*
X83428Y114358D01*
X83375Y114439D01*
X83326Y114521D01*
X83280Y114605D01*
X83237Y114692D01*
X83198Y114779D01*
X83162Y114869D01*
X83130Y114959D01*
X83102Y115051D01*
X83077Y115144D01*
X83056Y115238D01*
X83039Y115332D01*
X83025Y115427D01*
X83016Y115523D01*
X83010Y115619D01*
X83008Y115715D01*
X83010Y115811D01*
X83016Y115907D01*
X83025Y116003D01*
X83039Y116098D01*
X83056Y116192D01*
X83077Y116286D01*
X83102Y116379D01*
X83130Y116471D01*
X83162Y116561D01*
X83198Y116651D01*
X83237Y116739D01*
X83280Y116825D01*
X83326Y116909D01*
X83375Y116991D01*
X83428Y117072D01*
X83484Y117150D01*
X83543Y117226D01*
X83605Y117299D01*
X83669Y117370D01*
X83737Y117439D01*
X83807Y117504D01*
X83880Y117567D01*
X83956Y117627D01*
X84033Y117683D01*
X84113Y117737D01*
X84195Y117787D01*
X84279Y117834D01*
X84364Y117878D01*
X84452Y117918D01*
X84541Y117954D01*
X84631Y117987D01*
X84838Y118086D01*
X85049Y118179D01*
X85261Y118267D01*
X85475Y118350D01*
X85691Y118428D01*
X85909Y118501D01*
X86129Y118569D01*
X86350Y118631D01*
X86573Y118688D01*
X86797Y118740D01*
X87022Y118786D01*
X87248Y118827D01*
X87475Y118862D01*
X87703Y118892D01*
X87932Y118917D01*
X88161Y118936D01*
X88390Y118950D01*
X88620Y118958D01*
X88850Y118961D01*
X88850Y112469D02*
X89080Y112472D01*
X89310Y112480D01*
X89539Y112494D01*
X89768Y112513D01*
X89997Y112538D01*
X90225Y112568D01*
X90452Y112603D01*
X90678Y112644D01*
X90903Y112690D01*
X91127Y112742D01*
X91350Y112799D01*
X91571Y112861D01*
X91791Y112929D01*
X92009Y113002D01*
X92225Y113080D01*
X92439Y113163D01*
X92651Y113251D01*
X92862Y113344D01*
X93069Y113443D01*
X93159Y113476D01*
X93248Y113512D01*
X93336Y113553D01*
X93421Y113596D01*
X93505Y113643D01*
X93587Y113693D01*
X93667Y113747D01*
X93744Y113803D01*
X93820Y113863D01*
X93893Y113926D01*
X93963Y113991D01*
X94031Y114060D01*
X94095Y114131D01*
X94157Y114204D01*
X94216Y114280D01*
X94272Y114358D01*
X94325Y114439D01*
X94374Y114521D01*
X94420Y114605D01*
X94463Y114692D01*
X94502Y114779D01*
X94538Y114869D01*
X94570Y114959D01*
X94598Y115051D01*
X94623Y115144D01*
X94644Y115238D01*
X94661Y115332D01*
X94675Y115427D01*
X94684Y115523D01*
X94690Y115619D01*
X94692Y115715D01*
X93069Y117987D02*
X92862Y118086D01*
X92651Y118179D01*
X92439Y118267D01*
X92225Y118350D01*
X92009Y118428D01*
X91791Y118501D01*
X91571Y118569D01*
X91350Y118631D01*
X91127Y118688D01*
X90903Y118740D01*
X90678Y118786D01*
X90452Y118827D01*
X90225Y118862D01*
X89997Y118892D01*
X89768Y118917D01*
X89539Y118936D01*
X89310Y118950D01*
X89080Y118958D01*
X88850Y118961D01*
X93069Y117987D02*
X93159Y117954D01*
X93248Y117918D01*
X93336Y117878D01*
X93421Y117834D01*
X93505Y117787D01*
X93587Y117737D01*
X93667Y117683D01*
X93744Y117627D01*
X93820Y117567D01*
X93893Y117504D01*
X93963Y117439D01*
X94031Y117370D01*
X94095Y117299D01*
X94157Y117226D01*
X94216Y117150D01*
X94272Y117072D01*
X94325Y116991D01*
X94374Y116909D01*
X94420Y116825D01*
X94463Y116738D01*
X94502Y116651D01*
X94538Y116561D01*
X94570Y116471D01*
X94598Y116379D01*
X94623Y116286D01*
X94644Y116192D01*
X94661Y116098D01*
X94675Y116003D01*
X94684Y115907D01*
X94690Y115811D01*
X94692Y115715D01*
X92096Y113119D02*
X85604Y118311D01*
X88850Y123899D02*
X88620Y123902D01*
X88390Y123910D01*
X88161Y123924D01*
X87932Y123943D01*
X87703Y123968D01*
X87475Y123998D01*
X87248Y124033D01*
X87022Y124074D01*
X86797Y124120D01*
X86573Y124172D01*
X86350Y124229D01*
X86129Y124291D01*
X85909Y124359D01*
X85691Y124432D01*
X85475Y124510D01*
X85261Y124593D01*
X85049Y124681D01*
X84838Y124774D01*
X84631Y124873D01*
X84541Y124906D01*
X84452Y124942D01*
X84364Y124982D01*
X84279Y125026D01*
X84195Y125073D01*
X84113Y125123D01*
X84033Y125177D01*
X83956Y125233D01*
X83880Y125293D01*
X83807Y125356D01*
X83737Y125421D01*
X83669Y125490D01*
X83605Y125561D01*
X83543Y125634D01*
X83484Y125710D01*
X83428Y125788D01*
X83375Y125869D01*
X83326Y125951D01*
X83280Y126035D01*
X83237Y126122D01*
X83198Y126209D01*
X83162Y126299D01*
X83130Y126389D01*
X83102Y126481D01*
X83077Y126574D01*
X83056Y126668D01*
X83039Y126762D01*
X83025Y126857D01*
X83016Y126953D01*
X83010Y127049D01*
X83008Y127145D01*
X83010Y127241D01*
X83016Y127337D01*
X83025Y127433D01*
X83039Y127528D01*
X83056Y127622D01*
X83077Y127716D01*
X83102Y127809D01*
X83130Y127901D01*
X83162Y127991D01*
X83198Y128081D01*
X83237Y128169D01*
X83280Y128255D01*
X83326Y128339D01*
X83375Y128421D01*
X83428Y128502D01*
X83484Y128580D01*
X83543Y128656D01*
X83605Y128729D01*
X83669Y128800D01*
X83737Y128869D01*
X83807Y128934D01*
X83880Y128997D01*
X83956Y129057D01*
X84033Y129113D01*
X84113Y129167D01*
X84195Y129217D01*
X84279Y129264D01*
X84364Y129308D01*
X84452Y129348D01*
X84541Y129384D01*
X84631Y129417D01*
X84838Y129516D01*
X85049Y129609D01*
X85261Y129697D01*
X85475Y129780D01*
X85691Y129858D01*
X85909Y129931D01*
X86129Y129999D01*
X86350Y130061D01*
X86573Y130118D01*
X86797Y130170D01*
X87022Y130216D01*
X87248Y130257D01*
X87475Y130292D01*
X87703Y130322D01*
X87932Y130347D01*
X88161Y130366D01*
X88390Y130380D01*
X88620Y130388D01*
X88850Y130391D01*
X88850Y123899D02*
X89080Y123902D01*
X89310Y123910D01*
X89539Y123924D01*
X89768Y123943D01*
X89997Y123968D01*
X90225Y123998D01*
X90452Y124033D01*
X90678Y124074D01*
X90903Y124120D01*
X91127Y124172D01*
X91350Y124229D01*
X91571Y124291D01*
X91791Y124359D01*
X92009Y124432D01*
X92225Y124510D01*
X92439Y124593D01*
X92651Y124681D01*
X92862Y124774D01*
X93069Y124873D01*
X93159Y124906D01*
X93248Y124942D01*
X93336Y124983D01*
X93421Y125026D01*
X93505Y125073D01*
X93587Y125123D01*
X93667Y125177D01*
X93744Y125233D01*
X93820Y125293D01*
X93893Y125356D01*
X93963Y125421D01*
X94031Y125490D01*
X94095Y125561D01*
X94157Y125634D01*
X94216Y125710D01*
X94272Y125788D01*
X94325Y125869D01*
X94374Y125951D01*
X94420Y126035D01*
X94463Y126122D01*
X94502Y126209D01*
X94538Y126299D01*
X94570Y126389D01*
X94598Y126481D01*
X94623Y126574D01*
X94644Y126668D01*
X94661Y126762D01*
X94675Y126857D01*
X94684Y126953D01*
X94690Y127049D01*
X94692Y127145D01*
X93069Y129417D02*
X92862Y129516D01*
X92651Y129609D01*
X92439Y129697D01*
X92225Y129780D01*
X92009Y129858D01*
X91791Y129931D01*
X91571Y129999D01*
X91350Y130061D01*
X91127Y130118D01*
X90903Y130170D01*
X90678Y130216D01*
X90452Y130257D01*
X90225Y130292D01*
X89997Y130322D01*
X89768Y130347D01*
X89539Y130366D01*
X89310Y130380D01*
X89080Y130388D01*
X88850Y130391D01*
X93069Y129417D02*
X93159Y129384D01*
X93248Y129348D01*
X93336Y129308D01*
X93421Y129264D01*
X93505Y129217D01*
X93587Y129167D01*
X93667Y129113D01*
X93744Y129057D01*
X93820Y128997D01*
X93893Y128934D01*
X93963Y128869D01*
X94031Y128800D01*
X94095Y128729D01*
X94157Y128656D01*
X94216Y128580D01*
X94272Y128502D01*
X94325Y128421D01*
X94374Y128339D01*
X94420Y128255D01*
X94463Y128168D01*
X94502Y128081D01*
X94538Y127991D01*
X94570Y127901D01*
X94598Y127809D01*
X94623Y127716D01*
X94644Y127622D01*
X94661Y127528D01*
X94675Y127433D01*
X94684Y127337D01*
X94690Y127241D01*
X94692Y127145D01*
X92096Y124549D02*
X85604Y129741D01*
X-89831Y187352D02*
X-97621Y187352D01*
X-93726Y191246D02*
X-93726Y183457D01*
X-81209Y194492D02*
X-81102Y194490D01*
X-80996Y194484D01*
X-80890Y194474D01*
X-80784Y194461D01*
X-80678Y194443D01*
X-80574Y194422D01*
X-80470Y194397D01*
X-80367Y194368D01*
X-80266Y194336D01*
X-80166Y194299D01*
X-80067Y194259D01*
X-79969Y194216D01*
X-79873Y194169D01*
X-79779Y194118D01*
X-79687Y194064D01*
X-79597Y194007D01*
X-79509Y193947D01*
X-79424Y193883D01*
X-79341Y193816D01*
X-79260Y193746D01*
X-79182Y193674D01*
X-79106Y193598D01*
X-79034Y193520D01*
X-78964Y193439D01*
X-78897Y193356D01*
X-78833Y193271D01*
X-78773Y193183D01*
X-78716Y193093D01*
X-78662Y193001D01*
X-78611Y192907D01*
X-78564Y192811D01*
X-78521Y192713D01*
X-78481Y192614D01*
X-78444Y192514D01*
X-78412Y192413D01*
X-78383Y192310D01*
X-78358Y192206D01*
X-78337Y192102D01*
X-78319Y191996D01*
X-78306Y191890D01*
X-78296Y191784D01*
X-78290Y191678D01*
X-78288Y191571D01*
X-81209Y194492D02*
X-81330Y194490D01*
X-81451Y194484D01*
X-81571Y194474D01*
X-81692Y194461D01*
X-81811Y194443D01*
X-81931Y194422D01*
X-82049Y194397D01*
X-82166Y194368D01*
X-82283Y194335D01*
X-82398Y194299D01*
X-82512Y194258D01*
X-82625Y194215D01*
X-82737Y194167D01*
X-82846Y194116D01*
X-82954Y194061D01*
X-83061Y194003D01*
X-83165Y193942D01*
X-83267Y193877D01*
X-83367Y193809D01*
X-83465Y193738D01*
X-83561Y193664D01*
X-83654Y193587D01*
X-83744Y193506D01*
X-83832Y193423D01*
X-83917Y193337D01*
X-84000Y193248D01*
X-84079Y193157D01*
X-84156Y193063D01*
X-84229Y192967D01*
X-84299Y192869D01*
X-84366Y192768D01*
X-84430Y192665D01*
X-84491Y192560D01*
X-84548Y192453D01*
X-84601Y192345D01*
X-84651Y192235D01*
X-84697Y192123D01*
X-84740Y192010D01*
X-84779Y191895D01*
X-79263Y189299D02*
X-79184Y189377D01*
X-79108Y189457D01*
X-79035Y189540D01*
X-78965Y189626D01*
X-78898Y189713D01*
X-78834Y189804D01*
X-78774Y189896D01*
X-78716Y189990D01*
X-78662Y190087D01*
X-78612Y190185D01*
X-78565Y190285D01*
X-78521Y190386D01*
X-78481Y190489D01*
X-78445Y190594D01*
X-78413Y190699D01*
X-78384Y190806D01*
X-78359Y190913D01*
X-78337Y191022D01*
X-78320Y191131D01*
X-78306Y191240D01*
X-78297Y191350D01*
X-78291Y191461D01*
X-78289Y191571D01*
X-79262Y189299D02*
X-84780Y182808D01*
X-78288Y182808D01*
X-73350Y185404D02*
X-70753Y194492D01*
X-73350Y185404D02*
X-66858Y185404D01*
X-68806Y182808D02*
X-68806Y188001D01*
X-62569Y194492D02*
X-58674Y182808D01*
X-54779Y194492D01*
D13*
X-38100Y197500D02*
X-12700Y197500D01*
X12700Y197500D02*
X38100Y197500D01*
X63500Y197500D02*
X88900Y197500D01*
D10*
X-34346Y189299D02*
X-36294Y189299D01*
X-34346Y189299D02*
X-34346Y182808D01*
X-38241Y182808D01*
X-38340Y182810D01*
X-38440Y182816D01*
X-38539Y182825D01*
X-38637Y182838D01*
X-38735Y182855D01*
X-38833Y182876D01*
X-38929Y182901D01*
X-39024Y182929D01*
X-39118Y182961D01*
X-39211Y182996D01*
X-39303Y183035D01*
X-39393Y183078D01*
X-39481Y183123D01*
X-39568Y183173D01*
X-39652Y183225D01*
X-39735Y183281D01*
X-39815Y183339D01*
X-39893Y183401D01*
X-39968Y183466D01*
X-40041Y183534D01*
X-40111Y183604D01*
X-40179Y183677D01*
X-40244Y183752D01*
X-40306Y183830D01*
X-40364Y183910D01*
X-40420Y183993D01*
X-40472Y184077D01*
X-40522Y184164D01*
X-40567Y184252D01*
X-40610Y184342D01*
X-40649Y184434D01*
X-40684Y184527D01*
X-40716Y184621D01*
X-40744Y184716D01*
X-40769Y184812D01*
X-40790Y184910D01*
X-40807Y185008D01*
X-40820Y185106D01*
X-40829Y185205D01*
X-40835Y185305D01*
X-40837Y185404D01*
X-40838Y185404D02*
X-40838Y191896D01*
X-40837Y191896D02*
X-40835Y191995D01*
X-40829Y192095D01*
X-40820Y192194D01*
X-40807Y192292D01*
X-40790Y192390D01*
X-40769Y192488D01*
X-40744Y192584D01*
X-40716Y192679D01*
X-40684Y192773D01*
X-40649Y192866D01*
X-40610Y192958D01*
X-40567Y193048D01*
X-40522Y193136D01*
X-40472Y193223D01*
X-40420Y193307D01*
X-40364Y193390D01*
X-40306Y193470D01*
X-40244Y193548D01*
X-40179Y193623D01*
X-40111Y193696D01*
X-40041Y193766D01*
X-39968Y193834D01*
X-39893Y193899D01*
X-39815Y193961D01*
X-39735Y194019D01*
X-39652Y194075D01*
X-39568Y194127D01*
X-39481Y194177D01*
X-39393Y194222D01*
X-39303Y194265D01*
X-39211Y194304D01*
X-39118Y194339D01*
X-39024Y194371D01*
X-38929Y194399D01*
X-38833Y194424D01*
X-38735Y194445D01*
X-38637Y194462D01*
X-38539Y194475D01*
X-38440Y194484D01*
X-38340Y194490D01*
X-38241Y194492D01*
X-34346Y194492D01*
X-28646Y194492D02*
X-28646Y182808D01*
X-22154Y182808D02*
X-28646Y194492D01*
X-22154Y194492D02*
X-22154Y182808D01*
X-16454Y182808D02*
X-16454Y194492D01*
X-13208Y194492D01*
X-13095Y194490D01*
X-12982Y194484D01*
X-12869Y194474D01*
X-12756Y194460D01*
X-12644Y194443D01*
X-12533Y194421D01*
X-12423Y194396D01*
X-12313Y194366D01*
X-12205Y194333D01*
X-12098Y194296D01*
X-11992Y194256D01*
X-11888Y194211D01*
X-11785Y194163D01*
X-11684Y194112D01*
X-11585Y194057D01*
X-11488Y193999D01*
X-11393Y193937D01*
X-11300Y193872D01*
X-11210Y193804D01*
X-11122Y193733D01*
X-11036Y193658D01*
X-10953Y193581D01*
X-10873Y193501D01*
X-10796Y193418D01*
X-10721Y193332D01*
X-10650Y193244D01*
X-10582Y193154D01*
X-10517Y193061D01*
X-10455Y192966D01*
X-10397Y192869D01*
X-10342Y192770D01*
X-10291Y192669D01*
X-10243Y192566D01*
X-10198Y192462D01*
X-10158Y192356D01*
X-10121Y192249D01*
X-10088Y192141D01*
X-10058Y192031D01*
X-10033Y191921D01*
X-10011Y191810D01*
X-9994Y191698D01*
X-9980Y191585D01*
X-9970Y191472D01*
X-9964Y191359D01*
X-9962Y191246D01*
X-9962Y186054D01*
X-9964Y185941D01*
X-9970Y185828D01*
X-9980Y185715D01*
X-9994Y185602D01*
X-10011Y185490D01*
X-10033Y185379D01*
X-10058Y185269D01*
X-10088Y185159D01*
X-10121Y185051D01*
X-10158Y184944D01*
X-10198Y184838D01*
X-10243Y184734D01*
X-10291Y184631D01*
X-10342Y184530D01*
X-10397Y184431D01*
X-10455Y184334D01*
X-10517Y184239D01*
X-10582Y184146D01*
X-10650Y184056D01*
X-10721Y183968D01*
X-10796Y183882D01*
X-10873Y183799D01*
X-10953Y183719D01*
X-11036Y183642D01*
X-11122Y183567D01*
X-11210Y183496D01*
X-11300Y183428D01*
X-11393Y183363D01*
X-11488Y183301D01*
X-11585Y183243D01*
X-11684Y183188D01*
X-11785Y183137D01*
X-11888Y183089D01*
X-11992Y183044D01*
X-12098Y183004D01*
X-12205Y182967D01*
X-12313Y182934D01*
X-12423Y182904D01*
X-12533Y182879D01*
X-12644Y182857D01*
X-12756Y182840D01*
X-12869Y182826D01*
X-12982Y182816D01*
X-13095Y182810D01*
X-13208Y182808D01*
X-16454Y182808D01*
X9454Y189299D02*
X12700Y189299D01*
X12700Y189300D02*
X12813Y189298D01*
X12926Y189292D01*
X13039Y189282D01*
X13152Y189268D01*
X13264Y189251D01*
X13375Y189229D01*
X13485Y189204D01*
X13595Y189174D01*
X13703Y189141D01*
X13810Y189104D01*
X13916Y189064D01*
X14020Y189019D01*
X14123Y188971D01*
X14224Y188920D01*
X14323Y188865D01*
X14420Y188807D01*
X14515Y188745D01*
X14608Y188680D01*
X14698Y188612D01*
X14786Y188541D01*
X14872Y188466D01*
X14955Y188389D01*
X15035Y188309D01*
X15112Y188226D01*
X15187Y188140D01*
X15258Y188052D01*
X15326Y187962D01*
X15391Y187869D01*
X15453Y187774D01*
X15511Y187677D01*
X15566Y187578D01*
X15617Y187477D01*
X15665Y187374D01*
X15710Y187270D01*
X15750Y187164D01*
X15787Y187057D01*
X15820Y186949D01*
X15850Y186839D01*
X15875Y186729D01*
X15897Y186618D01*
X15914Y186506D01*
X15928Y186393D01*
X15938Y186280D01*
X15944Y186167D01*
X15946Y186054D01*
X15944Y185941D01*
X15938Y185828D01*
X15928Y185715D01*
X15914Y185602D01*
X15897Y185490D01*
X15875Y185379D01*
X15850Y185269D01*
X15820Y185159D01*
X15787Y185051D01*
X15750Y184944D01*
X15710Y184838D01*
X15665Y184734D01*
X15617Y184631D01*
X15566Y184530D01*
X15511Y184431D01*
X15453Y184334D01*
X15391Y184239D01*
X15326Y184146D01*
X15258Y184056D01*
X15187Y183968D01*
X15112Y183882D01*
X15035Y183799D01*
X14955Y183719D01*
X14872Y183642D01*
X14786Y183567D01*
X14698Y183496D01*
X14608Y183428D01*
X14515Y183363D01*
X14420Y183301D01*
X14323Y183243D01*
X14224Y183188D01*
X14123Y183137D01*
X14020Y183089D01*
X13916Y183044D01*
X13810Y183004D01*
X13703Y182967D01*
X13595Y182934D01*
X13485Y182904D01*
X13375Y182879D01*
X13264Y182857D01*
X13152Y182840D01*
X13039Y182826D01*
X12926Y182816D01*
X12813Y182810D01*
X12700Y182808D01*
X9454Y182808D01*
X9454Y194492D01*
X12700Y194492D01*
X12801Y194490D01*
X12901Y194484D01*
X13001Y194474D01*
X13101Y194461D01*
X13200Y194443D01*
X13299Y194422D01*
X13396Y194397D01*
X13493Y194368D01*
X13588Y194335D01*
X13682Y194299D01*
X13774Y194259D01*
X13865Y194216D01*
X13954Y194169D01*
X14041Y194119D01*
X14127Y194065D01*
X14210Y194008D01*
X14290Y193948D01*
X14369Y193885D01*
X14445Y193818D01*
X14518Y193749D01*
X14588Y193677D01*
X14656Y193603D01*
X14721Y193526D01*
X14782Y193446D01*
X14841Y193364D01*
X14896Y193280D01*
X14948Y193194D01*
X14997Y193106D01*
X15042Y193016D01*
X15084Y192924D01*
X15122Y192831D01*
X15156Y192736D01*
X15187Y192641D01*
X15214Y192544D01*
X15237Y192446D01*
X15257Y192347D01*
X15272Y192247D01*
X15284Y192147D01*
X15292Y192047D01*
X15296Y191946D01*
X15296Y191846D01*
X15292Y191745D01*
X15284Y191645D01*
X15272Y191545D01*
X15257Y191445D01*
X15237Y191346D01*
X15214Y191248D01*
X15187Y191151D01*
X15156Y191056D01*
X15122Y190961D01*
X15084Y190868D01*
X15042Y190776D01*
X14997Y190686D01*
X14948Y190598D01*
X14896Y190512D01*
X14841Y190428D01*
X14782Y190346D01*
X14721Y190266D01*
X14656Y190189D01*
X14588Y190115D01*
X14518Y190043D01*
X14445Y189974D01*
X14369Y189907D01*
X14290Y189844D01*
X14210Y189784D01*
X14127Y189727D01*
X14041Y189673D01*
X13954Y189623D01*
X13865Y189576D01*
X13774Y189533D01*
X13682Y189493D01*
X13588Y189457D01*
X13493Y189424D01*
X13396Y189395D01*
X13299Y189370D01*
X13200Y189349D01*
X13101Y189331D01*
X13001Y189318D01*
X12901Y189308D01*
X12801Y189302D01*
X12700Y189300D01*
X34205Y182808D02*
X38100Y194492D01*
X41995Y182808D01*
X41021Y185729D02*
X35179Y185729D01*
X59605Y182808D02*
X63500Y194492D01*
X67395Y182808D01*
X66421Y185729D02*
X60579Y185729D01*
X85654Y189299D02*
X88900Y189299D01*
X88900Y189300D02*
X89013Y189298D01*
X89126Y189292D01*
X89239Y189282D01*
X89352Y189268D01*
X89464Y189251D01*
X89575Y189229D01*
X89685Y189204D01*
X89795Y189174D01*
X89903Y189141D01*
X90010Y189104D01*
X90116Y189064D01*
X90220Y189019D01*
X90323Y188971D01*
X90424Y188920D01*
X90523Y188865D01*
X90620Y188807D01*
X90715Y188745D01*
X90808Y188680D01*
X90898Y188612D01*
X90986Y188541D01*
X91072Y188466D01*
X91155Y188389D01*
X91235Y188309D01*
X91312Y188226D01*
X91387Y188140D01*
X91458Y188052D01*
X91526Y187962D01*
X91591Y187869D01*
X91653Y187774D01*
X91711Y187677D01*
X91766Y187578D01*
X91817Y187477D01*
X91865Y187374D01*
X91910Y187270D01*
X91950Y187164D01*
X91987Y187057D01*
X92020Y186949D01*
X92050Y186839D01*
X92075Y186729D01*
X92097Y186618D01*
X92114Y186506D01*
X92128Y186393D01*
X92138Y186280D01*
X92144Y186167D01*
X92146Y186054D01*
X92144Y185941D01*
X92138Y185828D01*
X92128Y185715D01*
X92114Y185602D01*
X92097Y185490D01*
X92075Y185379D01*
X92050Y185269D01*
X92020Y185159D01*
X91987Y185051D01*
X91950Y184944D01*
X91910Y184838D01*
X91865Y184734D01*
X91817Y184631D01*
X91766Y184530D01*
X91711Y184431D01*
X91653Y184334D01*
X91591Y184239D01*
X91526Y184146D01*
X91458Y184056D01*
X91387Y183968D01*
X91312Y183882D01*
X91235Y183799D01*
X91155Y183719D01*
X91072Y183642D01*
X90986Y183567D01*
X90898Y183496D01*
X90808Y183428D01*
X90715Y183363D01*
X90620Y183301D01*
X90523Y183243D01*
X90424Y183188D01*
X90323Y183137D01*
X90220Y183089D01*
X90116Y183044D01*
X90010Y183004D01*
X89903Y182967D01*
X89795Y182934D01*
X89685Y182904D01*
X89575Y182879D01*
X89464Y182857D01*
X89352Y182840D01*
X89239Y182826D01*
X89126Y182816D01*
X89013Y182810D01*
X88900Y182808D01*
X85654Y182808D01*
X85654Y194492D01*
X88900Y194492D01*
X89001Y194490D01*
X89101Y194484D01*
X89201Y194474D01*
X89301Y194461D01*
X89400Y194443D01*
X89499Y194422D01*
X89596Y194397D01*
X89693Y194368D01*
X89788Y194335D01*
X89882Y194299D01*
X89974Y194259D01*
X90065Y194216D01*
X90154Y194169D01*
X90241Y194119D01*
X90327Y194065D01*
X90410Y194008D01*
X90490Y193948D01*
X90569Y193885D01*
X90645Y193818D01*
X90718Y193749D01*
X90788Y193677D01*
X90856Y193603D01*
X90921Y193526D01*
X90982Y193446D01*
X91041Y193364D01*
X91096Y193280D01*
X91148Y193194D01*
X91197Y193106D01*
X91242Y193016D01*
X91284Y192924D01*
X91322Y192831D01*
X91356Y192736D01*
X91387Y192641D01*
X91414Y192544D01*
X91437Y192446D01*
X91457Y192347D01*
X91472Y192247D01*
X91484Y192147D01*
X91492Y192047D01*
X91496Y191946D01*
X91496Y191846D01*
X91492Y191745D01*
X91484Y191645D01*
X91472Y191545D01*
X91457Y191445D01*
X91437Y191346D01*
X91414Y191248D01*
X91387Y191151D01*
X91356Y191056D01*
X91322Y190961D01*
X91284Y190868D01*
X91242Y190776D01*
X91197Y190686D01*
X91148Y190598D01*
X91096Y190512D01*
X91041Y190428D01*
X90982Y190346D01*
X90921Y190266D01*
X90856Y190189D01*
X90788Y190115D01*
X90718Y190043D01*
X90645Y189974D01*
X90569Y189907D01*
X90490Y189844D01*
X90410Y189784D01*
X90327Y189727D01*
X90241Y189673D01*
X90154Y189623D01*
X90065Y189576D01*
X89974Y189533D01*
X89882Y189493D01*
X89788Y189457D01*
X89693Y189424D01*
X89596Y189395D01*
X89499Y189370D01*
X89400Y189349D01*
X89301Y189331D01*
X89201Y189318D01*
X89101Y189308D01*
X89001Y189302D01*
X88900Y189300D01*
X13649Y171851D02*
X13649Y169254D01*
X13650Y171851D02*
X13652Y171952D01*
X13658Y172052D01*
X13668Y172152D01*
X13681Y172252D01*
X13699Y172351D01*
X13720Y172450D01*
X13745Y172547D01*
X13774Y172644D01*
X13807Y172739D01*
X13843Y172833D01*
X13883Y172925D01*
X13926Y173016D01*
X13973Y173105D01*
X14023Y173192D01*
X14077Y173278D01*
X14134Y173361D01*
X14194Y173441D01*
X14257Y173520D01*
X14324Y173596D01*
X14393Y173669D01*
X14465Y173739D01*
X14539Y173807D01*
X14616Y173872D01*
X14696Y173933D01*
X14778Y173992D01*
X14862Y174047D01*
X14948Y174099D01*
X15036Y174148D01*
X15126Y174193D01*
X15218Y174235D01*
X15311Y174273D01*
X15406Y174307D01*
X15501Y174338D01*
X15598Y174365D01*
X15696Y174388D01*
X15795Y174408D01*
X15895Y174423D01*
X15995Y174435D01*
X16095Y174443D01*
X16196Y174447D01*
X16296Y174447D01*
X16397Y174443D01*
X16497Y174435D01*
X16597Y174423D01*
X16697Y174408D01*
X16796Y174388D01*
X16894Y174365D01*
X16991Y174338D01*
X17086Y174307D01*
X17181Y174273D01*
X17274Y174235D01*
X17366Y174193D01*
X17456Y174148D01*
X17544Y174099D01*
X17630Y174047D01*
X17714Y173992D01*
X17796Y173933D01*
X17876Y173872D01*
X17953Y173807D01*
X18027Y173739D01*
X18099Y173669D01*
X18168Y173596D01*
X18235Y173520D01*
X18298Y173441D01*
X18358Y173361D01*
X18415Y173278D01*
X18469Y173192D01*
X18519Y173105D01*
X18566Y173016D01*
X18609Y172925D01*
X18649Y172833D01*
X18685Y172739D01*
X18718Y172644D01*
X18747Y172547D01*
X18772Y172450D01*
X18793Y172351D01*
X18811Y172252D01*
X18824Y172152D01*
X18834Y172052D01*
X18840Y171952D01*
X18842Y171851D01*
X18842Y169254D01*
X18840Y169153D01*
X18834Y169053D01*
X18824Y168953D01*
X18811Y168853D01*
X18793Y168754D01*
X18772Y168655D01*
X18747Y168558D01*
X18718Y168461D01*
X18685Y168366D01*
X18649Y168272D01*
X18609Y168180D01*
X18566Y168089D01*
X18519Y168000D01*
X18469Y167913D01*
X18415Y167827D01*
X18358Y167744D01*
X18298Y167664D01*
X18235Y167585D01*
X18168Y167509D01*
X18099Y167436D01*
X18027Y167366D01*
X17953Y167298D01*
X17876Y167233D01*
X17796Y167172D01*
X17714Y167113D01*
X17630Y167058D01*
X17544Y167006D01*
X17456Y166957D01*
X17366Y166912D01*
X17274Y166870D01*
X17181Y166832D01*
X17086Y166798D01*
X16991Y166767D01*
X16894Y166740D01*
X16796Y166717D01*
X16697Y166697D01*
X16597Y166682D01*
X16497Y166670D01*
X16397Y166662D01*
X16296Y166658D01*
X16196Y166658D01*
X16095Y166662D01*
X15995Y166670D01*
X15895Y166682D01*
X15795Y166697D01*
X15696Y166717D01*
X15598Y166740D01*
X15501Y166767D01*
X15406Y166798D01*
X15311Y166832D01*
X15218Y166870D01*
X15126Y166912D01*
X15036Y166957D01*
X14948Y167006D01*
X14862Y167058D01*
X14778Y167113D01*
X14696Y167172D01*
X14616Y167233D01*
X14539Y167298D01*
X14465Y167366D01*
X14393Y167436D01*
X14324Y167509D01*
X14257Y167585D01*
X14194Y167664D01*
X14134Y167744D01*
X14077Y167827D01*
X14023Y167913D01*
X13973Y168000D01*
X13926Y168089D01*
X13883Y168180D01*
X13843Y168272D01*
X13807Y168366D01*
X13774Y168461D01*
X13745Y168558D01*
X13720Y168655D01*
X13699Y168754D01*
X13681Y168853D01*
X13668Y168953D01*
X13658Y169053D01*
X13652Y169153D01*
X13650Y169254D01*
X23936Y168605D02*
X23936Y174447D01*
X23937Y168605D02*
X23939Y168518D01*
X23945Y168430D01*
X23955Y168344D01*
X23968Y168257D01*
X23986Y168172D01*
X24007Y168087D01*
X24032Y168003D01*
X24061Y167921D01*
X24094Y167840D01*
X24130Y167760D01*
X24169Y167682D01*
X24213Y167606D01*
X24259Y167532D01*
X24309Y167461D01*
X24362Y167391D01*
X24418Y167324D01*
X24477Y167260D01*
X24539Y167198D01*
X24603Y167139D01*
X24670Y167083D01*
X24740Y167030D01*
X24811Y166980D01*
X24885Y166934D01*
X24961Y166890D01*
X25039Y166851D01*
X25119Y166815D01*
X25200Y166782D01*
X25282Y166753D01*
X25366Y166728D01*
X25451Y166707D01*
X25536Y166689D01*
X25623Y166676D01*
X25709Y166666D01*
X25797Y166660D01*
X25884Y166658D01*
X29129Y166658D01*
X29129Y174447D01*
X33256Y174447D02*
X37151Y174447D01*
X34554Y178342D02*
X34554Y168605D01*
X34555Y168605D02*
X34557Y168518D01*
X34563Y168430D01*
X34573Y168344D01*
X34586Y168257D01*
X34604Y168172D01*
X34625Y168087D01*
X34650Y168003D01*
X34679Y167921D01*
X34712Y167840D01*
X34748Y167760D01*
X34787Y167682D01*
X34831Y167606D01*
X34877Y167532D01*
X34927Y167461D01*
X34980Y167391D01*
X35036Y167324D01*
X35095Y167260D01*
X35157Y167198D01*
X35221Y167139D01*
X35288Y167083D01*
X35358Y167030D01*
X35429Y166980D01*
X35503Y166934D01*
X35579Y166890D01*
X35657Y166851D01*
X35737Y166815D01*
X35818Y166782D01*
X35900Y166753D01*
X35984Y166728D01*
X36069Y166707D01*
X36154Y166689D01*
X36241Y166676D01*
X36327Y166666D01*
X36415Y166660D01*
X36502Y166658D01*
X37151Y166658D01*
X71254Y166658D02*
X71254Y174447D01*
X70930Y177693D02*
X70930Y178342D01*
X71579Y178342D01*
X71579Y177693D01*
X70930Y177693D01*
X76278Y174447D02*
X76278Y166658D01*
X76278Y174447D02*
X79523Y174447D01*
X79610Y174445D01*
X79698Y174439D01*
X79784Y174429D01*
X79871Y174416D01*
X79956Y174398D01*
X80041Y174377D01*
X80125Y174352D01*
X80207Y174323D01*
X80288Y174290D01*
X80368Y174254D01*
X80446Y174215D01*
X80522Y174171D01*
X80596Y174125D01*
X80667Y174075D01*
X80737Y174022D01*
X80804Y173966D01*
X80868Y173907D01*
X80930Y173846D01*
X80989Y173781D01*
X81045Y173714D01*
X81098Y173644D01*
X81148Y173573D01*
X81194Y173499D01*
X81238Y173423D01*
X81277Y173345D01*
X81313Y173265D01*
X81346Y173184D01*
X81375Y173102D01*
X81400Y173018D01*
X81421Y172933D01*
X81439Y172848D01*
X81452Y172761D01*
X81462Y172675D01*
X81468Y172587D01*
X81470Y172500D01*
X81471Y172500D02*
X81471Y166658D01*
X-87597Y169447D02*
X-87597Y161658D01*
X-87597Y169447D02*
X-81755Y169447D01*
X-81668Y169445D01*
X-81580Y169439D01*
X-81494Y169429D01*
X-81407Y169416D01*
X-81322Y169398D01*
X-81237Y169377D01*
X-81153Y169352D01*
X-81071Y169323D01*
X-80990Y169290D01*
X-80910Y169254D01*
X-80832Y169215D01*
X-80756Y169171D01*
X-80682Y169125D01*
X-80611Y169075D01*
X-80541Y169022D01*
X-80474Y168966D01*
X-80410Y168907D01*
X-80348Y168845D01*
X-80289Y168781D01*
X-80233Y168714D01*
X-80180Y168644D01*
X-80130Y168573D01*
X-80084Y168499D01*
X-80040Y168423D01*
X-80001Y168345D01*
X-79965Y168265D01*
X-79932Y168184D01*
X-79903Y168102D01*
X-79878Y168018D01*
X-79857Y167933D01*
X-79839Y167848D01*
X-79826Y167761D01*
X-79816Y167675D01*
X-79810Y167587D01*
X-79808Y167500D01*
X-79808Y161658D01*
X-83702Y161658D02*
X-83702Y169447D01*
X-72275Y166202D02*
X-69354Y166202D01*
X-72275Y166202D02*
X-72369Y166200D01*
X-72463Y166194D01*
X-72556Y166185D01*
X-72649Y166171D01*
X-72741Y166154D01*
X-72833Y166132D01*
X-72923Y166108D01*
X-73013Y166079D01*
X-73101Y166047D01*
X-73188Y166011D01*
X-73273Y165971D01*
X-73356Y165928D01*
X-73438Y165882D01*
X-73518Y165832D01*
X-73595Y165779D01*
X-73670Y165723D01*
X-73743Y165664D01*
X-73814Y165602D01*
X-73882Y165537D01*
X-73947Y165469D01*
X-74009Y165398D01*
X-74068Y165325D01*
X-74124Y165250D01*
X-74177Y165173D01*
X-74227Y165093D01*
X-74273Y165011D01*
X-74316Y164928D01*
X-74356Y164843D01*
X-74392Y164756D01*
X-74424Y164668D01*
X-74453Y164578D01*
X-74477Y164488D01*
X-74499Y164396D01*
X-74516Y164304D01*
X-74530Y164211D01*
X-74539Y164118D01*
X-74545Y164024D01*
X-74547Y163930D01*
X-74545Y163836D01*
X-74539Y163742D01*
X-74530Y163649D01*
X-74516Y163556D01*
X-74499Y163464D01*
X-74477Y163372D01*
X-74453Y163282D01*
X-74424Y163192D01*
X-74392Y163104D01*
X-74356Y163017D01*
X-74316Y162932D01*
X-74273Y162849D01*
X-74227Y162767D01*
X-74177Y162687D01*
X-74124Y162610D01*
X-74068Y162535D01*
X-74009Y162462D01*
X-73947Y162391D01*
X-73882Y162323D01*
X-73814Y162258D01*
X-73743Y162196D01*
X-73670Y162137D01*
X-73595Y162081D01*
X-73518Y162028D01*
X-73438Y161978D01*
X-73356Y161932D01*
X-73273Y161889D01*
X-73188Y161849D01*
X-73101Y161813D01*
X-73013Y161781D01*
X-72923Y161752D01*
X-72833Y161728D01*
X-72741Y161706D01*
X-72649Y161689D01*
X-72556Y161675D01*
X-72463Y161666D01*
X-72369Y161660D01*
X-72275Y161658D01*
X-69354Y161658D01*
X-69354Y167500D01*
X-69356Y167587D01*
X-69362Y167675D01*
X-69372Y167761D01*
X-69385Y167848D01*
X-69403Y167933D01*
X-69424Y168018D01*
X-69449Y168102D01*
X-69478Y168184D01*
X-69511Y168265D01*
X-69547Y168345D01*
X-69586Y168423D01*
X-69630Y168499D01*
X-69676Y168573D01*
X-69726Y168644D01*
X-69779Y168714D01*
X-69835Y168781D01*
X-69894Y168846D01*
X-69956Y168907D01*
X-70020Y168966D01*
X-70087Y169022D01*
X-70157Y169075D01*
X-70228Y169125D01*
X-70302Y169171D01*
X-70378Y169215D01*
X-70456Y169254D01*
X-70536Y169290D01*
X-70617Y169323D01*
X-70699Y169352D01*
X-70783Y169377D01*
X-70868Y169398D01*
X-70953Y169416D01*
X-71040Y169429D01*
X-71127Y169439D01*
X-71214Y169445D01*
X-71301Y169447D01*
X-73898Y169447D01*
X-64582Y161658D02*
X-59389Y169447D01*
X-64582Y169447D02*
X-59389Y161658D01*
X-55452Y161658D02*
X-55452Y162307D01*
X-54803Y162307D01*
X-54803Y161658D01*
X-55452Y161658D01*
X120308Y196254D02*
X131992Y196254D01*
X120308Y193008D02*
X120308Y199499D01*
X131992Y205510D02*
X131992Y208756D01*
X131992Y205510D02*
X131990Y205423D01*
X131984Y205335D01*
X131974Y205249D01*
X131961Y205162D01*
X131943Y205077D01*
X131922Y204992D01*
X131897Y204908D01*
X131868Y204826D01*
X131835Y204745D01*
X131799Y204665D01*
X131760Y204587D01*
X131716Y204511D01*
X131670Y204437D01*
X131620Y204366D01*
X131567Y204296D01*
X131511Y204229D01*
X131452Y204165D01*
X131390Y204103D01*
X131326Y204044D01*
X131259Y203988D01*
X131189Y203935D01*
X131118Y203885D01*
X131044Y203839D01*
X130968Y203795D01*
X130890Y203756D01*
X130810Y203720D01*
X130729Y203687D01*
X130647Y203658D01*
X130563Y203633D01*
X130478Y203612D01*
X130393Y203594D01*
X130306Y203581D01*
X130220Y203571D01*
X130132Y203565D01*
X130045Y203563D01*
X126799Y203563D01*
X126799Y203564D02*
X126698Y203566D01*
X126598Y203572D01*
X126498Y203582D01*
X126398Y203595D01*
X126299Y203613D01*
X126200Y203634D01*
X126103Y203659D01*
X126006Y203688D01*
X125911Y203721D01*
X125817Y203757D01*
X125725Y203797D01*
X125634Y203840D01*
X125545Y203887D01*
X125458Y203937D01*
X125372Y203991D01*
X125289Y204048D01*
X125209Y204108D01*
X125130Y204171D01*
X125054Y204238D01*
X124981Y204307D01*
X124911Y204379D01*
X124843Y204453D01*
X124778Y204530D01*
X124717Y204610D01*
X124658Y204692D01*
X124603Y204776D01*
X124551Y204862D01*
X124502Y204950D01*
X124457Y205040D01*
X124415Y205132D01*
X124377Y205225D01*
X124343Y205320D01*
X124312Y205415D01*
X124285Y205512D01*
X124262Y205610D01*
X124242Y205709D01*
X124227Y205809D01*
X124215Y205909D01*
X124207Y206009D01*
X124203Y206110D01*
X124203Y206210D01*
X124207Y206311D01*
X124215Y206411D01*
X124227Y206511D01*
X124242Y206611D01*
X124262Y206710D01*
X124285Y206808D01*
X124312Y206905D01*
X124343Y207000D01*
X124377Y207095D01*
X124415Y207188D01*
X124457Y207280D01*
X124502Y207370D01*
X124551Y207458D01*
X124603Y207544D01*
X124658Y207628D01*
X124717Y207710D01*
X124778Y207790D01*
X124843Y207867D01*
X124911Y207941D01*
X124981Y208013D01*
X125054Y208082D01*
X125130Y208149D01*
X125209Y208212D01*
X125289Y208272D01*
X125372Y208329D01*
X125458Y208383D01*
X125545Y208433D01*
X125634Y208480D01*
X125725Y208523D01*
X125817Y208563D01*
X125911Y208599D01*
X126006Y208632D01*
X126103Y208661D01*
X126200Y208686D01*
X126299Y208707D01*
X126398Y208725D01*
X126498Y208738D01*
X126598Y208748D01*
X126698Y208754D01*
X126799Y208756D01*
X128097Y208756D01*
X128097Y203563D01*
X131992Y213917D02*
X124203Y213917D01*
X124203Y217811D01*
X125501Y217811D01*
X131343Y221075D02*
X131992Y221075D01*
X131343Y221075D02*
X131343Y221724D01*
X131992Y221724D01*
X131992Y221075D01*
X-149492Y116242D02*
X-149492Y104558D01*
X-149492Y111049D02*
X-143001Y111049D01*
X-143001Y116242D02*
X-143001Y104558D01*
X-137865Y104558D02*
X-137865Y112347D01*
X-138189Y115593D02*
X-138189Y116242D01*
X-137540Y116242D01*
X-137540Y115593D01*
X-138189Y115593D01*
X-131334Y104558D02*
X-128088Y104558D01*
X-131334Y104558D02*
X-131421Y104560D01*
X-131509Y104566D01*
X-131595Y104576D01*
X-131682Y104589D01*
X-131767Y104607D01*
X-131852Y104628D01*
X-131936Y104653D01*
X-132018Y104682D01*
X-132099Y104715D01*
X-132179Y104751D01*
X-132257Y104790D01*
X-132333Y104834D01*
X-132407Y104880D01*
X-132478Y104930D01*
X-132548Y104983D01*
X-132615Y105039D01*
X-132679Y105098D01*
X-132741Y105160D01*
X-132800Y105224D01*
X-132856Y105291D01*
X-132909Y105361D01*
X-132959Y105432D01*
X-133005Y105506D01*
X-133049Y105582D01*
X-133088Y105660D01*
X-133124Y105740D01*
X-133157Y105821D01*
X-133186Y105903D01*
X-133211Y105987D01*
X-133232Y106072D01*
X-133250Y106157D01*
X-133263Y106244D01*
X-133273Y106330D01*
X-133279Y106418D01*
X-133281Y106505D01*
X-133281Y110400D01*
X-133279Y110487D01*
X-133273Y110575D01*
X-133263Y110661D01*
X-133250Y110748D01*
X-133232Y110833D01*
X-133211Y110918D01*
X-133186Y111002D01*
X-133157Y111084D01*
X-133124Y111165D01*
X-133088Y111245D01*
X-133049Y111323D01*
X-133005Y111399D01*
X-132959Y111473D01*
X-132909Y111544D01*
X-132856Y111614D01*
X-132800Y111681D01*
X-132741Y111745D01*
X-132679Y111807D01*
X-132615Y111866D01*
X-132548Y111922D01*
X-132478Y111975D01*
X-132407Y112025D01*
X-132333Y112071D01*
X-132257Y112115D01*
X-132179Y112154D01*
X-132099Y112190D01*
X-132018Y112223D01*
X-131936Y112252D01*
X-131852Y112277D01*
X-131767Y112298D01*
X-131682Y112316D01*
X-131595Y112329D01*
X-131509Y112339D01*
X-131421Y112345D01*
X-131334Y112347D01*
X-128088Y112347D01*
X-128088Y102611D01*
X-128090Y102524D01*
X-128096Y102436D01*
X-128106Y102350D01*
X-128119Y102263D01*
X-128137Y102178D01*
X-128158Y102093D01*
X-128183Y102009D01*
X-128212Y101927D01*
X-128245Y101846D01*
X-128281Y101766D01*
X-128320Y101688D01*
X-128364Y101612D01*
X-128410Y101538D01*
X-128460Y101467D01*
X-128513Y101397D01*
X-128569Y101330D01*
X-128628Y101266D01*
X-128690Y101204D01*
X-128754Y101145D01*
X-128821Y101089D01*
X-128891Y101036D01*
X-128962Y100986D01*
X-129036Y100940D01*
X-129112Y100896D01*
X-129190Y100857D01*
X-129270Y100821D01*
X-129351Y100788D01*
X-129433Y100759D01*
X-129517Y100734D01*
X-129602Y100713D01*
X-129687Y100695D01*
X-129774Y100682D01*
X-129860Y100672D01*
X-129948Y100666D01*
X-130035Y100664D01*
X-130035Y100663D02*
X-132632Y100663D01*
X-122554Y104558D02*
X-122554Y116242D01*
X-122554Y112347D02*
X-119308Y112347D01*
X-119221Y112345D01*
X-119133Y112339D01*
X-119047Y112329D01*
X-118960Y112316D01*
X-118875Y112298D01*
X-118790Y112277D01*
X-118706Y112252D01*
X-118624Y112223D01*
X-118543Y112190D01*
X-118463Y112154D01*
X-118385Y112115D01*
X-118309Y112071D01*
X-118235Y112025D01*
X-118164Y111975D01*
X-118094Y111922D01*
X-118027Y111866D01*
X-117963Y111807D01*
X-117901Y111746D01*
X-117842Y111681D01*
X-117786Y111614D01*
X-117733Y111544D01*
X-117683Y111473D01*
X-117637Y111399D01*
X-117594Y111323D01*
X-117554Y111245D01*
X-117518Y111165D01*
X-117485Y111084D01*
X-117456Y111002D01*
X-117431Y110918D01*
X-117410Y110833D01*
X-117392Y110748D01*
X-117379Y110661D01*
X-117369Y110575D01*
X-117363Y110487D01*
X-117361Y110400D01*
X-117361Y104558D01*
X-149492Y97192D02*
X-149492Y85508D01*
X-143001Y85508D02*
X-149492Y97192D01*
X-143001Y97192D02*
X-143001Y85508D01*
X-137865Y85508D02*
X-137865Y93297D01*
X-138189Y96543D02*
X-138189Y97192D01*
X-137540Y97192D01*
X-137540Y96543D01*
X-138189Y96543D01*
X-132782Y97192D02*
X-132782Y85508D01*
X-129537Y85508D01*
X-129450Y85510D01*
X-129362Y85516D01*
X-129276Y85526D01*
X-129189Y85539D01*
X-129104Y85557D01*
X-129019Y85578D01*
X-128935Y85603D01*
X-128853Y85632D01*
X-128772Y85665D01*
X-128692Y85701D01*
X-128614Y85740D01*
X-128538Y85784D01*
X-128464Y85830D01*
X-128393Y85880D01*
X-128323Y85933D01*
X-128256Y85989D01*
X-128192Y86048D01*
X-128130Y86109D01*
X-128071Y86174D01*
X-128015Y86241D01*
X-127962Y86311D01*
X-127912Y86382D01*
X-127866Y86456D01*
X-127823Y86532D01*
X-127783Y86610D01*
X-127747Y86690D01*
X-127714Y86771D01*
X-127685Y86853D01*
X-127660Y86937D01*
X-127639Y87022D01*
X-127621Y87107D01*
X-127608Y87194D01*
X-127598Y87280D01*
X-127592Y87368D01*
X-127590Y87455D01*
X-127589Y87455D02*
X-127589Y91350D01*
X-127590Y91350D02*
X-127592Y91437D01*
X-127598Y91525D01*
X-127608Y91611D01*
X-127621Y91698D01*
X-127639Y91783D01*
X-127660Y91868D01*
X-127685Y91952D01*
X-127714Y92034D01*
X-127747Y92115D01*
X-127783Y92195D01*
X-127822Y92273D01*
X-127866Y92349D01*
X-127912Y92423D01*
X-127962Y92494D01*
X-128015Y92564D01*
X-128071Y92631D01*
X-128130Y92696D01*
X-128192Y92757D01*
X-128256Y92816D01*
X-128323Y92872D01*
X-128393Y92925D01*
X-128464Y92975D01*
X-128538Y93021D01*
X-128614Y93065D01*
X-128692Y93104D01*
X-128772Y93140D01*
X-128853Y93173D01*
X-128935Y93202D01*
X-129019Y93227D01*
X-129104Y93248D01*
X-129189Y93266D01*
X-129276Y93279D01*
X-129363Y93289D01*
X-129450Y93295D01*
X-129537Y93297D01*
X-132782Y93297D01*
X-123330Y86157D02*
X-123330Y85508D01*
X-123330Y86157D02*
X-122681Y86157D01*
X-122681Y85508D01*
X-123330Y85508D01*
X57269Y146658D02*
X61164Y158342D01*
X65059Y146658D01*
X64085Y149579D02*
X58243Y149579D01*
X69461Y151202D02*
X77251Y151202D01*
X73356Y155096D02*
X73356Y147307D01*
X88949Y153149D02*
X92194Y153149D01*
X92194Y153150D02*
X92307Y153148D01*
X92420Y153142D01*
X92533Y153132D01*
X92646Y153118D01*
X92758Y153101D01*
X92869Y153079D01*
X92979Y153054D01*
X93089Y153024D01*
X93197Y152991D01*
X93304Y152954D01*
X93410Y152914D01*
X93514Y152869D01*
X93617Y152821D01*
X93718Y152770D01*
X93817Y152715D01*
X93914Y152657D01*
X94009Y152595D01*
X94102Y152530D01*
X94192Y152462D01*
X94280Y152391D01*
X94366Y152316D01*
X94449Y152239D01*
X94529Y152159D01*
X94606Y152076D01*
X94681Y151990D01*
X94752Y151902D01*
X94820Y151812D01*
X94885Y151719D01*
X94947Y151624D01*
X95005Y151527D01*
X95060Y151428D01*
X95111Y151327D01*
X95159Y151224D01*
X95204Y151120D01*
X95244Y151014D01*
X95281Y150907D01*
X95314Y150799D01*
X95344Y150689D01*
X95369Y150579D01*
X95391Y150468D01*
X95408Y150356D01*
X95422Y150243D01*
X95432Y150130D01*
X95438Y150017D01*
X95440Y149904D01*
X95438Y149791D01*
X95432Y149678D01*
X95422Y149565D01*
X95408Y149452D01*
X95391Y149340D01*
X95369Y149229D01*
X95344Y149119D01*
X95314Y149009D01*
X95281Y148901D01*
X95244Y148794D01*
X95204Y148688D01*
X95159Y148584D01*
X95111Y148481D01*
X95060Y148380D01*
X95005Y148281D01*
X94947Y148184D01*
X94885Y148089D01*
X94820Y147996D01*
X94752Y147906D01*
X94681Y147818D01*
X94606Y147732D01*
X94529Y147649D01*
X94449Y147569D01*
X94366Y147492D01*
X94280Y147417D01*
X94192Y147346D01*
X94102Y147278D01*
X94009Y147213D01*
X93914Y147151D01*
X93817Y147093D01*
X93718Y147038D01*
X93617Y146987D01*
X93514Y146939D01*
X93410Y146894D01*
X93304Y146854D01*
X93197Y146817D01*
X93089Y146784D01*
X92979Y146754D01*
X92869Y146729D01*
X92758Y146707D01*
X92646Y146690D01*
X92533Y146676D01*
X92420Y146666D01*
X92307Y146660D01*
X92194Y146658D01*
X88949Y146658D01*
X88949Y158342D01*
X92194Y158342D01*
X92295Y158340D01*
X92395Y158334D01*
X92495Y158324D01*
X92595Y158311D01*
X92694Y158293D01*
X92793Y158272D01*
X92890Y158247D01*
X92987Y158218D01*
X93082Y158185D01*
X93176Y158149D01*
X93268Y158109D01*
X93359Y158066D01*
X93448Y158019D01*
X93535Y157969D01*
X93621Y157915D01*
X93704Y157858D01*
X93784Y157798D01*
X93863Y157735D01*
X93939Y157668D01*
X94012Y157599D01*
X94082Y157527D01*
X94150Y157453D01*
X94215Y157376D01*
X94276Y157296D01*
X94335Y157214D01*
X94390Y157130D01*
X94442Y157044D01*
X94491Y156956D01*
X94536Y156866D01*
X94578Y156774D01*
X94616Y156681D01*
X94650Y156586D01*
X94681Y156491D01*
X94708Y156394D01*
X94731Y156296D01*
X94751Y156197D01*
X94766Y156097D01*
X94778Y155997D01*
X94786Y155897D01*
X94790Y155796D01*
X94790Y155696D01*
X94786Y155595D01*
X94778Y155495D01*
X94766Y155395D01*
X94751Y155295D01*
X94731Y155196D01*
X94708Y155098D01*
X94681Y155001D01*
X94650Y154906D01*
X94616Y154811D01*
X94578Y154718D01*
X94536Y154626D01*
X94491Y154536D01*
X94442Y154448D01*
X94390Y154362D01*
X94335Y154278D01*
X94276Y154196D01*
X94215Y154116D01*
X94150Y154039D01*
X94082Y153965D01*
X94012Y153893D01*
X93939Y153824D01*
X93863Y153757D01*
X93784Y153694D01*
X93704Y153634D01*
X93621Y153577D01*
X93535Y153523D01*
X93448Y153473D01*
X93359Y153426D01*
X93268Y153383D01*
X93176Y153343D01*
X93082Y153307D01*
X92987Y153274D01*
X92890Y153245D01*
X92793Y153220D01*
X92694Y153199D01*
X92595Y153181D01*
X92495Y153168D01*
X92395Y153158D01*
X92295Y153152D01*
X92194Y153150D01*
X99941Y151202D02*
X107731Y151202D01*
X-106992Y99447D02*
X-106992Y91658D01*
X-106992Y99447D02*
X-101150Y99447D01*
X-101063Y99445D01*
X-100975Y99439D01*
X-100889Y99429D01*
X-100802Y99416D01*
X-100717Y99398D01*
X-100632Y99377D01*
X-100548Y99352D01*
X-100466Y99323D01*
X-100385Y99290D01*
X-100305Y99254D01*
X-100227Y99215D01*
X-100151Y99171D01*
X-100077Y99125D01*
X-100006Y99075D01*
X-99936Y99022D01*
X-99869Y98966D01*
X-99805Y98907D01*
X-99743Y98845D01*
X-99684Y98781D01*
X-99628Y98714D01*
X-99575Y98644D01*
X-99525Y98573D01*
X-99479Y98499D01*
X-99435Y98423D01*
X-99396Y98345D01*
X-99360Y98265D01*
X-99327Y98184D01*
X-99298Y98102D01*
X-99273Y98018D01*
X-99252Y97933D01*
X-99234Y97848D01*
X-99221Y97761D01*
X-99211Y97675D01*
X-99205Y97587D01*
X-99203Y97500D01*
X-99203Y91658D01*
X-103097Y91658D02*
X-103097Y99447D01*
X-91935Y91658D02*
X-88690Y91658D01*
X-91935Y91658D02*
X-92022Y91660D01*
X-92110Y91666D01*
X-92196Y91676D01*
X-92283Y91689D01*
X-92368Y91707D01*
X-92453Y91728D01*
X-92537Y91753D01*
X-92619Y91782D01*
X-92700Y91815D01*
X-92780Y91851D01*
X-92858Y91890D01*
X-92934Y91934D01*
X-93008Y91980D01*
X-93079Y92030D01*
X-93149Y92083D01*
X-93216Y92139D01*
X-93280Y92198D01*
X-93342Y92260D01*
X-93401Y92324D01*
X-93457Y92391D01*
X-93510Y92461D01*
X-93560Y92532D01*
X-93606Y92606D01*
X-93650Y92682D01*
X-93689Y92760D01*
X-93725Y92840D01*
X-93758Y92921D01*
X-93787Y93003D01*
X-93812Y93087D01*
X-93833Y93172D01*
X-93851Y93257D01*
X-93864Y93344D01*
X-93874Y93430D01*
X-93880Y93518D01*
X-93882Y93605D01*
X-93883Y93605D02*
X-93883Y96851D01*
X-93882Y96851D02*
X-93880Y96952D01*
X-93874Y97052D01*
X-93864Y97152D01*
X-93851Y97252D01*
X-93833Y97351D01*
X-93812Y97450D01*
X-93787Y97547D01*
X-93758Y97644D01*
X-93725Y97739D01*
X-93689Y97833D01*
X-93649Y97925D01*
X-93606Y98016D01*
X-93559Y98105D01*
X-93509Y98192D01*
X-93455Y98278D01*
X-93398Y98361D01*
X-93338Y98441D01*
X-93275Y98520D01*
X-93208Y98596D01*
X-93139Y98669D01*
X-93067Y98739D01*
X-92993Y98807D01*
X-92916Y98872D01*
X-92836Y98933D01*
X-92754Y98992D01*
X-92670Y99047D01*
X-92584Y99099D01*
X-92496Y99148D01*
X-92406Y99193D01*
X-92314Y99235D01*
X-92221Y99273D01*
X-92126Y99307D01*
X-92031Y99338D01*
X-91934Y99365D01*
X-91836Y99388D01*
X-91737Y99408D01*
X-91637Y99423D01*
X-91537Y99435D01*
X-91437Y99443D01*
X-91336Y99447D01*
X-91236Y99447D01*
X-91135Y99443D01*
X-91035Y99435D01*
X-90935Y99423D01*
X-90835Y99408D01*
X-90736Y99388D01*
X-90638Y99365D01*
X-90541Y99338D01*
X-90446Y99307D01*
X-90351Y99273D01*
X-90258Y99235D01*
X-90166Y99193D01*
X-90076Y99148D01*
X-89988Y99099D01*
X-89902Y99047D01*
X-89818Y98992D01*
X-89736Y98933D01*
X-89656Y98872D01*
X-89579Y98807D01*
X-89505Y98739D01*
X-89433Y98669D01*
X-89364Y98596D01*
X-89297Y98520D01*
X-89234Y98441D01*
X-89174Y98361D01*
X-89117Y98278D01*
X-89063Y98192D01*
X-89013Y98105D01*
X-88966Y98016D01*
X-88923Y97925D01*
X-88883Y97833D01*
X-88847Y97739D01*
X-88814Y97644D01*
X-88785Y97547D01*
X-88760Y97450D01*
X-88739Y97351D01*
X-88721Y97252D01*
X-88708Y97152D01*
X-88698Y97052D01*
X-88692Y96952D01*
X-88690Y96851D01*
X-88690Y95553D01*
X-93883Y95553D01*
X-83596Y91658D02*
X-83596Y99447D01*
X-80350Y99447D01*
X-80263Y99445D01*
X-80175Y99439D01*
X-80089Y99429D01*
X-80002Y99416D01*
X-79917Y99398D01*
X-79832Y99377D01*
X-79748Y99352D01*
X-79666Y99323D01*
X-79585Y99290D01*
X-79505Y99254D01*
X-79427Y99215D01*
X-79351Y99171D01*
X-79277Y99125D01*
X-79206Y99075D01*
X-79136Y99022D01*
X-79069Y98966D01*
X-79005Y98907D01*
X-78943Y98846D01*
X-78884Y98781D01*
X-78828Y98714D01*
X-78775Y98644D01*
X-78725Y98573D01*
X-78679Y98499D01*
X-78636Y98423D01*
X-78596Y98345D01*
X-78560Y98265D01*
X-78527Y98184D01*
X-78498Y98102D01*
X-78473Y98018D01*
X-78452Y97933D01*
X-78434Y97848D01*
X-78421Y97761D01*
X-78411Y97675D01*
X-78405Y97587D01*
X-78403Y97500D01*
X-78403Y91658D01*
X-72928Y91658D02*
X-72928Y99447D01*
X-69682Y99447D01*
X-69595Y99445D01*
X-69507Y99439D01*
X-69421Y99429D01*
X-69334Y99416D01*
X-69249Y99398D01*
X-69164Y99377D01*
X-69080Y99352D01*
X-68998Y99323D01*
X-68917Y99290D01*
X-68837Y99254D01*
X-68759Y99215D01*
X-68683Y99171D01*
X-68609Y99125D01*
X-68538Y99075D01*
X-68468Y99022D01*
X-68401Y98966D01*
X-68337Y98907D01*
X-68275Y98846D01*
X-68216Y98781D01*
X-68160Y98714D01*
X-68107Y98644D01*
X-68057Y98573D01*
X-68011Y98499D01*
X-67968Y98423D01*
X-67928Y98345D01*
X-67892Y98265D01*
X-67859Y98184D01*
X-67830Y98102D01*
X-67805Y98018D01*
X-67784Y97933D01*
X-67766Y97848D01*
X-67753Y97761D01*
X-67743Y97675D01*
X-67737Y97587D01*
X-67735Y97500D01*
X-67735Y91658D01*
X-62711Y91658D02*
X-62711Y99447D01*
X-63036Y102693D02*
X-63036Y103342D01*
X-62387Y103342D01*
X-62387Y102693D01*
X-63036Y102693D01*
X-57552Y103342D02*
X-57552Y91658D01*
X-57552Y95553D02*
X-52359Y99447D01*
X-55280Y97175D02*
X-52359Y91658D01*
X-48558Y91658D02*
X-48558Y92307D01*
X-47909Y92307D01*
X-47909Y91658D01*
X-48558Y91658D01*
X-38457Y91658D02*
X-38457Y103342D01*
X-38457Y91658D02*
X-41702Y91658D01*
X-41789Y91660D01*
X-41877Y91666D01*
X-41963Y91676D01*
X-42050Y91689D01*
X-42135Y91707D01*
X-42220Y91728D01*
X-42304Y91753D01*
X-42386Y91782D01*
X-42467Y91815D01*
X-42547Y91851D01*
X-42625Y91890D01*
X-42701Y91934D01*
X-42775Y91980D01*
X-42846Y92030D01*
X-42916Y92083D01*
X-42983Y92139D01*
X-43047Y92198D01*
X-43109Y92260D01*
X-43168Y92324D01*
X-43224Y92391D01*
X-43277Y92461D01*
X-43327Y92532D01*
X-43373Y92606D01*
X-43417Y92682D01*
X-43456Y92760D01*
X-43492Y92840D01*
X-43525Y92921D01*
X-43554Y93003D01*
X-43579Y93087D01*
X-43600Y93172D01*
X-43618Y93257D01*
X-43631Y93344D01*
X-43641Y93430D01*
X-43647Y93518D01*
X-43649Y93605D01*
X-43650Y93605D02*
X-43650Y97500D01*
X-43649Y97500D02*
X-43647Y97587D01*
X-43641Y97675D01*
X-43631Y97761D01*
X-43618Y97848D01*
X-43600Y97933D01*
X-43579Y98018D01*
X-43554Y98102D01*
X-43525Y98184D01*
X-43492Y98265D01*
X-43456Y98345D01*
X-43417Y98423D01*
X-43373Y98499D01*
X-43327Y98573D01*
X-43277Y98644D01*
X-43224Y98714D01*
X-43168Y98781D01*
X-43109Y98845D01*
X-43047Y98907D01*
X-42983Y98966D01*
X-42916Y99022D01*
X-42846Y99075D01*
X-42775Y99125D01*
X-42701Y99171D01*
X-42625Y99215D01*
X-42547Y99254D01*
X-42467Y99290D01*
X-42386Y99323D01*
X-42304Y99352D01*
X-42220Y99377D01*
X-42135Y99398D01*
X-42050Y99416D01*
X-41963Y99429D01*
X-41877Y99439D01*
X-41789Y99445D01*
X-41702Y99447D01*
X-38457Y99447D01*
X-31357Y91658D02*
X-28111Y91658D01*
X-31357Y91658D02*
X-31444Y91660D01*
X-31532Y91666D01*
X-31618Y91676D01*
X-31705Y91689D01*
X-31790Y91707D01*
X-31875Y91728D01*
X-31959Y91753D01*
X-32041Y91782D01*
X-32122Y91815D01*
X-32202Y91851D01*
X-32280Y91890D01*
X-32356Y91934D01*
X-32430Y91980D01*
X-32501Y92030D01*
X-32571Y92083D01*
X-32638Y92139D01*
X-32702Y92198D01*
X-32764Y92260D01*
X-32823Y92324D01*
X-32879Y92391D01*
X-32932Y92461D01*
X-32982Y92532D01*
X-33028Y92606D01*
X-33072Y92682D01*
X-33111Y92760D01*
X-33147Y92840D01*
X-33180Y92921D01*
X-33209Y93003D01*
X-33234Y93087D01*
X-33255Y93172D01*
X-33273Y93257D01*
X-33286Y93344D01*
X-33296Y93430D01*
X-33302Y93518D01*
X-33304Y93605D01*
X-33304Y96851D01*
X-33303Y96851D02*
X-33301Y96952D01*
X-33295Y97052D01*
X-33285Y97152D01*
X-33272Y97252D01*
X-33254Y97351D01*
X-33233Y97450D01*
X-33208Y97547D01*
X-33179Y97644D01*
X-33146Y97739D01*
X-33110Y97833D01*
X-33070Y97925D01*
X-33027Y98016D01*
X-32980Y98105D01*
X-32930Y98192D01*
X-32876Y98278D01*
X-32819Y98361D01*
X-32759Y98441D01*
X-32696Y98520D01*
X-32629Y98596D01*
X-32560Y98669D01*
X-32488Y98739D01*
X-32414Y98807D01*
X-32337Y98872D01*
X-32257Y98933D01*
X-32175Y98992D01*
X-32091Y99047D01*
X-32005Y99099D01*
X-31917Y99148D01*
X-31827Y99193D01*
X-31735Y99235D01*
X-31642Y99273D01*
X-31547Y99307D01*
X-31452Y99338D01*
X-31355Y99365D01*
X-31257Y99388D01*
X-31158Y99408D01*
X-31058Y99423D01*
X-30958Y99435D01*
X-30858Y99443D01*
X-30757Y99447D01*
X-30657Y99447D01*
X-30556Y99443D01*
X-30456Y99435D01*
X-30356Y99423D01*
X-30256Y99408D01*
X-30157Y99388D01*
X-30059Y99365D01*
X-29962Y99338D01*
X-29867Y99307D01*
X-29772Y99273D01*
X-29679Y99235D01*
X-29587Y99193D01*
X-29497Y99148D01*
X-29409Y99099D01*
X-29323Y99047D01*
X-29239Y98992D01*
X-29157Y98933D01*
X-29077Y98872D01*
X-29000Y98807D01*
X-28926Y98739D01*
X-28854Y98669D01*
X-28785Y98596D01*
X-28718Y98520D01*
X-28655Y98441D01*
X-28595Y98361D01*
X-28538Y98278D01*
X-28484Y98192D01*
X-28434Y98105D01*
X-28387Y98016D01*
X-28344Y97925D01*
X-28304Y97833D01*
X-28268Y97739D01*
X-28235Y97644D01*
X-28206Y97547D01*
X-28181Y97450D01*
X-28160Y97351D01*
X-28142Y97252D01*
X-28129Y97152D01*
X-28119Y97052D01*
X-28113Y96952D01*
X-28111Y96851D01*
X-28111Y95553D01*
X-33304Y95553D01*
D14*
X-92611Y105635D03*
X-70513Y105635D03*
D15*
X-55654Y105635D03*
D14*
X-40668Y105635D03*
D16*
X-92611Y105762D03*
X-70513Y105762D03*
D17*
X-55654Y105762D03*
D16*
X-40668Y105762D03*
D18*
X-92674Y105889D03*
X-70576Y105889D03*
D14*
X-55654Y105889D03*
D19*
X-40668Y105889D03*
D20*
X-92674Y106016D03*
X-70576Y106016D03*
D21*
X-55654Y106016D03*
D22*
X-40668Y106016D03*
D23*
X-92674Y106143D03*
X-70576Y106143D03*
D24*
X-55654Y106143D03*
D25*
X-40668Y106143D03*
D26*
X-92611Y106270D03*
X-70640Y106270D03*
D16*
X-55654Y106270D03*
D26*
X-40668Y106270D03*
X-92611Y106397D03*
D27*
X-70640Y106397D03*
D19*
X-55654Y106397D03*
D26*
X-40668Y106397D03*
D28*
X-92674Y106524D03*
D29*
X-70703Y106524D03*
D19*
X-55654Y106524D03*
D26*
X-40668Y106524D03*
D27*
X-92611Y106651D03*
D30*
X-70767Y106651D03*
D18*
X-55590Y106651D03*
D27*
X-40668Y106651D03*
X-92611Y106778D03*
D31*
X-70703Y106778D03*
D22*
X-55654Y106778D03*
D27*
X-40668Y106778D03*
D29*
X-92674Y106905D03*
D32*
X-70767Y106905D03*
D22*
X-55654Y106905D03*
D27*
X-40668Y106905D03*
D29*
X-92674Y107032D03*
D33*
X-70830Y107032D03*
D25*
X-55654Y107032D03*
D27*
X-40668Y107032D03*
D29*
X-92674Y107159D03*
D33*
X-70830Y107159D03*
D25*
X-55654Y107159D03*
D27*
X-40668Y107159D03*
D29*
X-92674Y107286D03*
D34*
X-70894Y107286D03*
D23*
X-55590Y107286D03*
D27*
X-40668Y107286D03*
D29*
X-92674Y107413D03*
D35*
X-70957Y107413D03*
D26*
X-55654Y107413D03*
D27*
X-40668Y107413D03*
D36*
X-95913Y107540D03*
D37*
X-89372Y107540D03*
D35*
X-70957Y107540D03*
D38*
X-58575Y107540D03*
X-52733Y107540D03*
D37*
X-43906Y107540D03*
X-37429Y107540D03*
D36*
X-95913Y107667D03*
D37*
X-89372Y107667D03*
D39*
X-74386Y107667D03*
D21*
X-69624Y107667D03*
D40*
X-58638Y107667D03*
X-52669Y107667D03*
D37*
X-43906Y107667D03*
X-37429Y107667D03*
D36*
X-95913Y107794D03*
D37*
X-89372Y107794D03*
D39*
X-74386Y107794D03*
D21*
X-69624Y107794D03*
D38*
X-58702Y107794D03*
X-52606Y107794D03*
D37*
X-43906Y107794D03*
X-37429Y107794D03*
D36*
X-95913Y107921D03*
D37*
X-89372Y107921D03*
D39*
X-74513Y107921D03*
D21*
X-69624Y107921D03*
D40*
X-58765Y107921D03*
X-52542Y107921D03*
D37*
X-43906Y107921D03*
X-37429Y107921D03*
D36*
X-95913Y108048D03*
D37*
X-89372Y108048D03*
D41*
X-74577Y108048D03*
D21*
X-69624Y108048D03*
D40*
X-58765Y108048D03*
D38*
X-52479Y108048D03*
D37*
X-43906Y108048D03*
X-37429Y108048D03*
D36*
X-95913Y108175D03*
D37*
X-89372Y108175D03*
D39*
X-74640Y108175D03*
D21*
X-69624Y108175D03*
D38*
X-58829Y108175D03*
X-52479Y108175D03*
D37*
X-43906Y108175D03*
X-37429Y108175D03*
D36*
X-95913Y108302D03*
D37*
X-89372Y108302D03*
D39*
X-74767Y108302D03*
D21*
X-69624Y108302D03*
D40*
X-58892Y108302D03*
X-52415Y108302D03*
D37*
X-43906Y108302D03*
X-37429Y108302D03*
D36*
X-95913Y108429D03*
D37*
X-89372Y108429D03*
D41*
X-74831Y108429D03*
D21*
X-69624Y108429D03*
D38*
X-58956Y108429D03*
X-52352Y108429D03*
D37*
X-43906Y108429D03*
X-37429Y108429D03*
D36*
X-95913Y108556D03*
D37*
X-89372Y108556D03*
D39*
X-74894Y108556D03*
D21*
X-69624Y108556D03*
D40*
X-59019Y108556D03*
X-52288Y108556D03*
D37*
X-43906Y108556D03*
X-37429Y108556D03*
D36*
X-95913Y108683D03*
D37*
X-89372Y108683D03*
D39*
X-75021Y108683D03*
D21*
X-69624Y108683D03*
D40*
X-59019Y108683D03*
D38*
X-52225Y108683D03*
D37*
X-43906Y108683D03*
X-37429Y108683D03*
D36*
X-95913Y108810D03*
D37*
X-89372Y108810D03*
D41*
X-75085Y108810D03*
D21*
X-69624Y108810D03*
D38*
X-59083Y108810D03*
X-52225Y108810D03*
D37*
X-43906Y108810D03*
X-37429Y108810D03*
D36*
X-95913Y108937D03*
D37*
X-89372Y108937D03*
D39*
X-75148Y108937D03*
D21*
X-69624Y108937D03*
D40*
X-59146Y108937D03*
X-52161Y108937D03*
D37*
X-43906Y108937D03*
X-37429Y108937D03*
D36*
X-95913Y109064D03*
D37*
X-89372Y109064D03*
D39*
X-75275Y109064D03*
D21*
X-69624Y109064D03*
D38*
X-59210Y109064D03*
X-52098Y109064D03*
D37*
X-43906Y109064D03*
X-37429Y109064D03*
D36*
X-95913Y109191D03*
D37*
X-89372Y109191D03*
D41*
X-75339Y109191D03*
D21*
X-69624Y109191D03*
D40*
X-59273Y109191D03*
X-52034Y109191D03*
D37*
X-43906Y109191D03*
X-37429Y109191D03*
D36*
X-95913Y109318D03*
D37*
X-89372Y109318D03*
D39*
X-75402Y109318D03*
D21*
X-69624Y109318D03*
D40*
X-59273Y109318D03*
D38*
X-51971Y109318D03*
D37*
X-43906Y109318D03*
X-37429Y109318D03*
D36*
X-95913Y109445D03*
D37*
X-89372Y109445D03*
D39*
X-75529Y109445D03*
D21*
X-69624Y109445D03*
D38*
X-59337Y109445D03*
D40*
X-51907Y109445D03*
D37*
X-43906Y109445D03*
X-37429Y109445D03*
D36*
X-95913Y109572D03*
D37*
X-89372Y109572D03*
D41*
X-75593Y109572D03*
D21*
X-69624Y109572D03*
D40*
X-59400Y109572D03*
X-51907Y109572D03*
D37*
X-43906Y109572D03*
X-37429Y109572D03*
D36*
X-95913Y109699D03*
D37*
X-89372Y109699D03*
D39*
X-75656Y109699D03*
D21*
X-69624Y109699D03*
D38*
X-59464Y109699D03*
X-51844Y109699D03*
D37*
X-43906Y109699D03*
X-37429Y109699D03*
D36*
X-95913Y109826D03*
D37*
X-89372Y109826D03*
D39*
X-75783Y109826D03*
D21*
X-69624Y109826D03*
D40*
X-59527Y109826D03*
X-51780Y109826D03*
D37*
X-43906Y109826D03*
X-37429Y109826D03*
D36*
X-95913Y109953D03*
D37*
X-89372Y109953D03*
D41*
X-75847Y109953D03*
D21*
X-69624Y109953D03*
D40*
X-59527Y109953D03*
D38*
X-51717Y109953D03*
D37*
X-43906Y109953D03*
X-37429Y109953D03*
D36*
X-95913Y110080D03*
D37*
X-89372Y110080D03*
D39*
X-75910Y110080D03*
D21*
X-69624Y110080D03*
D38*
X-59591Y110080D03*
D40*
X-51653Y110080D03*
D37*
X-43906Y110080D03*
X-37429Y110080D03*
D36*
X-95913Y110207D03*
D37*
X-89372Y110207D03*
D39*
X-76037Y110207D03*
D21*
X-69624Y110207D03*
D40*
X-59654Y110207D03*
X-51653Y110207D03*
D37*
X-43906Y110207D03*
X-37429Y110207D03*
D36*
X-95913Y110334D03*
D37*
X-89372Y110334D03*
D41*
X-76101Y110334D03*
D21*
X-69624Y110334D03*
D38*
X-59718Y110334D03*
X-51590Y110334D03*
D37*
X-43906Y110334D03*
X-37429Y110334D03*
D36*
X-95913Y110461D03*
D37*
X-89372Y110461D03*
D39*
X-76164Y110461D03*
D21*
X-69624Y110461D03*
D40*
X-59781Y110461D03*
X-51526Y110461D03*
D37*
X-43906Y110461D03*
X-37429Y110461D03*
D36*
X-95913Y110588D03*
D37*
X-89372Y110588D03*
D39*
X-76291Y110588D03*
D21*
X-69624Y110588D03*
D38*
X-59845Y110588D03*
X-51463Y110588D03*
D37*
X-43906Y110588D03*
X-37429Y110588D03*
D36*
X-95913Y110715D03*
D37*
X-89372Y110715D03*
D41*
X-76355Y110715D03*
D21*
X-69624Y110715D03*
D38*
X-59845Y110715D03*
D40*
X-51399Y110715D03*
D37*
X-43906Y110715D03*
X-37429Y110715D03*
D36*
X-95913Y110842D03*
D37*
X-89372Y110842D03*
D39*
X-76418Y110842D03*
D21*
X-69624Y110842D03*
D40*
X-59908Y110842D03*
X-51399Y110842D03*
D37*
X-43906Y110842D03*
X-37429Y110842D03*
D36*
X-95913Y110969D03*
D37*
X-89372Y110969D03*
D39*
X-76545Y110969D03*
D21*
X-69624Y110969D03*
D38*
X-59972Y110969D03*
X-51336Y110969D03*
D37*
X-43906Y110969D03*
X-37429Y110969D03*
D36*
X-95913Y111096D03*
D37*
X-89372Y111096D03*
D41*
X-76609Y111096D03*
D21*
X-69624Y111096D03*
D40*
X-60035Y111096D03*
X-51272Y111096D03*
D37*
X-43906Y111096D03*
X-37429Y111096D03*
D36*
X-95913Y111223D03*
D37*
X-89372Y111223D03*
D39*
X-76672Y111223D03*
D21*
X-69624Y111223D03*
D38*
X-60099Y111223D03*
X-51209Y111223D03*
D37*
X-43906Y111223D03*
X-37429Y111223D03*
D36*
X-95913Y111350D03*
D37*
X-89372Y111350D03*
D41*
X-76736Y111350D03*
D21*
X-69624Y111350D03*
D38*
X-60099Y111350D03*
D40*
X-51145Y111350D03*
D37*
X-43906Y111350D03*
X-37429Y111350D03*
D36*
X-95913Y111477D03*
D37*
X-89372Y111477D03*
D39*
X-76799Y111477D03*
D21*
X-69624Y111477D03*
D40*
X-60162Y111477D03*
X-51145Y111477D03*
D37*
X-43906Y111477D03*
X-37429Y111477D03*
D36*
X-95913Y111604D03*
D37*
X-89372Y111604D03*
D39*
X-76926Y111604D03*
D21*
X-69624Y111604D03*
D38*
X-60226Y111604D03*
X-51082Y111604D03*
D37*
X-43906Y111604D03*
X-37429Y111604D03*
D36*
X-95913Y111731D03*
D37*
X-89372Y111731D03*
D41*
X-76990Y111731D03*
D21*
X-69624Y111731D03*
D40*
X-60289Y111731D03*
X-51018Y111731D03*
D37*
X-43906Y111731D03*
X-37429Y111731D03*
D36*
X-95913Y111858D03*
D37*
X-89372Y111858D03*
D39*
X-77053Y111858D03*
D21*
X-69624Y111858D03*
D38*
X-60353Y111858D03*
X-50955Y111858D03*
D37*
X-43906Y111858D03*
X-37429Y111858D03*
D36*
X-95913Y111985D03*
D37*
X-89372Y111985D03*
D39*
X-77180Y111985D03*
D21*
X-69624Y111985D03*
D40*
X-60416Y111985D03*
X-50891Y111985D03*
D37*
X-43906Y111985D03*
X-37429Y111985D03*
D36*
X-95913Y112112D03*
D37*
X-89372Y112112D03*
D41*
X-77244Y112112D03*
D21*
X-69624Y112112D03*
D40*
X-60416Y112112D03*
D38*
X-50828Y112112D03*
D37*
X-43906Y112112D03*
X-37429Y112112D03*
D36*
X-95913Y112239D03*
D37*
X-89372Y112239D03*
D39*
X-77307Y112239D03*
D21*
X-69624Y112239D03*
D38*
X-60480Y112239D03*
X-50828Y112239D03*
D37*
X-43906Y112239D03*
X-37429Y112239D03*
D36*
X-95913Y112366D03*
D37*
X-89372Y112366D03*
D39*
X-77434Y112366D03*
D21*
X-69624Y112366D03*
D40*
X-60543Y112366D03*
X-50764Y112366D03*
D37*
X-43906Y112366D03*
X-37429Y112366D03*
D36*
X-95913Y112493D03*
D37*
X-89372Y112493D03*
D41*
X-77498Y112493D03*
D21*
X-69624Y112493D03*
D38*
X-60607Y112493D03*
X-50701Y112493D03*
D37*
X-43906Y112493D03*
X-37429Y112493D03*
D36*
X-95913Y112620D03*
D37*
X-89372Y112620D03*
D39*
X-77561Y112620D03*
D21*
X-69624Y112620D03*
D40*
X-60670Y112620D03*
X-50637Y112620D03*
D37*
X-43906Y112620D03*
X-37429Y112620D03*
D36*
X-95913Y112747D03*
D37*
X-89372Y112747D03*
D39*
X-77688Y112747D03*
D21*
X-69624Y112747D03*
D40*
X-60670Y112747D03*
D38*
X-50574Y112747D03*
D37*
X-43906Y112747D03*
X-37429Y112747D03*
D36*
X-95913Y112874D03*
D37*
X-89372Y112874D03*
D41*
X-77752Y112874D03*
D21*
X-69624Y112874D03*
D38*
X-60734Y112874D03*
X-50574Y112874D03*
D37*
X-43906Y112874D03*
X-37429Y112874D03*
D36*
X-95913Y113001D03*
D37*
X-89372Y113001D03*
D39*
X-77815Y113001D03*
D21*
X-69624Y113001D03*
D40*
X-60797Y113001D03*
X-50510Y113001D03*
D37*
X-43906Y113001D03*
X-37429Y113001D03*
D36*
X-95913Y113128D03*
D37*
X-89372Y113128D03*
D39*
X-77942Y113128D03*
D21*
X-69624Y113128D03*
D38*
X-60861Y113128D03*
X-50447Y113128D03*
D37*
X-43906Y113128D03*
X-37429Y113128D03*
D36*
X-95913Y113255D03*
D37*
X-89372Y113255D03*
D41*
X-78006Y113255D03*
D21*
X-69624Y113255D03*
D40*
X-60924Y113255D03*
X-50383Y113255D03*
D37*
X-43906Y113255D03*
X-37429Y113255D03*
D36*
X-95913Y113382D03*
D37*
X-89372Y113382D03*
D39*
X-78069Y113382D03*
D21*
X-69624Y113382D03*
D40*
X-60924Y113382D03*
D38*
X-50320Y113382D03*
D37*
X-43906Y113382D03*
X-37429Y113382D03*
D36*
X-95913Y113509D03*
D37*
X-89372Y113509D03*
D39*
X-78196Y113509D03*
D21*
X-69624Y113509D03*
D38*
X-60988Y113509D03*
X-50320Y113509D03*
D37*
X-43906Y113509D03*
X-37429Y113509D03*
D36*
X-95913Y113636D03*
D37*
X-89372Y113636D03*
D41*
X-78260Y113636D03*
D21*
X-69624Y113636D03*
D40*
X-61051Y113636D03*
X-50256Y113636D03*
D37*
X-43906Y113636D03*
X-37429Y113636D03*
D36*
X-95913Y113763D03*
D37*
X-89372Y113763D03*
D39*
X-78323Y113763D03*
D21*
X-69624Y113763D03*
D38*
X-61115Y113763D03*
X-50193Y113763D03*
D37*
X-43906Y113763D03*
X-37429Y113763D03*
D36*
X-95913Y113890D03*
D37*
X-89372Y113890D03*
D39*
X-78450Y113890D03*
D21*
X-69624Y113890D03*
D40*
X-61178Y113890D03*
X-50129Y113890D03*
D37*
X-43906Y113890D03*
X-37429Y113890D03*
D36*
X-95913Y114017D03*
D37*
X-89372Y114017D03*
D41*
X-78514Y114017D03*
D21*
X-69624Y114017D03*
D38*
X-61242Y114017D03*
D42*
X-55590Y114017D03*
D38*
X-50066Y114017D03*
D37*
X-43906Y114017D03*
X-37429Y114017D03*
D36*
X-95913Y114144D03*
D37*
X-89372Y114144D03*
D39*
X-78577Y114144D03*
D21*
X-69624Y114144D03*
D38*
X-61242Y114144D03*
D43*
X-55654Y114144D03*
D40*
X-50002Y114144D03*
D37*
X-43906Y114144D03*
X-37429Y114144D03*
D36*
X-95913Y114271D03*
D37*
X-89372Y114271D03*
D39*
X-78704Y114271D03*
D21*
X-69624Y114271D03*
D40*
X-61305Y114271D03*
D43*
X-55654Y114271D03*
D40*
X-50002Y114271D03*
D37*
X-43906Y114271D03*
X-37429Y114271D03*
D36*
X-95913Y114398D03*
D37*
X-89372Y114398D03*
D41*
X-78768Y114398D03*
D21*
X-69624Y114398D03*
D38*
X-61369Y114398D03*
D44*
X-55590Y114398D03*
D38*
X-49939Y114398D03*
D37*
X-43906Y114398D03*
X-37429Y114398D03*
D36*
X-95913Y114525D03*
D37*
X-89372Y114525D03*
D39*
X-78831Y114525D03*
D21*
X-69624Y114525D03*
D40*
X-61432Y114525D03*
D45*
X-55654Y114525D03*
D40*
X-49875Y114525D03*
D37*
X-43906Y114525D03*
X-37429Y114525D03*
D36*
X-95913Y114652D03*
D37*
X-89372Y114652D03*
D39*
X-78958Y114652D03*
D21*
X-69624Y114652D03*
D38*
X-61496Y114652D03*
D46*
X-55590Y114652D03*
D38*
X-49812Y114652D03*
D37*
X-43906Y114652D03*
X-37429Y114652D03*
D36*
X-95913Y114779D03*
D37*
X-89372Y114779D03*
D41*
X-79022Y114779D03*
D21*
X-69624Y114779D03*
D38*
X-61496Y114779D03*
D47*
X-55654Y114779D03*
D40*
X-49748Y114779D03*
D37*
X-43906Y114779D03*
X-37429Y114779D03*
D36*
X-95913Y114906D03*
D37*
X-89372Y114906D03*
D39*
X-79085Y114906D03*
D21*
X-69624Y114906D03*
D40*
X-61559Y114906D03*
D47*
X-55654Y114906D03*
D40*
X-49748Y114906D03*
D37*
X-43906Y114906D03*
X-37429Y114906D03*
D36*
X-95913Y115033D03*
D37*
X-89372Y115033D03*
D41*
X-79149Y115033D03*
D21*
X-69624Y115033D03*
D38*
X-61623Y115033D03*
D48*
X-55590Y115033D03*
D38*
X-49685Y115033D03*
D37*
X-43906Y115033D03*
X-37429Y115033D03*
D36*
X-95913Y115160D03*
D37*
X-89372Y115160D03*
D39*
X-79212Y115160D03*
D21*
X-69624Y115160D03*
D40*
X-61686Y115160D03*
D49*
X-55654Y115160D03*
D40*
X-49621Y115160D03*
D37*
X-43906Y115160D03*
X-37429Y115160D03*
D36*
X-95913Y115287D03*
D37*
X-89372Y115287D03*
D39*
X-79339Y115287D03*
D21*
X-69624Y115287D03*
D38*
X-61750Y115287D03*
D50*
X-55590Y115287D03*
D38*
X-49558Y115287D03*
D37*
X-43906Y115287D03*
X-37429Y115287D03*
D36*
X-95913Y115414D03*
D37*
X-89372Y115414D03*
D41*
X-79403Y115414D03*
D21*
X-69624Y115414D03*
D40*
X-61813Y115414D03*
D51*
X-55654Y115414D03*
D40*
X-49494Y115414D03*
D37*
X-43906Y115414D03*
X-37429Y115414D03*
D36*
X-95913Y115541D03*
D37*
X-89372Y115541D03*
D39*
X-79466Y115541D03*
D21*
X-69624Y115541D03*
D40*
X-61813Y115541D03*
D52*
X-55590Y115541D03*
D40*
X-49494Y115541D03*
D37*
X-43906Y115541D03*
X-37429Y115541D03*
D36*
X-95913Y115668D03*
D37*
X-89372Y115668D03*
D39*
X-79593Y115668D03*
D53*
X-69687Y115668D03*
D38*
X-61877Y115668D03*
D54*
X-55654Y115668D03*
D38*
X-49431Y115668D03*
D37*
X-43906Y115668D03*
X-37429Y115668D03*
D36*
X-95913Y115795D03*
D37*
X-89372Y115795D03*
D41*
X-79657Y115795D03*
D24*
X-69751Y115795D03*
D40*
X-61940Y115795D03*
D54*
X-55654Y115795D03*
D40*
X-49367Y115795D03*
D37*
X-43906Y115795D03*
X-37429Y115795D03*
D36*
X-95913Y115922D03*
D37*
X-89372Y115922D03*
D39*
X-79720Y115922D03*
D24*
X-69751Y115922D03*
D38*
X-62004Y115922D03*
D55*
X-55590Y115922D03*
D38*
X-49304Y115922D03*
D37*
X-43906Y115922D03*
X-37429Y115922D03*
D36*
X-95913Y116049D03*
D37*
X-89372Y116049D03*
D39*
X-79847Y116049D03*
D56*
X-69814Y116049D03*
D40*
X-62067Y116049D03*
D57*
X-55654Y116049D03*
D40*
X-49240Y116049D03*
D37*
X-43906Y116049D03*
X-37429Y116049D03*
D36*
X-95913Y116176D03*
D37*
X-89372Y116176D03*
D41*
X-79911Y116176D03*
D16*
X-69878Y116176D03*
D40*
X-62067Y116176D03*
D37*
X-55590Y116176D03*
D40*
X-49240Y116176D03*
D37*
X-43906Y116176D03*
X-37429Y116176D03*
D36*
X-95913Y116303D03*
D37*
X-89372Y116303D03*
D39*
X-79974Y116303D03*
D16*
X-69878Y116303D03*
D38*
X-62131Y116303D03*
D36*
X-55654Y116303D03*
D38*
X-49177Y116303D03*
D37*
X-43906Y116303D03*
X-37429Y116303D03*
D36*
X-95913Y116430D03*
D37*
X-89372Y116430D03*
D39*
X-80101Y116430D03*
D58*
X-69941Y116430D03*
D40*
X-62194Y116430D03*
D36*
X-55654Y116430D03*
D40*
X-49113Y116430D03*
D37*
X-43906Y116430D03*
X-37429Y116430D03*
D36*
X-95913Y116557D03*
D37*
X-89372Y116557D03*
D41*
X-80165Y116557D03*
D19*
X-70005Y116557D03*
D38*
X-62258Y116557D03*
D59*
X-55590Y116557D03*
D38*
X-49050Y116557D03*
D37*
X-43906Y116557D03*
X-37429Y116557D03*
D36*
X-95913Y116684D03*
D37*
X-89372Y116684D03*
D39*
X-80228Y116684D03*
D19*
X-70005Y116684D03*
D40*
X-62321Y116684D03*
D38*
X-55654Y116684D03*
D40*
X-48986Y116684D03*
D37*
X-43906Y116684D03*
X-37429Y116684D03*
D36*
X-95913Y116811D03*
D37*
X-89372Y116811D03*
D39*
X-80355Y116811D03*
D18*
X-70068Y116811D03*
D40*
X-62321Y116811D03*
X-55590Y116811D03*
D38*
X-48923Y116811D03*
D37*
X-43906Y116811D03*
X-37429Y116811D03*
D36*
X-95913Y116938D03*
D37*
X-89372Y116938D03*
D41*
X-80419Y116938D03*
D22*
X-70132Y116938D03*
D38*
X-62385Y116938D03*
D60*
X-55654Y116938D03*
D38*
X-48923Y116938D03*
D37*
X-43906Y116938D03*
X-37429Y116938D03*
D36*
X-95913Y117065D03*
D37*
X-89372Y117065D03*
D39*
X-80482Y117065D03*
D22*
X-70132Y117065D03*
D40*
X-62448Y117065D03*
D60*
X-55654Y117065D03*
D40*
X-48859Y117065D03*
D37*
X-43906Y117065D03*
X-37429Y117065D03*
D36*
X-95913Y117192D03*
D37*
X-89372Y117192D03*
D39*
X-80609Y117192D03*
D20*
X-70195Y117192D03*
D38*
X-62512Y117192D03*
D39*
X-55590Y117192D03*
D38*
X-48796Y117192D03*
D37*
X-43906Y117192D03*
X-37429Y117192D03*
D36*
X-95913Y117319D03*
D37*
X-89372Y117319D03*
D41*
X-80673Y117319D03*
D25*
X-70259Y117319D03*
D40*
X-62575Y117319D03*
D41*
X-55654Y117319D03*
D40*
X-48732Y117319D03*
D37*
X-43906Y117319D03*
X-37429Y117319D03*
D36*
X-95913Y117446D03*
D37*
X-89372Y117446D03*
D39*
X-80736Y117446D03*
D25*
X-70259Y117446D03*
D38*
X-62639Y117446D03*
D61*
X-55590Y117446D03*
D38*
X-48669Y117446D03*
D37*
X-43906Y117446D03*
X-37429Y117446D03*
D36*
X-95913Y117573D03*
D37*
X-89372Y117573D03*
D39*
X-80863Y117573D03*
D23*
X-70322Y117573D03*
D38*
X-62639Y117573D03*
D62*
X-55654Y117573D03*
D38*
X-48669Y117573D03*
D37*
X-43906Y117573D03*
X-37429Y117573D03*
D36*
X-95913Y117700D03*
D37*
X-89372Y117700D03*
D41*
X-80927Y117700D03*
D26*
X-70386Y117700D03*
D40*
X-62702Y117700D03*
D62*
X-55654Y117700D03*
D40*
X-48605Y117700D03*
D37*
X-43906Y117700D03*
X-37429Y117700D03*
D36*
X-95913Y117827D03*
D37*
X-89372Y117827D03*
D39*
X-80990Y117827D03*
D26*
X-70386Y117827D03*
D38*
X-62766Y117827D03*
D63*
X-55590Y117827D03*
D38*
X-48542Y117827D03*
D37*
X-43906Y117827D03*
X-37429Y117827D03*
D36*
X-95913Y117954D03*
D37*
X-89372Y117954D03*
D39*
X-81117Y117954D03*
D28*
X-70449Y117954D03*
D40*
X-62829Y117954D03*
D64*
X-55654Y117954D03*
D40*
X-48478Y117954D03*
D37*
X-43906Y117954D03*
X-37429Y117954D03*
D36*
X-95913Y118081D03*
D37*
X-89372Y118081D03*
D41*
X-81181Y118081D03*
D28*
X-70449Y118081D03*
D38*
X-62893Y118081D03*
D65*
X-55590Y118081D03*
D38*
X-48415Y118081D03*
D37*
X-43906Y118081D03*
X-37429Y118081D03*
D36*
X-95913Y118208D03*
D37*
X-89372Y118208D03*
D39*
X-81244Y118208D03*
D27*
X-70513Y118208D03*
D38*
X-62893Y118208D03*
D66*
X-55654Y118208D03*
D38*
X-48415Y118208D03*
D37*
X-43906Y118208D03*
X-37429Y118208D03*
D36*
X-95913Y118335D03*
D37*
X-89372Y118335D03*
D39*
X-81371Y118335D03*
D29*
X-70576Y118335D03*
D40*
X-62956Y118335D03*
D66*
X-55654Y118335D03*
D40*
X-48351Y118335D03*
D37*
X-43906Y118335D03*
X-37429Y118335D03*
D36*
X-95913Y118462D03*
D37*
X-89372Y118462D03*
D39*
X-81371Y118462D03*
D29*
X-70576Y118462D03*
D38*
X-63020Y118462D03*
D67*
X-55590Y118462D03*
D38*
X-48288Y118462D03*
D37*
X-43906Y118462D03*
X-37429Y118462D03*
D36*
X-95913Y118589D03*
D37*
X-89372Y118589D03*
D39*
X-81498Y118589D03*
D30*
X-70640Y118589D03*
D40*
X-63083Y118589D03*
D68*
X-55654Y118589D03*
D40*
X-48224Y118589D03*
D37*
X-43906Y118589D03*
X-37429Y118589D03*
D36*
X-95913Y118716D03*
D37*
X-89372Y118716D03*
D41*
X-81562Y118716D03*
D31*
X-70703Y118716D03*
D38*
X-63147Y118716D03*
D69*
X-55590Y118716D03*
D38*
X-48161Y118716D03*
D37*
X-43906Y118716D03*
X-37429Y118716D03*
D36*
X-95913Y118843D03*
D37*
X-89372Y118843D03*
D39*
X-81625Y118843D03*
D31*
X-70703Y118843D03*
D38*
X-63147Y118843D03*
D70*
X-55654Y118843D03*
D38*
X-48161Y118843D03*
D37*
X-43906Y118843D03*
X-37429Y118843D03*
D36*
X-95913Y118970D03*
D37*
X-89372Y118970D03*
D39*
X-81752Y118970D03*
D32*
X-70767Y118970D03*
D40*
X-63210Y118970D03*
D70*
X-55654Y118970D03*
D40*
X-48097Y118970D03*
D37*
X-43906Y118970D03*
X-37429Y118970D03*
D36*
X-95913Y119097D03*
D37*
X-89372Y119097D03*
D41*
X-81816Y119097D03*
D33*
X-70830Y119097D03*
D38*
X-63274Y119097D03*
D71*
X-55590Y119097D03*
D38*
X-48034Y119097D03*
D37*
X-43906Y119097D03*
X-37429Y119097D03*
D36*
X-95913Y119224D03*
D37*
X-89372Y119224D03*
D39*
X-81879Y119224D03*
D33*
X-70830Y119224D03*
D40*
X-63337Y119224D03*
D72*
X-55654Y119224D03*
D40*
X-47970Y119224D03*
D37*
X-43906Y119224D03*
X-37429Y119224D03*
D36*
X-95913Y119351D03*
D37*
X-89372Y119351D03*
D39*
X-82006Y119351D03*
D34*
X-70894Y119351D03*
D38*
X-63401Y119351D03*
D73*
X-55590Y119351D03*
D38*
X-47907Y119351D03*
D37*
X-43906Y119351D03*
X-37429Y119351D03*
D36*
X-95913Y119478D03*
D37*
X-89372Y119478D03*
D41*
X-82070Y119478D03*
D35*
X-70957Y119478D03*
D40*
X-63464Y119478D03*
D74*
X-55654Y119478D03*
D40*
X-47843Y119478D03*
D37*
X-43906Y119478D03*
X-37429Y119478D03*
D36*
X-95913Y119605D03*
D37*
X-89372Y119605D03*
D39*
X-82133Y119605D03*
D35*
X-70957Y119605D03*
D40*
X-63464Y119605D03*
D74*
X-55654Y119605D03*
D40*
X-47843Y119605D03*
D37*
X-43906Y119605D03*
X-37429Y119605D03*
D36*
X-95913Y119732D03*
D37*
X-89372Y119732D03*
D39*
X-82260Y119732D03*
D75*
X-71021Y119732D03*
D38*
X-63528Y119732D03*
D76*
X-55590Y119732D03*
D38*
X-47780Y119732D03*
D37*
X-43906Y119732D03*
X-37429Y119732D03*
D36*
X-95913Y119859D03*
D37*
X-89372Y119859D03*
D41*
X-82324Y119859D03*
D77*
X-71084Y119859D03*
D40*
X-63591Y119859D03*
X-56860Y119859D03*
D38*
X-54384Y119859D03*
D40*
X-47716Y119859D03*
D37*
X-43906Y119859D03*
X-37429Y119859D03*
D36*
X-95913Y119986D03*
D37*
X-89372Y119986D03*
D39*
X-82387Y119986D03*
D77*
X-71084Y119986D03*
D38*
X-63655Y119986D03*
X-56924Y119986D03*
D40*
X-54320Y119986D03*
D38*
X-47653Y119986D03*
D37*
X-43906Y119986D03*
X-37429Y119986D03*
D36*
X-95913Y120113D03*
D37*
X-89372Y120113D03*
D39*
X-82514Y120113D03*
D78*
X-71148Y120113D03*
D40*
X-63718Y120113D03*
X-56987Y120113D03*
D38*
X-54257Y120113D03*
D40*
X-47589Y120113D03*
D37*
X-43906Y120113D03*
X-37429Y120113D03*
D36*
X-95913Y120240D03*
D37*
X-89372Y120240D03*
D41*
X-82578Y120240D03*
D79*
X-71211Y120240D03*
D40*
X-63718Y120240D03*
D38*
X-57051Y120240D03*
X-54257Y120240D03*
X-47526Y120240D03*
D37*
X-43906Y120240D03*
X-37429Y120240D03*
D36*
X-95913Y120367D03*
D37*
X-89372Y120367D03*
D39*
X-82641Y120367D03*
D79*
X-71211Y120367D03*
D38*
X-63782Y120367D03*
X-57051Y120367D03*
D40*
X-54193Y120367D03*
D38*
X-47526Y120367D03*
D37*
X-43906Y120367D03*
X-37429Y120367D03*
D36*
X-95913Y120494D03*
D37*
X-89372Y120494D03*
D39*
X-82768Y120494D03*
D80*
X-71275Y120494D03*
D40*
X-63845Y120494D03*
X-57114Y120494D03*
D38*
X-54130Y120494D03*
D40*
X-47462Y120494D03*
D37*
X-43906Y120494D03*
X-37429Y120494D03*
D36*
X-95913Y120621D03*
D37*
X-89372Y120621D03*
D41*
X-82832Y120621D03*
D81*
X-71338Y120621D03*
D38*
X-63909Y120621D03*
X-57178Y120621D03*
D40*
X-54066Y120621D03*
D38*
X-47399Y120621D03*
D37*
X-43906Y120621D03*
X-37429Y120621D03*
D36*
X-95913Y120748D03*
D37*
X-89372Y120748D03*
D39*
X-82895Y120748D03*
D81*
X-71338Y120748D03*
D40*
X-63972Y120748D03*
X-57241Y120748D03*
D38*
X-54003Y120748D03*
D40*
X-47335Y120748D03*
D37*
X-43906Y120748D03*
X-37429Y120748D03*
D36*
X-95913Y120875D03*
D37*
X-89372Y120875D03*
D39*
X-83022Y120875D03*
D82*
X-71402Y120875D03*
D38*
X-64036Y120875D03*
X-57305Y120875D03*
X-54003Y120875D03*
X-47272Y120875D03*
D37*
X-43906Y120875D03*
X-37429Y120875D03*
D36*
X-95913Y121002D03*
D37*
X-89372Y121002D03*
D41*
X-83086Y121002D03*
D82*
X-71402Y121002D03*
D38*
X-64036Y121002D03*
X-57305Y121002D03*
D40*
X-53939Y121002D03*
D38*
X-47272Y121002D03*
D37*
X-43906Y121002D03*
X-37429Y121002D03*
D36*
X-95913Y121129D03*
D37*
X-89372Y121129D03*
D39*
X-83149Y121129D03*
D83*
X-71465Y121129D03*
D40*
X-64099Y121129D03*
X-57368Y121129D03*
D38*
X-53876Y121129D03*
D40*
X-47208Y121129D03*
D37*
X-43906Y121129D03*
X-37429Y121129D03*
D36*
X-95913Y121256D03*
D37*
X-89372Y121256D03*
D39*
X-83276Y121256D03*
D84*
X-71529Y121256D03*
D38*
X-64163Y121256D03*
X-57432Y121256D03*
D40*
X-53812Y121256D03*
D38*
X-47145Y121256D03*
D37*
X-43906Y121256D03*
X-37429Y121256D03*
D36*
X-95913Y121383D03*
D37*
X-89372Y121383D03*
D41*
X-83340Y121383D03*
D84*
X-71529Y121383D03*
D40*
X-64226Y121383D03*
X-57495Y121383D03*
D38*
X-53749Y121383D03*
D40*
X-47081Y121383D03*
D37*
X-43906Y121383D03*
X-37429Y121383D03*
D36*
X-95913Y121510D03*
D37*
X-89372Y121510D03*
D39*
X-83403Y121510D03*
D85*
X-71592Y121510D03*
D38*
X-64290Y121510D03*
X-57559Y121510D03*
X-53749Y121510D03*
X-47018Y121510D03*
D37*
X-43906Y121510D03*
X-37429Y121510D03*
D36*
X-95913Y121637D03*
D37*
X-89372Y121637D03*
D39*
X-83530Y121637D03*
D86*
X-71656Y121637D03*
D38*
X-64290Y121637D03*
X-57559Y121637D03*
D40*
X-53685Y121637D03*
D38*
X-47018Y121637D03*
D37*
X-43906Y121637D03*
X-37429Y121637D03*
D36*
X-95913Y121764D03*
D37*
X-89372Y121764D03*
D39*
X-83530Y121764D03*
D86*
X-71656Y121764D03*
D40*
X-64353Y121764D03*
X-57622Y121764D03*
D38*
X-53622Y121764D03*
D40*
X-46954Y121764D03*
D36*
X-43843Y121764D03*
D37*
X-37429Y121764D03*
D36*
X-95913Y121891D03*
D37*
X-89372Y121891D03*
D39*
X-83657Y121891D03*
D87*
X-71719Y121891D03*
D38*
X-64417Y121891D03*
X-57686Y121891D03*
D40*
X-53558Y121891D03*
D38*
X-46891Y121891D03*
D36*
X-43843Y121891D03*
D37*
X-37429Y121891D03*
D36*
X-95913Y122018D03*
D37*
X-89372Y122018D03*
D39*
X-83784Y122018D03*
D88*
X-71783Y122018D03*
D40*
X-64480Y122018D03*
X-57749Y122018D03*
D38*
X-53495Y122018D03*
D40*
X-46827Y122018D03*
D36*
X-43843Y122018D03*
D37*
X-37429Y122018D03*
D36*
X-95913Y122145D03*
D37*
X-89372Y122145D03*
D39*
X-83784Y122145D03*
D88*
X-71783Y122145D03*
D38*
X-64544Y122145D03*
X-57813Y122145D03*
X-53495Y122145D03*
X-46764Y122145D03*
D36*
X-43843Y122145D03*
D37*
X-37429Y122145D03*
D36*
X-95913Y122272D03*
D37*
X-89372Y122272D03*
D39*
X-83911Y122272D03*
D89*
X-71846Y122272D03*
D38*
X-64544Y122272D03*
X-57813Y122272D03*
D40*
X-53431Y122272D03*
D38*
X-46764Y122272D03*
D36*
X-43843Y122272D03*
D37*
X-37429Y122272D03*
D36*
X-95913Y122399D03*
D37*
X-89372Y122399D03*
D41*
X-83975Y122399D03*
D90*
X-71910Y122399D03*
D40*
X-64607Y122399D03*
X-57876Y122399D03*
D38*
X-53368Y122399D03*
D40*
X-46700Y122399D03*
D36*
X-43843Y122399D03*
D37*
X-37429Y122399D03*
D36*
X-95913Y122526D03*
D37*
X-89372Y122526D03*
D39*
X-84038Y122526D03*
D90*
X-71910Y122526D03*
D38*
X-64671Y122526D03*
X-57940Y122526D03*
D40*
X-53304Y122526D03*
D38*
X-46637Y122526D03*
D36*
X-43843Y122526D03*
D37*
X-37429Y122526D03*
D36*
X-95913Y122653D03*
D37*
X-89372Y122653D03*
D39*
X-84165Y122653D03*
X-76291Y122653D03*
D29*
X-70576Y122653D03*
D40*
X-64734Y122653D03*
X-58003Y122653D03*
D38*
X-53241Y122653D03*
D40*
X-46573Y122653D03*
D36*
X-43843Y122653D03*
D37*
X-37429Y122653D03*
D36*
X-95913Y122780D03*
D37*
X-89372Y122780D03*
D41*
X-84229Y122780D03*
X-76355Y122780D03*
D29*
X-70576Y122780D03*
D38*
X-64798Y122780D03*
X-58067Y122780D03*
X-53241Y122780D03*
X-46510Y122780D03*
D36*
X-43843Y122780D03*
D37*
X-37429Y122780D03*
D36*
X-95913Y122907D03*
D37*
X-89372Y122907D03*
D39*
X-84292Y122907D03*
X-76418Y122907D03*
D29*
X-70576Y122907D03*
D38*
X-64798Y122907D03*
X-58067Y122907D03*
D40*
X-53177Y122907D03*
D38*
X-46510Y122907D03*
D36*
X-43843Y122907D03*
D37*
X-37429Y122907D03*
D36*
X-95913Y123034D03*
D37*
X-89372Y123034D03*
D39*
X-84419Y123034D03*
X-76545Y123034D03*
D29*
X-70576Y123034D03*
D40*
X-64861Y123034D03*
X-58130Y123034D03*
D38*
X-53114Y123034D03*
D40*
X-46446Y123034D03*
D36*
X-43843Y123034D03*
D37*
X-37429Y123034D03*
D36*
X-95913Y123161D03*
D37*
X-89372Y123161D03*
D41*
X-84483Y123161D03*
X-76609Y123161D03*
D29*
X-70576Y123161D03*
D38*
X-64925Y123161D03*
X-58194Y123161D03*
D40*
X-53050Y123161D03*
D38*
X-46383Y123161D03*
D36*
X-43843Y123161D03*
D37*
X-37429Y123161D03*
D36*
X-95913Y123288D03*
D37*
X-89372Y123288D03*
D39*
X-84546Y123288D03*
X-76672Y123288D03*
D29*
X-70576Y123288D03*
D40*
X-64988Y123288D03*
X-58257Y123288D03*
D38*
X-52987Y123288D03*
D40*
X-46319Y123288D03*
D36*
X-43843Y123288D03*
D37*
X-37429Y123288D03*
D36*
X-95913Y123415D03*
D37*
X-89372Y123415D03*
D39*
X-84673Y123415D03*
X-76799Y123415D03*
D29*
X-70576Y123415D03*
D38*
X-65052Y123415D03*
X-58321Y123415D03*
X-52987Y123415D03*
X-46256Y123415D03*
D36*
X-43843Y123415D03*
D37*
X-37429Y123415D03*
D36*
X-95913Y123542D03*
D37*
X-89372Y123542D03*
D41*
X-84737Y123542D03*
X-76863Y123542D03*
D27*
X-70640Y123542D03*
D40*
X-65115Y123542D03*
D38*
X-58321Y123542D03*
D40*
X-52923Y123542D03*
X-46192Y123542D03*
D36*
X-43843Y123542D03*
D37*
X-37429Y123542D03*
D36*
X-95913Y123669D03*
D37*
X-89372Y123669D03*
D39*
X-84800Y123669D03*
X-76926Y123669D03*
D27*
X-70640Y123669D03*
D40*
X-65115Y123669D03*
X-58384Y123669D03*
D38*
X-52860Y123669D03*
D40*
X-46192Y123669D03*
D36*
X-43843Y123669D03*
D37*
X-37429Y123669D03*
D36*
X-95913Y123796D03*
D37*
X-89372Y123796D03*
D39*
X-84927Y123796D03*
X-77053Y123796D03*
D27*
X-70640Y123796D03*
D38*
X-65179Y123796D03*
X-58448Y123796D03*
D40*
X-52796Y123796D03*
D38*
X-46129Y123796D03*
D36*
X-43843Y123796D03*
D37*
X-37429Y123796D03*
D36*
X-95913Y123923D03*
D37*
X-89372Y123923D03*
D41*
X-84991Y123923D03*
X-77117Y123923D03*
D87*
X-69433Y123923D03*
D40*
X-58511Y123923D03*
D38*
X-52733Y123923D03*
D73*
X-45049Y123923D03*
D37*
X-37429Y123923D03*
D36*
X-95913Y124050D03*
D37*
X-89372Y124050D03*
D39*
X-85054Y124050D03*
X-77180Y124050D03*
D86*
X-69497Y124050D03*
D38*
X-58575Y124050D03*
X-52733Y124050D03*
D72*
X-44986Y124050D03*
D37*
X-37429Y124050D03*
D36*
X-95913Y124177D03*
D37*
X-89372Y124177D03*
D39*
X-85181Y124177D03*
X-77307Y124177D03*
D86*
X-69497Y124177D03*
D38*
X-58575Y124177D03*
D40*
X-52669Y124177D03*
D72*
X-44986Y124177D03*
D37*
X-37429Y124177D03*
D36*
X-95913Y124304D03*
D37*
X-89372Y124304D03*
D41*
X-85245Y124304D03*
D39*
X-77307Y124304D03*
D85*
X-69560Y124304D03*
D40*
X-58638Y124304D03*
D38*
X-52606Y124304D03*
D71*
X-44922Y124304D03*
D37*
X-37429Y124304D03*
D36*
X-95913Y124431D03*
D37*
X-89372Y124431D03*
D39*
X-85308Y124431D03*
X-77434Y124431D03*
D85*
X-69560Y124431D03*
D38*
X-58702Y124431D03*
D40*
X-52542Y124431D03*
D71*
X-44922Y124431D03*
D37*
X-37429Y124431D03*
D36*
X-95913Y124558D03*
D37*
X-89372Y124558D03*
D39*
X-85435Y124558D03*
X-77561Y124558D03*
D85*
X-69560Y124558D03*
D40*
X-58765Y124558D03*
D38*
X-52479Y124558D03*
D71*
X-44922Y124558D03*
D37*
X-37429Y124558D03*
D36*
X-95913Y124685D03*
D37*
X-89372Y124685D03*
D41*
X-85499Y124685D03*
D39*
X-77561Y124685D03*
D84*
X-69624Y124685D03*
D38*
X-58829Y124685D03*
X-52479Y124685D03*
D70*
X-44859Y124685D03*
D37*
X-37429Y124685D03*
D36*
X-95913Y124812D03*
D37*
X-89372Y124812D03*
D39*
X-85562Y124812D03*
X-77688Y124812D03*
D84*
X-69624Y124812D03*
D38*
X-58829Y124812D03*
D40*
X-52415Y124812D03*
D70*
X-44859Y124812D03*
D37*
X-37429Y124812D03*
D36*
X-95913Y124939D03*
D37*
X-89372Y124939D03*
D39*
X-85689Y124939D03*
D41*
X-77752Y124939D03*
D83*
X-69687Y124939D03*
D40*
X-58892Y124939D03*
D38*
X-52352Y124939D03*
D69*
X-44795Y124939D03*
D37*
X-37429Y124939D03*
D36*
X-95913Y125066D03*
D37*
X-89372Y125066D03*
D39*
X-85689Y125066D03*
X-77815Y125066D03*
D83*
X-69687Y125066D03*
D38*
X-58956Y125066D03*
D40*
X-52288Y125066D03*
D69*
X-44795Y125066D03*
D37*
X-37429Y125066D03*
D36*
X-95913Y125193D03*
D37*
X-89372Y125193D03*
D39*
X-85816Y125193D03*
X-77942Y125193D03*
D83*
X-69687Y125193D03*
D40*
X-59019Y125193D03*
D38*
X-52225Y125193D03*
D69*
X-44795Y125193D03*
D37*
X-37429Y125193D03*
D36*
X-95913Y125320D03*
D37*
X-89372Y125320D03*
D39*
X-85943Y125320D03*
D41*
X-78006Y125320D03*
D82*
X-69751Y125320D03*
D38*
X-59083Y125320D03*
X-52225Y125320D03*
D68*
X-44732Y125320D03*
D37*
X-37429Y125320D03*
D36*
X-95913Y125447D03*
D37*
X-89372Y125447D03*
D39*
X-85943Y125447D03*
X-78069Y125447D03*
D82*
X-69751Y125447D03*
D38*
X-59083Y125447D03*
D40*
X-52161Y125447D03*
D68*
X-44732Y125447D03*
D37*
X-37429Y125447D03*
D36*
X-95913Y125574D03*
D37*
X-89372Y125574D03*
D39*
X-86070Y125574D03*
X-78196Y125574D03*
D81*
X-69814Y125574D03*
D40*
X-59146Y125574D03*
D38*
X-52098Y125574D03*
D67*
X-44668Y125574D03*
D37*
X-37429Y125574D03*
D36*
X-95913Y125701D03*
D37*
X-89372Y125701D03*
D41*
X-86134Y125701D03*
X-78260Y125701D03*
D81*
X-69814Y125701D03*
D38*
X-59210Y125701D03*
D40*
X-52034Y125701D03*
D67*
X-44668Y125701D03*
D37*
X-37429Y125701D03*
D36*
X-95913Y125828D03*
D37*
X-89372Y125828D03*
D39*
X-86197Y125828D03*
X-78323Y125828D03*
D81*
X-69814Y125828D03*
D40*
X-59273Y125828D03*
D38*
X-51971Y125828D03*
D67*
X-44668Y125828D03*
D37*
X-37429Y125828D03*
D36*
X-95913Y125955D03*
D37*
X-89372Y125955D03*
D39*
X-86324Y125955D03*
X-78450Y125955D03*
D80*
X-69878Y125955D03*
D38*
X-59337Y125955D03*
X-51971Y125955D03*
D66*
X-44605Y125955D03*
D37*
X-37429Y125955D03*
D36*
X-95913Y126082D03*
D37*
X-89372Y126082D03*
D41*
X-86388Y126082D03*
X-78514Y126082D03*
D80*
X-69878Y126082D03*
D38*
X-59337Y126082D03*
D40*
X-51907Y126082D03*
D66*
X-44605Y126082D03*
D37*
X-37429Y126082D03*
D36*
X-95913Y126209D03*
D37*
X-89372Y126209D03*
D39*
X-86451Y126209D03*
X-78577Y126209D03*
D79*
X-69941Y126209D03*
D40*
X-59400Y126209D03*
D38*
X-51844Y126209D03*
D65*
X-44541Y126209D03*
D37*
X-37429Y126209D03*
D36*
X-95913Y126336D03*
D37*
X-89372Y126336D03*
D39*
X-86578Y126336D03*
X-78704Y126336D03*
D79*
X-69941Y126336D03*
D38*
X-59464Y126336D03*
D40*
X-51780Y126336D03*
D65*
X-44541Y126336D03*
D37*
X-37429Y126336D03*
D36*
X-95913Y126463D03*
D37*
X-89372Y126463D03*
D41*
X-86642Y126463D03*
X-78768Y126463D03*
D79*
X-69941Y126463D03*
D40*
X-59527Y126463D03*
D38*
X-51717Y126463D03*
D65*
X-44541Y126463D03*
D37*
X-37429Y126463D03*
D36*
X-95913Y126590D03*
D37*
X-89372Y126590D03*
D39*
X-86705Y126590D03*
X-78831Y126590D03*
D78*
X-70005Y126590D03*
D38*
X-59591Y126590D03*
X-51717Y126590D03*
D64*
X-44478Y126590D03*
D37*
X-37429Y126590D03*
D36*
X-95913Y126717D03*
D37*
X-89372Y126717D03*
D39*
X-86832Y126717D03*
X-78958Y126717D03*
D78*
X-70005Y126717D03*
D38*
X-59591Y126717D03*
D40*
X-51653Y126717D03*
D65*
X-44414Y126717D03*
D37*
X-37429Y126717D03*
D36*
X-95913Y126844D03*
D37*
X-89372Y126844D03*
D41*
X-86896Y126844D03*
X-79022Y126844D03*
D77*
X-70068Y126844D03*
D40*
X-59654Y126844D03*
D38*
X-51590Y126844D03*
D64*
X-44351Y126844D03*
D37*
X-37429Y126844D03*
D36*
X-95913Y126971D03*
D37*
X-89372Y126971D03*
D39*
X-86959Y126971D03*
X-79085Y126971D03*
D77*
X-70068Y126971D03*
D38*
X-59718Y126971D03*
D40*
X-51526Y126971D03*
D64*
X-44351Y126971D03*
D37*
X-37429Y126971D03*
D36*
X-95913Y127098D03*
D74*
X-88039Y127098D03*
D39*
X-79212Y127098D03*
D77*
X-70068Y127098D03*
D40*
X-59781Y127098D03*
D38*
X-51463Y127098D03*
D64*
X-44351Y127098D03*
D37*
X-37429Y127098D03*
D36*
X-95913Y127225D03*
D74*
X-88039Y127225D03*
D41*
X-79276Y127225D03*
D75*
X-70132Y127225D03*
D38*
X-59845Y127225D03*
X-51463Y127225D03*
D63*
X-44287Y127225D03*
D37*
X-37429Y127225D03*
D36*
X-95913Y127352D03*
D73*
X-88102Y127352D03*
D39*
X-79339Y127352D03*
D75*
X-70132Y127352D03*
D38*
X-59845Y127352D03*
D40*
X-51399Y127352D03*
D63*
X-44287Y127352D03*
D37*
X-37429Y127352D03*
D36*
X-95913Y127479D03*
D72*
X-88166Y127479D03*
D39*
X-79466Y127479D03*
D35*
X-70195Y127479D03*
D40*
X-59908Y127479D03*
D38*
X-51336Y127479D03*
D62*
X-44224Y127479D03*
D37*
X-37429Y127479D03*
D36*
X-95913Y127606D03*
D72*
X-88166Y127606D03*
D39*
X-79466Y127606D03*
D35*
X-70195Y127606D03*
D38*
X-59972Y127606D03*
D40*
X-51272Y127606D03*
D62*
X-44224Y127606D03*
D37*
X-37429Y127606D03*
D36*
X-95913Y127733D03*
D71*
X-88229Y127733D03*
D39*
X-79593Y127733D03*
D35*
X-70195Y127733D03*
D40*
X-60035Y127733D03*
D38*
X-51209Y127733D03*
D61*
X-44160Y127733D03*
D37*
X-37429Y127733D03*
D36*
X-95913Y127860D03*
D70*
X-88293Y127860D03*
D39*
X-79720Y127860D03*
D34*
X-70259Y127860D03*
D38*
X-60099Y127860D03*
D40*
X-51145Y127860D03*
D61*
X-44160Y127860D03*
D37*
X-37429Y127860D03*
D36*
X-95913Y127987D03*
D70*
X-88293Y127987D03*
D39*
X-79720Y127987D03*
D34*
X-70259Y127987D03*
D38*
X-60099Y127987D03*
D40*
X-51145Y127987D03*
D61*
X-44160Y127987D03*
D37*
X-37429Y127987D03*
D36*
X-95913Y128114D03*
D69*
X-88356Y128114D03*
D39*
X-79847Y128114D03*
D33*
X-70322Y128114D03*
D40*
X-60162Y128114D03*
D38*
X-51082Y128114D03*
D41*
X-44097Y128114D03*
D37*
X-37429Y128114D03*
D36*
X-95913Y128241D03*
D68*
X-88420Y128241D03*
D41*
X-79911Y128241D03*
D33*
X-70322Y128241D03*
D38*
X-60226Y128241D03*
D40*
X-51018Y128241D03*
D41*
X-44097Y128241D03*
D37*
X-37429Y128241D03*
D36*
X-95913Y128368D03*
D68*
X-88420Y128368D03*
D39*
X-79974Y128368D03*
D32*
X-70386Y128368D03*
D40*
X-60289Y128368D03*
D38*
X-50955Y128368D03*
D39*
X-44033Y128368D03*
D37*
X-37429Y128368D03*
D36*
X-95913Y128495D03*
D67*
X-88483Y128495D03*
D39*
X-80101Y128495D03*
D32*
X-70386Y128495D03*
D38*
X-60353Y128495D03*
D40*
X-50891Y128495D03*
D39*
X-44033Y128495D03*
D37*
X-37429Y128495D03*
D36*
X-95913Y128622D03*
D66*
X-88547Y128622D03*
D41*
X-80165Y128622D03*
D32*
X-70386Y128622D03*
D38*
X-60353Y128622D03*
X-50828Y128622D03*
D39*
X-44033Y128622D03*
D37*
X-37429Y128622D03*
D36*
X-95913Y128749D03*
D66*
X-88547Y128749D03*
D39*
X-80228Y128749D03*
D31*
X-70449Y128749D03*
D40*
X-60416Y128749D03*
D38*
X-50828Y128749D03*
D60*
X-43970Y128749D03*
D37*
X-37429Y128749D03*
D36*
X-95913Y128876D03*
D65*
X-88610Y128876D03*
D39*
X-80355Y128876D03*
D31*
X-70449Y128876D03*
D38*
X-60480Y128876D03*
D40*
X-50764Y128876D03*
D60*
X-43970Y128876D03*
D37*
X-37429Y128876D03*
D36*
X-95913Y129003D03*
D65*
X-88610Y129003D03*
D41*
X-80419Y129003D03*
D30*
X-70513Y129003D03*
D40*
X-60543Y129003D03*
D38*
X-50701Y129003D03*
D40*
X-43906Y129003D03*
D37*
X-37429Y129003D03*
D36*
X-95913Y129130D03*
D64*
X-88674Y129130D03*
D39*
X-80482Y129130D03*
D30*
X-70513Y129130D03*
D38*
X-60607Y129130D03*
D40*
X-50637Y129130D03*
X-43906Y129130D03*
D37*
X-37429Y129130D03*
D36*
X-95913Y129257D03*
D63*
X-88737Y129257D03*
D39*
X-80609Y129257D03*
D30*
X-70513Y129257D03*
D38*
X-60607Y129257D03*
X-50574Y129257D03*
D40*
X-43906Y129257D03*
D37*
X-37429Y129257D03*
D36*
X-95913Y129384D03*
D63*
X-88737Y129384D03*
D41*
X-80673Y129384D03*
D29*
X-70576Y129384D03*
D40*
X-60670Y129384D03*
D38*
X-50574Y129384D03*
X-43843Y129384D03*
D37*
X-37429Y129384D03*
D36*
X-95913Y129511D03*
D62*
X-88801Y129511D03*
D39*
X-80736Y129511D03*
D29*
X-70576Y129511D03*
D38*
X-60734Y129511D03*
D40*
X-50510Y129511D03*
D38*
X-43843Y129511D03*
D37*
X-37429Y129511D03*
D36*
X-95913Y129638D03*
D61*
X-88864Y129638D03*
D39*
X-80863Y129638D03*
D27*
X-70640Y129638D03*
D40*
X-60797Y129638D03*
D38*
X-50447Y129638D03*
D59*
X-43779Y129638D03*
D37*
X-37429Y129638D03*
D36*
X-95913Y129765D03*
D61*
X-88864Y129765D03*
D41*
X-80927Y129765D03*
D27*
X-70640Y129765D03*
D38*
X-60861Y129765D03*
D40*
X-50383Y129765D03*
D59*
X-43779Y129765D03*
D37*
X-37429Y129765D03*
D36*
X-95913Y129892D03*
D41*
X-88928Y129892D03*
D39*
X-80990Y129892D03*
D27*
X-70640Y129892D03*
D38*
X-60861Y129892D03*
X-50320Y129892D03*
D59*
X-43779Y129892D03*
D37*
X-37429Y129892D03*
D36*
X-95913Y130019D03*
D39*
X-88991Y130019D03*
X-81117Y130019D03*
D28*
X-70703Y130019D03*
D40*
X-60924Y130019D03*
D38*
X-50320Y130019D03*
D36*
X-43716Y130019D03*
D37*
X-37429Y130019D03*
D36*
X-95913Y130146D03*
D39*
X-88991Y130146D03*
D41*
X-81181Y130146D03*
D28*
X-70703Y130146D03*
D38*
X-60988Y130146D03*
D40*
X-50256Y130146D03*
D36*
X-43716Y130146D03*
D37*
X-37429Y130146D03*
D36*
X-95913Y130273D03*
D60*
X-89055Y130273D03*
D39*
X-81244Y130273D03*
D26*
X-70767Y130273D03*
D40*
X-61051Y130273D03*
D38*
X-50193Y130273D03*
D37*
X-43652Y130273D03*
X-37429Y130273D03*
D36*
X-95913Y130400D03*
D40*
X-89118Y130400D03*
D39*
X-81371Y130400D03*
D26*
X-70767Y130400D03*
D38*
X-61115Y130400D03*
D40*
X-50129Y130400D03*
D37*
X-43652Y130400D03*
X-37429Y130400D03*
D36*
X-95913Y130527D03*
D40*
X-89118Y130527D03*
D41*
X-81435Y130527D03*
D26*
X-70767Y130527D03*
D38*
X-61115Y130527D03*
X-50066Y130527D03*
D37*
X-43652Y130527D03*
X-37429Y130527D03*
D36*
X-95913Y130654D03*
D38*
X-89182Y130654D03*
D39*
X-81498Y130654D03*
D23*
X-70830Y130654D03*
D40*
X-61178Y130654D03*
D38*
X-50066Y130654D03*
D57*
X-43589Y130654D03*
D37*
X-37429Y130654D03*
D36*
X-95913Y130781D03*
D59*
X-89245Y130781D03*
D39*
X-81625Y130781D03*
D23*
X-70830Y130781D03*
D38*
X-61242Y130781D03*
D40*
X-50002Y130781D03*
D57*
X-43589Y130781D03*
D37*
X-37429Y130781D03*
D36*
X-95913Y130908D03*
D59*
X-89245Y130908D03*
D39*
X-81625Y130908D03*
D25*
X-70894Y130908D03*
D40*
X-61305Y130908D03*
D38*
X-49939Y130908D03*
D55*
X-43525Y130908D03*
D37*
X-37429Y130908D03*
D36*
X-95913Y131035D03*
X-89309Y131035D03*
D39*
X-81752Y131035D03*
D25*
X-70894Y131035D03*
D38*
X-61369Y131035D03*
D40*
X-49875Y131035D03*
D55*
X-43525Y131035D03*
D37*
X-37429Y131035D03*
D36*
X-95913Y131162D03*
D37*
X-89372Y131162D03*
D41*
X-81816Y131162D03*
D25*
X-70894Y131162D03*
D38*
X-61369Y131162D03*
X-49812Y131162D03*
D55*
X-43525Y131162D03*
D37*
X-37429Y131162D03*
D36*
X-95913Y131289D03*
D37*
X-89372Y131289D03*
D39*
X-81879Y131289D03*
D20*
X-70957Y131289D03*
D40*
X-61432Y131289D03*
D38*
X-49812Y131289D03*
D54*
X-43462Y131289D03*
D37*
X-37429Y131289D03*
D36*
X-95913Y131416D03*
D57*
X-89436Y131416D03*
D39*
X-82006Y131416D03*
D20*
X-70957Y131416D03*
D38*
X-61496Y131416D03*
D40*
X-49748Y131416D03*
D54*
X-43462Y131416D03*
D37*
X-37429Y131416D03*
D36*
X-95913Y131543D03*
D55*
X-89499Y131543D03*
D41*
X-82070Y131543D03*
D22*
X-71021Y131543D03*
D40*
X-61559Y131543D03*
D38*
X-49685Y131543D03*
D52*
X-43398Y131543D03*
D37*
X-37429Y131543D03*
D36*
X-95913Y131670D03*
D55*
X-89499Y131670D03*
D39*
X-82133Y131670D03*
D22*
X-71021Y131670D03*
D38*
X-61623Y131670D03*
D40*
X-49621Y131670D03*
D54*
X-43335Y131670D03*
D37*
X-37429Y131670D03*
D36*
X-95913Y131797D03*
D54*
X-89563Y131797D03*
D39*
X-82260Y131797D03*
D22*
X-71021Y131797D03*
D40*
X-61686Y131797D03*
D38*
X-49558Y131797D03*
D52*
X-43271Y131797D03*
D37*
X-37429Y131797D03*
D36*
X-95913Y131924D03*
D52*
X-89626Y131924D03*
D41*
X-82324Y131924D03*
D18*
X-71084Y131924D03*
D40*
X-61686Y131924D03*
D38*
X-49558Y131924D03*
D52*
X-43271Y131924D03*
D37*
X-37429Y131924D03*
D36*
X-95913Y132051D03*
D52*
X-89626Y132051D03*
D39*
X-82387Y132051D03*
D18*
X-71084Y132051D03*
D38*
X-61750Y132051D03*
D40*
X-49494Y132051D03*
D52*
X-43271Y132051D03*
D37*
X-37429Y132051D03*
D36*
X-95913Y132178D03*
D51*
X-89690Y132178D03*
D39*
X-82514Y132178D03*
D19*
X-71148Y132178D03*
D40*
X-61813Y132178D03*
D38*
X-49431Y132178D03*
D51*
X-43208Y132178D03*
D37*
X-37429Y132178D03*
D36*
X-95913Y132305D03*
D51*
X-89690Y132305D03*
D41*
X-82578Y132305D03*
D19*
X-71148Y132305D03*
D38*
X-61877Y132305D03*
D40*
X-49367Y132305D03*
D51*
X-43208Y132305D03*
D37*
X-37429Y132305D03*
D36*
X-95913Y132432D03*
D50*
X-89753Y132432D03*
D39*
X-82641Y132432D03*
D58*
X-71211Y132432D03*
D40*
X-61940Y132432D03*
D38*
X-49304Y132432D03*
D50*
X-43144Y132432D03*
D37*
X-37429Y132432D03*
D36*
X-95913Y132559D03*
D49*
X-89817Y132559D03*
D39*
X-82768Y132559D03*
D58*
X-71211Y132559D03*
D40*
X-61940Y132559D03*
D38*
X-49304Y132559D03*
D50*
X-43144Y132559D03*
D37*
X-37429Y132559D03*
D36*
X-95913Y132686D03*
D49*
X-89817Y132686D03*
D41*
X-82832Y132686D03*
D58*
X-71211Y132686D03*
D38*
X-62004Y132686D03*
D40*
X-49240Y132686D03*
D50*
X-43144Y132686D03*
D37*
X-37429Y132686D03*
D36*
X-95913Y132813D03*
D48*
X-89880Y132813D03*
D39*
X-82895Y132813D03*
D16*
X-71275Y132813D03*
D40*
X-62067Y132813D03*
D38*
X-49177Y132813D03*
D49*
X-43081Y132813D03*
D37*
X-37429Y132813D03*
D36*
X-95913Y132940D03*
D47*
X-89944Y132940D03*
D39*
X-83022Y132940D03*
D16*
X-71275Y132940D03*
D38*
X-62131Y132940D03*
D40*
X-49113Y132940D03*
D49*
X-43081Y132940D03*
D37*
X-37429Y132940D03*
D36*
X-95913Y133067D03*
D47*
X-89944Y133067D03*
D41*
X-83086Y133067D03*
D56*
X-71338Y133067D03*
D40*
X-62194Y133067D03*
D38*
X-49050Y133067D03*
D48*
X-43017Y133067D03*
D37*
X-37429Y133067D03*
D36*
X-95913Y133194D03*
D46*
X-90007Y133194D03*
D39*
X-83149Y133194D03*
D56*
X-71338Y133194D03*
D38*
X-62258Y133194D03*
X-49050Y133194D03*
D48*
X-43017Y133194D03*
D37*
X-37429Y133194D03*
D36*
X-95913Y133321D03*
D45*
X-90071Y133321D03*
D39*
X-83276Y133321D03*
D56*
X-71338Y133321D03*
D38*
X-62258Y133321D03*
D40*
X-48986Y133321D03*
D48*
X-43017Y133321D03*
D37*
X-37429Y133321D03*
D36*
X-95913Y133448D03*
D45*
X-90071Y133448D03*
D41*
X-83340Y133448D03*
D24*
X-71402Y133448D03*
D40*
X-62321Y133448D03*
D38*
X-48923Y133448D03*
D47*
X-42954Y133448D03*
D37*
X-37429Y133448D03*
D36*
X-95913Y133575D03*
D44*
X-90134Y133575D03*
D39*
X-83403Y133575D03*
D24*
X-71402Y133575D03*
D38*
X-62385Y133575D03*
D40*
X-48859Y133575D03*
D47*
X-42954Y133575D03*
D37*
X-37429Y133575D03*
D36*
X-95913Y133702D03*
D43*
X-90198Y133702D03*
D39*
X-83530Y133702D03*
D53*
X-71465Y133702D03*
D40*
X-62448Y133702D03*
D38*
X-48796Y133702D03*
D46*
X-42890Y133702D03*
D37*
X-37429Y133702D03*
D36*
X-95913Y133829D03*
D43*
X-90198Y133829D03*
D41*
X-83594Y133829D03*
D53*
X-71465Y133829D03*
D38*
X-62512Y133829D03*
X-48796Y133829D03*
D46*
X-42890Y133829D03*
D37*
X-37429Y133829D03*
D36*
X-95913Y133956D03*
D42*
X-90261Y133956D03*
D39*
X-83657Y133956D03*
D53*
X-71465Y133956D03*
D38*
X-62512Y133956D03*
D40*
X-48732Y133956D03*
D46*
X-42890Y133956D03*
D37*
X-37429Y133956D03*
D36*
X-95913Y134083D03*
D39*
X-83784Y134083D03*
D21*
X-71529Y134083D03*
D40*
X-62575Y134083D03*
D38*
X-48669Y134083D03*
D45*
X-42827Y134083D03*
D37*
X-37429Y134083D03*
D36*
X-95913Y134210D03*
D39*
X-83784Y134210D03*
D21*
X-71529Y134210D03*
D38*
X-62639Y134210D03*
D40*
X-48605Y134210D03*
D45*
X-42827Y134210D03*
D37*
X-37429Y134210D03*
D36*
X-95913Y134337D03*
D39*
X-83911Y134337D03*
D21*
X-71529Y134337D03*
D40*
X-62702Y134337D03*
D38*
X-48542Y134337D03*
D44*
X-42763Y134337D03*
D37*
X-37429Y134337D03*
D36*
X-95913Y134464D03*
D41*
X-83975Y134464D03*
D21*
X-71529Y134464D03*
D38*
X-62766Y134464D03*
X-48542Y134464D03*
D44*
X-42763Y134464D03*
D37*
X-37429Y134464D03*
D36*
X-95913Y134591D03*
D39*
X-84038Y134591D03*
D21*
X-71529Y134591D03*
D38*
X-62766Y134591D03*
D40*
X-48478Y134591D03*
D44*
X-42763Y134591D03*
D37*
X-37429Y134591D03*
D36*
X-95913Y134718D03*
D39*
X-84165Y134718D03*
D21*
X-71529Y134718D03*
D40*
X-62829Y134718D03*
D38*
X-48415Y134718D03*
D43*
X-42700Y134718D03*
D37*
X-37429Y134718D03*
D36*
X-95913Y134845D03*
D41*
X-84229Y134845D03*
D21*
X-71529Y134845D03*
D38*
X-62893Y134845D03*
D40*
X-48351Y134845D03*
D43*
X-42700Y134845D03*
D37*
X-37429Y134845D03*
D36*
X-95913Y134972D03*
D39*
X-84292Y134972D03*
D21*
X-71529Y134972D03*
D40*
X-62956Y134972D03*
D38*
X-48288Y134972D03*
D42*
X-42636Y134972D03*
D37*
X-37429Y134972D03*
D36*
X-95913Y135099D03*
D39*
X-84419Y135099D03*
D21*
X-71529Y135099D03*
D38*
X-63020Y135099D03*
X-48288Y135099D03*
D42*
X-42636Y135099D03*
D37*
X-37429Y135099D03*
D36*
X-95913Y135226D03*
D41*
X-84483Y135226D03*
D21*
X-71529Y135226D03*
D38*
X-63020Y135226D03*
D40*
X-48224Y135226D03*
D37*
X-37429Y135226D03*
D36*
X-95913Y135353D03*
D39*
X-84546Y135353D03*
D21*
X-71529Y135353D03*
D40*
X-63083Y135353D03*
D38*
X-48161Y135353D03*
D37*
X-37429Y135353D03*
D36*
X-95913Y135480D03*
D39*
X-84673Y135480D03*
D21*
X-71529Y135480D03*
D38*
X-63147Y135480D03*
D40*
X-48097Y135480D03*
D37*
X-37429Y135480D03*
D36*
X-95913Y135607D03*
D41*
X-84737Y135607D03*
D21*
X-71529Y135607D03*
D40*
X-63210Y135607D03*
D38*
X-48034Y135607D03*
D37*
X-37429Y135607D03*
D36*
X-95913Y135734D03*
D39*
X-84800Y135734D03*
D21*
X-71529Y135734D03*
D38*
X-63274Y135734D03*
X-48034Y135734D03*
D37*
X-37429Y135734D03*
D36*
X-95913Y135861D03*
D39*
X-84927Y135861D03*
D21*
X-71529Y135861D03*
D38*
X-63274Y135861D03*
D40*
X-47970Y135861D03*
D37*
X-37429Y135861D03*
D36*
X-95913Y135988D03*
D41*
X-84991Y135988D03*
D21*
X-71529Y135988D03*
D40*
X-63337Y135988D03*
D38*
X-47907Y135988D03*
D37*
X-37429Y135988D03*
D36*
X-95913Y136115D03*
D39*
X-85054Y136115D03*
D21*
X-71529Y136115D03*
D38*
X-63401Y136115D03*
D40*
X-47843Y136115D03*
D37*
X-37429Y136115D03*
D36*
X-95913Y136242D03*
D39*
X-85181Y136242D03*
D21*
X-71529Y136242D03*
D40*
X-63464Y136242D03*
D38*
X-47780Y136242D03*
D37*
X-37429Y136242D03*
D36*
X-95913Y136369D03*
D41*
X-85245Y136369D03*
D21*
X-71529Y136369D03*
D38*
X-63528Y136369D03*
X-47780Y136369D03*
D37*
X-37429Y136369D03*
D36*
X-95913Y136496D03*
D39*
X-85308Y136496D03*
D21*
X-71529Y136496D03*
D38*
X-63528Y136496D03*
D40*
X-47716Y136496D03*
D37*
X-37429Y136496D03*
D36*
X-95913Y136623D03*
D39*
X-85435Y136623D03*
D21*
X-71529Y136623D03*
D40*
X-63591Y136623D03*
D38*
X-47653Y136623D03*
D37*
X-37429Y136623D03*
D36*
X-95913Y136750D03*
D41*
X-85499Y136750D03*
D21*
X-71529Y136750D03*
D38*
X-63655Y136750D03*
D40*
X-47589Y136750D03*
D37*
X-37429Y136750D03*
D36*
X-95913Y136877D03*
D39*
X-85562Y136877D03*
D21*
X-71529Y136877D03*
D40*
X-63718Y136877D03*
D38*
X-47526Y136877D03*
D37*
X-37429Y136877D03*
D36*
X-95913Y137004D03*
D39*
X-85689Y137004D03*
D21*
X-71529Y137004D03*
D38*
X-63782Y137004D03*
X-47526Y137004D03*
D37*
X-37429Y137004D03*
D36*
X-95913Y137131D03*
D41*
X-85753Y137131D03*
D21*
X-71529Y137131D03*
D38*
X-63782Y137131D03*
D40*
X-47462Y137131D03*
D37*
X-37429Y137131D03*
D36*
X-95913Y137258D03*
D39*
X-85816Y137258D03*
D21*
X-71529Y137258D03*
D40*
X-63845Y137258D03*
D38*
X-47399Y137258D03*
D37*
X-37429Y137258D03*
D36*
X-95913Y137385D03*
D39*
X-85943Y137385D03*
D21*
X-71529Y137385D03*
D38*
X-63909Y137385D03*
D40*
X-47335Y137385D03*
D37*
X-37429Y137385D03*
D36*
X-95913Y137512D03*
D39*
X-85943Y137512D03*
D21*
X-71529Y137512D03*
D40*
X-63972Y137512D03*
D38*
X-47272Y137512D03*
D37*
X-37429Y137512D03*
D36*
X-95913Y137639D03*
D39*
X-86070Y137639D03*
D21*
X-71529Y137639D03*
D38*
X-64036Y137639D03*
X-47272Y137639D03*
D37*
X-37429Y137639D03*
D36*
X-95913Y137766D03*
D41*
X-86134Y137766D03*
D21*
X-71529Y137766D03*
D38*
X-64036Y137766D03*
D40*
X-47208Y137766D03*
D37*
X-37429Y137766D03*
D36*
X-95913Y137893D03*
D39*
X-86197Y137893D03*
D21*
X-71529Y137893D03*
D40*
X-64099Y137893D03*
D38*
X-47145Y137893D03*
D37*
X-37429Y137893D03*
D36*
X-95913Y138020D03*
D39*
X-86324Y138020D03*
D21*
X-71529Y138020D03*
D38*
X-64163Y138020D03*
D40*
X-47081Y138020D03*
D37*
X-37429Y138020D03*
D36*
X-95913Y138147D03*
D41*
X-86388Y138147D03*
D21*
X-71529Y138147D03*
D40*
X-64226Y138147D03*
D38*
X-47018Y138147D03*
D37*
X-37429Y138147D03*
D36*
X-95913Y138274D03*
D39*
X-86451Y138274D03*
D21*
X-71529Y138274D03*
D38*
X-64290Y138274D03*
X-47018Y138274D03*
D37*
X-37429Y138274D03*
D36*
X-95913Y138401D03*
D39*
X-86578Y138401D03*
D21*
X-71529Y138401D03*
D38*
X-64290Y138401D03*
D40*
X-46954Y138401D03*
D37*
X-37429Y138401D03*
D36*
X-95913Y138528D03*
D41*
X-86642Y138528D03*
D21*
X-71529Y138528D03*
D40*
X-64353Y138528D03*
D38*
X-46891Y138528D03*
D37*
X-37429Y138528D03*
D36*
X-95913Y138655D03*
D39*
X-86705Y138655D03*
D21*
X-71529Y138655D03*
D38*
X-64417Y138655D03*
D40*
X-46827Y138655D03*
D37*
X-37429Y138655D03*
D36*
X-95913Y138782D03*
D39*
X-86832Y138782D03*
D21*
X-71529Y138782D03*
D40*
X-64480Y138782D03*
D38*
X-46764Y138782D03*
D37*
X-37429Y138782D03*
D36*
X-95913Y138909D03*
D41*
X-86896Y138909D03*
D21*
X-71529Y138909D03*
D38*
X-64544Y138909D03*
X-46764Y138909D03*
D37*
X-37429Y138909D03*
D36*
X-95913Y139036D03*
D39*
X-86959Y139036D03*
D21*
X-71529Y139036D03*
D38*
X-64544Y139036D03*
D40*
X-46700Y139036D03*
D37*
X-37429Y139036D03*
D36*
X-95913Y139163D03*
D39*
X-87086Y139163D03*
D21*
X-71529Y139163D03*
D40*
X-64607Y139163D03*
D38*
X-46637Y139163D03*
D37*
X-37429Y139163D03*
D36*
X-95913Y139290D03*
D41*
X-87150Y139290D03*
D21*
X-71529Y139290D03*
D38*
X-64671Y139290D03*
D40*
X-46573Y139290D03*
D37*
X-37429Y139290D03*
D36*
X-95913Y139417D03*
D39*
X-87213Y139417D03*
D21*
X-71529Y139417D03*
D40*
X-64734Y139417D03*
D38*
X-46510Y139417D03*
D37*
X-37429Y139417D03*
D36*
X-95913Y139544D03*
D39*
X-87340Y139544D03*
D21*
X-71529Y139544D03*
D38*
X-64798Y139544D03*
X-46510Y139544D03*
D37*
X-37429Y139544D03*
D36*
X-95913Y139671D03*
D41*
X-87404Y139671D03*
D21*
X-71529Y139671D03*
D38*
X-64798Y139671D03*
D40*
X-46446Y139671D03*
D37*
X-37429Y139671D03*
D36*
X-95913Y139798D03*
D39*
X-87467Y139798D03*
D21*
X-71529Y139798D03*
D40*
X-64861Y139798D03*
D38*
X-46383Y139798D03*
D37*
X-37429Y139798D03*
D36*
X-95913Y139925D03*
D39*
X-87594Y139925D03*
D21*
X-71529Y139925D03*
D38*
X-64925Y139925D03*
D40*
X-46319Y139925D03*
D37*
X-37429Y139925D03*
D36*
X-95913Y140052D03*
D41*
X-87658Y140052D03*
D21*
X-71529Y140052D03*
D40*
X-64988Y140052D03*
D38*
X-46256Y140052D03*
D37*
X-37429Y140052D03*
D36*
X-95913Y140179D03*
D39*
X-87721Y140179D03*
D21*
X-71529Y140179D03*
D38*
X-65052Y140179D03*
X-46256Y140179D03*
D37*
X-37429Y140179D03*
D36*
X-95913Y140306D03*
D39*
X-87848Y140306D03*
D21*
X-71529Y140306D03*
D38*
X-65052Y140306D03*
D40*
X-46192Y140306D03*
D37*
X-37429Y140306D03*
D36*
X-95913Y140433D03*
D41*
X-87912Y140433D03*
D21*
X-71529Y140433D03*
D40*
X-65115Y140433D03*
D38*
X-46129Y140433D03*
D37*
X-37429Y140433D03*
D36*
X-95913Y140560D03*
D39*
X-87975Y140560D03*
D21*
X-71529Y140560D03*
D38*
X-65179Y140560D03*
D40*
X-46065Y140560D03*
D37*
X-37429Y140560D03*
D36*
X-95913Y140687D03*
D39*
X-88102Y140687D03*
D21*
X-71529Y140687D03*
D40*
X-65242Y140687D03*
D38*
X-46002Y140687D03*
D37*
X-37429Y140687D03*
D36*
X-95913Y140814D03*
D41*
X-88166Y140814D03*
D21*
X-71529Y140814D03*
D38*
X-65306Y140814D03*
X-46002Y140814D03*
D37*
X-37429Y140814D03*
D36*
X-95913Y140941D03*
D39*
X-88229Y140941D03*
D21*
X-71529Y140941D03*
D38*
X-65306Y140941D03*
D40*
X-45938Y140941D03*
D37*
X-37429Y140941D03*
D36*
X-95913Y141068D03*
D41*
X-88293Y141068D03*
D21*
X-71529Y141068D03*
D40*
X-65369Y141068D03*
D38*
X-45875Y141068D03*
D37*
X-37429Y141068D03*
D36*
X-95913Y141195D03*
D39*
X-88356Y141195D03*
D21*
X-71529Y141195D03*
D38*
X-65433Y141195D03*
D40*
X-45811Y141195D03*
D37*
X-37429Y141195D03*
D36*
X-95913Y141322D03*
D39*
X-88483Y141322D03*
D21*
X-71529Y141322D03*
D40*
X-65496Y141322D03*
D38*
X-45748Y141322D03*
D37*
X-37429Y141322D03*
D36*
X-95913Y141449D03*
D41*
X-88547Y141449D03*
D21*
X-71529Y141449D03*
D38*
X-65560Y141449D03*
X-45748Y141449D03*
D37*
X-37429Y141449D03*
D36*
X-95913Y141576D03*
D39*
X-88610Y141576D03*
D21*
X-71529Y141576D03*
D38*
X-65560Y141576D03*
D40*
X-45684Y141576D03*
D37*
X-37429Y141576D03*
D36*
X-95913Y141703D03*
D39*
X-88737Y141703D03*
D21*
X-71529Y141703D03*
D40*
X-65623Y141703D03*
D38*
X-45621Y141703D03*
D37*
X-37429Y141703D03*
D36*
X-95913Y141830D03*
D41*
X-88801Y141830D03*
D21*
X-71529Y141830D03*
D38*
X-65687Y141830D03*
D40*
X-45557Y141830D03*
D37*
X-37429Y141830D03*
D36*
X-95913Y141957D03*
D39*
X-88864Y141957D03*
D21*
X-71529Y141957D03*
D40*
X-65750Y141957D03*
D38*
X-45494Y141957D03*
D37*
X-37429Y141957D03*
D36*
X-95913Y142084D03*
D39*
X-88991Y142084D03*
D21*
X-71529Y142084D03*
D38*
X-65814Y142084D03*
X-45494Y142084D03*
D37*
X-37429Y142084D03*
D35*
X-92293Y142211D03*
D82*
X-69751Y142211D03*
X-41557Y142211D03*
D34*
X-92357Y142338D03*
D82*
X-69751Y142338D03*
D81*
X-41493Y142338D03*
D33*
X-92420Y142465D03*
D81*
X-69814Y142465D03*
X-41493Y142465D03*
D33*
X-92420Y142592D03*
D81*
X-69814Y142592D03*
D80*
X-41430Y142592D03*
D32*
X-92484Y142719D03*
D80*
X-69878Y142719D03*
X-41430Y142719D03*
D30*
X-92484Y142846D03*
D79*
X-69814Y142846D03*
D80*
X-41430Y142846D03*
D30*
X-92484Y142973D03*
D79*
X-69814Y142973D03*
X-41366Y142973D03*
D29*
X-92547Y143100D03*
D78*
X-69878Y143100D03*
X-41430Y143100D03*
D28*
X-92547Y143227D03*
D77*
X-69814Y143227D03*
X-41366Y143227D03*
D28*
X-92547Y143354D03*
D75*
X-69878Y143354D03*
D77*
X-41366Y143354D03*
D26*
X-92611Y143481D03*
D35*
X-69941Y143481D03*
X-41366Y143481D03*
D25*
X-92611Y143608D03*
D33*
X-69941Y143608D03*
X-41366Y143608D03*
D22*
X-92611Y143735D03*
D31*
X-69941Y143735D03*
X-41366Y143735D03*
D16*
X-92611Y143862D03*
D27*
X-69878Y143862D03*
D29*
X-41366Y143862D03*
D14*
X-92611Y143989D03*
D22*
X-69878Y143989D03*
D20*
X-41366Y143989D03*
D10*
X-151724Y142500D02*
X-151724Y170888D01*
X-149692Y143008D02*
X-138008Y143008D01*
X-149692Y143008D02*
X-149692Y146254D01*
X-149690Y146367D01*
X-149684Y146480D01*
X-149674Y146593D01*
X-149660Y146706D01*
X-149643Y146818D01*
X-149621Y146929D01*
X-149596Y147039D01*
X-149566Y147149D01*
X-149533Y147257D01*
X-149496Y147364D01*
X-149456Y147470D01*
X-149411Y147574D01*
X-149363Y147677D01*
X-149312Y147778D01*
X-149257Y147877D01*
X-149199Y147974D01*
X-149137Y148069D01*
X-149072Y148162D01*
X-149004Y148252D01*
X-148933Y148340D01*
X-148858Y148426D01*
X-148781Y148509D01*
X-148701Y148589D01*
X-148618Y148666D01*
X-148532Y148741D01*
X-148444Y148812D01*
X-148354Y148880D01*
X-148261Y148945D01*
X-148166Y149007D01*
X-148069Y149065D01*
X-147970Y149120D01*
X-147869Y149171D01*
X-147766Y149219D01*
X-147662Y149264D01*
X-147556Y149304D01*
X-147449Y149341D01*
X-147341Y149374D01*
X-147231Y149404D01*
X-147121Y149429D01*
X-147010Y149451D01*
X-146898Y149468D01*
X-146785Y149482D01*
X-146672Y149492D01*
X-146559Y149498D01*
X-146446Y149500D01*
X-146333Y149498D01*
X-146220Y149492D01*
X-146107Y149482D01*
X-145994Y149468D01*
X-145882Y149451D01*
X-145771Y149429D01*
X-145661Y149404D01*
X-145551Y149374D01*
X-145443Y149341D01*
X-145336Y149304D01*
X-145230Y149264D01*
X-145126Y149219D01*
X-145023Y149171D01*
X-144922Y149120D01*
X-144823Y149065D01*
X-144726Y149007D01*
X-144631Y148945D01*
X-144538Y148880D01*
X-144448Y148812D01*
X-144360Y148741D01*
X-144274Y148666D01*
X-144191Y148589D01*
X-144111Y148509D01*
X-144034Y148426D01*
X-143959Y148340D01*
X-143888Y148252D01*
X-143820Y148162D01*
X-143755Y148069D01*
X-143693Y147974D01*
X-143635Y147877D01*
X-143580Y147778D01*
X-143529Y147677D01*
X-143481Y147574D01*
X-143436Y147470D01*
X-143396Y147364D01*
X-143359Y147257D01*
X-143326Y147149D01*
X-143296Y147039D01*
X-143271Y146929D01*
X-143249Y146818D01*
X-143232Y146706D01*
X-143218Y146593D01*
X-143208Y146480D01*
X-143202Y146367D01*
X-143200Y146254D01*
X-143201Y146254D02*
X-143201Y143008D01*
X-143201Y146903D02*
X-138008Y149499D01*
X-138008Y154768D02*
X-138008Y159961D01*
X-138008Y154768D02*
X-149692Y154768D01*
X-149692Y159961D01*
X-144499Y158663D02*
X-144499Y154768D01*
X-138008Y167784D02*
X-138010Y167883D01*
X-138016Y167983D01*
X-138025Y168082D01*
X-138038Y168180D01*
X-138055Y168278D01*
X-138076Y168376D01*
X-138101Y168472D01*
X-138129Y168567D01*
X-138161Y168661D01*
X-138196Y168754D01*
X-138235Y168846D01*
X-138278Y168936D01*
X-138323Y169024D01*
X-138373Y169111D01*
X-138425Y169195D01*
X-138481Y169278D01*
X-138539Y169358D01*
X-138601Y169436D01*
X-138666Y169511D01*
X-138734Y169584D01*
X-138804Y169654D01*
X-138877Y169722D01*
X-138952Y169787D01*
X-139030Y169849D01*
X-139110Y169907D01*
X-139193Y169963D01*
X-139277Y170015D01*
X-139364Y170065D01*
X-139452Y170110D01*
X-139542Y170153D01*
X-139634Y170192D01*
X-139727Y170227D01*
X-139821Y170259D01*
X-139916Y170287D01*
X-140012Y170312D01*
X-140110Y170333D01*
X-140208Y170350D01*
X-140306Y170363D01*
X-140405Y170372D01*
X-140505Y170378D01*
X-140604Y170380D01*
X-138008Y167784D02*
X-138010Y167640D01*
X-138016Y167495D01*
X-138025Y167351D01*
X-138038Y167208D01*
X-138055Y167064D01*
X-138076Y166921D01*
X-138101Y166779D01*
X-138129Y166638D01*
X-138161Y166497D01*
X-138197Y166357D01*
X-138236Y166218D01*
X-138279Y166080D01*
X-138326Y165944D01*
X-138376Y165808D01*
X-138430Y165674D01*
X-138487Y165542D01*
X-138548Y165411D01*
X-138612Y165282D01*
X-138680Y165154D01*
X-138750Y165028D01*
X-138825Y164904D01*
X-138902Y164783D01*
X-138983Y164663D01*
X-139066Y164545D01*
X-139153Y164430D01*
X-139243Y164317D01*
X-139336Y164206D01*
X-139431Y164098D01*
X-139530Y163992D01*
X-139631Y163889D01*
X-147096Y164214D02*
X-147195Y164216D01*
X-147295Y164222D01*
X-147394Y164231D01*
X-147492Y164244D01*
X-147590Y164261D01*
X-147688Y164282D01*
X-147784Y164307D01*
X-147879Y164335D01*
X-147973Y164367D01*
X-148066Y164402D01*
X-148158Y164441D01*
X-148248Y164484D01*
X-148336Y164529D01*
X-148423Y164579D01*
X-148507Y164631D01*
X-148590Y164687D01*
X-148670Y164745D01*
X-148748Y164807D01*
X-148823Y164872D01*
X-148896Y164940D01*
X-148966Y165010D01*
X-149034Y165083D01*
X-149099Y165158D01*
X-149161Y165236D01*
X-149219Y165316D01*
X-149275Y165399D01*
X-149327Y165483D01*
X-149377Y165570D01*
X-149422Y165658D01*
X-149465Y165748D01*
X-149504Y165840D01*
X-149539Y165933D01*
X-149571Y166027D01*
X-149599Y166122D01*
X-149624Y166219D01*
X-149645Y166316D01*
X-149662Y166414D01*
X-149675Y166512D01*
X-149684Y166611D01*
X-149690Y166711D01*
X-149692Y166810D01*
X-149690Y166946D01*
X-149684Y167082D01*
X-149675Y167218D01*
X-149662Y167354D01*
X-149644Y167489D01*
X-149624Y167623D01*
X-149599Y167757D01*
X-149571Y167891D01*
X-149538Y168023D01*
X-149503Y168154D01*
X-149463Y168285D01*
X-149420Y168414D01*
X-149374Y168542D01*
X-149323Y168668D01*
X-149270Y168794D01*
X-149212Y168917D01*
X-149152Y169039D01*
X-149088Y169159D01*
X-149020Y169278D01*
X-148950Y169394D01*
X-148876Y169508D01*
X-148799Y169621D01*
X-148718Y169731D01*
X-144824Y165512D02*
X-144877Y165426D01*
X-144934Y165342D01*
X-144993Y165260D01*
X-145056Y165180D01*
X-145122Y165103D01*
X-145190Y165028D01*
X-145262Y164956D01*
X-145336Y164887D01*
X-145413Y164821D01*
X-145492Y164758D01*
X-145574Y164698D01*
X-145658Y164641D01*
X-145744Y164587D01*
X-145832Y164537D01*
X-145922Y164490D01*
X-146013Y164446D01*
X-146107Y164407D01*
X-146201Y164370D01*
X-146297Y164338D01*
X-146395Y164309D01*
X-146493Y164284D01*
X-146592Y164263D01*
X-146692Y164245D01*
X-146792Y164232D01*
X-146893Y164222D01*
X-146995Y164216D01*
X-147096Y164214D01*
X-142876Y169082D02*
X-142823Y169168D01*
X-142766Y169252D01*
X-142707Y169334D01*
X-142644Y169414D01*
X-142578Y169491D01*
X-142510Y169566D01*
X-142438Y169638D01*
X-142364Y169707D01*
X-142287Y169773D01*
X-142208Y169836D01*
X-142126Y169896D01*
X-142042Y169953D01*
X-141956Y170007D01*
X-141868Y170057D01*
X-141778Y170104D01*
X-141687Y170148D01*
X-141593Y170187D01*
X-141499Y170224D01*
X-141403Y170256D01*
X-141305Y170285D01*
X-141207Y170310D01*
X-141108Y170331D01*
X-141008Y170349D01*
X-140908Y170362D01*
X-140807Y170372D01*
X-140705Y170378D01*
X-140604Y170380D01*
X-142876Y169082D02*
X-144824Y165512D01*
X19805Y291183D02*
X19805Y302867D01*
X23700Y296376D01*
X27595Y302867D01*
X27595Y291183D01*
X23700Y278624D02*
X20454Y278624D01*
X23700Y278625D02*
X23813Y278623D01*
X23926Y278617D01*
X24039Y278607D01*
X24152Y278593D01*
X24264Y278576D01*
X24375Y278554D01*
X24485Y278529D01*
X24595Y278499D01*
X24703Y278466D01*
X24810Y278429D01*
X24916Y278389D01*
X25020Y278344D01*
X25123Y278296D01*
X25224Y278245D01*
X25323Y278190D01*
X25420Y278132D01*
X25515Y278070D01*
X25608Y278005D01*
X25698Y277937D01*
X25786Y277866D01*
X25872Y277791D01*
X25955Y277714D01*
X26035Y277634D01*
X26112Y277551D01*
X26187Y277465D01*
X26258Y277377D01*
X26326Y277287D01*
X26391Y277194D01*
X26453Y277099D01*
X26511Y277002D01*
X26566Y276903D01*
X26617Y276802D01*
X26665Y276699D01*
X26710Y276595D01*
X26750Y276489D01*
X26787Y276382D01*
X26820Y276274D01*
X26850Y276164D01*
X26875Y276054D01*
X26897Y275943D01*
X26914Y275831D01*
X26928Y275718D01*
X26938Y275605D01*
X26944Y275492D01*
X26946Y275379D01*
X26944Y275266D01*
X26938Y275153D01*
X26928Y275040D01*
X26914Y274927D01*
X26897Y274815D01*
X26875Y274704D01*
X26850Y274594D01*
X26820Y274484D01*
X26787Y274376D01*
X26750Y274269D01*
X26710Y274163D01*
X26665Y274059D01*
X26617Y273956D01*
X26566Y273855D01*
X26511Y273756D01*
X26453Y273659D01*
X26391Y273564D01*
X26326Y273471D01*
X26258Y273381D01*
X26187Y273293D01*
X26112Y273207D01*
X26035Y273124D01*
X25955Y273044D01*
X25872Y272967D01*
X25786Y272892D01*
X25698Y272821D01*
X25608Y272753D01*
X25515Y272688D01*
X25420Y272626D01*
X25323Y272568D01*
X25224Y272513D01*
X25123Y272462D01*
X25020Y272414D01*
X24916Y272369D01*
X24810Y272329D01*
X24703Y272292D01*
X24595Y272259D01*
X24485Y272229D01*
X24375Y272204D01*
X24264Y272182D01*
X24152Y272165D01*
X24039Y272151D01*
X23926Y272141D01*
X23813Y272135D01*
X23700Y272133D01*
X20454Y272133D01*
X20454Y283817D01*
X23700Y283817D01*
X23801Y283815D01*
X23901Y283809D01*
X24001Y283799D01*
X24101Y283786D01*
X24200Y283768D01*
X24299Y283747D01*
X24396Y283722D01*
X24493Y283693D01*
X24588Y283660D01*
X24682Y283624D01*
X24774Y283584D01*
X24865Y283541D01*
X24954Y283494D01*
X25041Y283444D01*
X25127Y283390D01*
X25210Y283333D01*
X25290Y283273D01*
X25369Y283210D01*
X25445Y283143D01*
X25518Y283074D01*
X25588Y283002D01*
X25656Y282928D01*
X25721Y282851D01*
X25782Y282771D01*
X25841Y282689D01*
X25896Y282605D01*
X25948Y282519D01*
X25997Y282431D01*
X26042Y282341D01*
X26084Y282249D01*
X26122Y282156D01*
X26156Y282061D01*
X26187Y281966D01*
X26214Y281869D01*
X26237Y281771D01*
X26257Y281672D01*
X26272Y281572D01*
X26284Y281472D01*
X26292Y281372D01*
X26296Y281271D01*
X26296Y281171D01*
X26292Y281070D01*
X26284Y280970D01*
X26272Y280870D01*
X26257Y280770D01*
X26237Y280671D01*
X26214Y280573D01*
X26187Y280476D01*
X26156Y280381D01*
X26122Y280286D01*
X26084Y280193D01*
X26042Y280101D01*
X25997Y280011D01*
X25948Y279923D01*
X25896Y279837D01*
X25841Y279753D01*
X25782Y279671D01*
X25721Y279591D01*
X25656Y279514D01*
X25588Y279440D01*
X25518Y279368D01*
X25445Y279299D01*
X25369Y279232D01*
X25290Y279169D01*
X25210Y279109D01*
X25127Y279052D01*
X25041Y278998D01*
X24954Y278948D01*
X24865Y278901D01*
X24774Y278858D01*
X24682Y278818D01*
X24588Y278782D01*
X24493Y278749D01*
X24396Y278720D01*
X24299Y278695D01*
X24200Y278674D01*
X24101Y278656D01*
X24001Y278643D01*
X23901Y278633D01*
X23801Y278627D01*
X23700Y278625D01*
X-20455Y293779D02*
X-20457Y293680D01*
X-20463Y293580D01*
X-20472Y293481D01*
X-20485Y293383D01*
X-20502Y293285D01*
X-20523Y293187D01*
X-20548Y293091D01*
X-20576Y292996D01*
X-20608Y292902D01*
X-20643Y292809D01*
X-20682Y292717D01*
X-20725Y292627D01*
X-20770Y292539D01*
X-20820Y292452D01*
X-20872Y292368D01*
X-20928Y292285D01*
X-20986Y292205D01*
X-21048Y292127D01*
X-21113Y292052D01*
X-21181Y291979D01*
X-21251Y291909D01*
X-21324Y291841D01*
X-21399Y291776D01*
X-21477Y291714D01*
X-21557Y291656D01*
X-21640Y291600D01*
X-21724Y291548D01*
X-21811Y291498D01*
X-21899Y291453D01*
X-21989Y291410D01*
X-22081Y291371D01*
X-22174Y291336D01*
X-22268Y291304D01*
X-22363Y291276D01*
X-22459Y291251D01*
X-22557Y291230D01*
X-22655Y291213D01*
X-22753Y291200D01*
X-22852Y291191D01*
X-22952Y291185D01*
X-23051Y291183D01*
X-23195Y291185D01*
X-23340Y291191D01*
X-23484Y291200D01*
X-23627Y291213D01*
X-23771Y291230D01*
X-23914Y291251D01*
X-24056Y291276D01*
X-24197Y291304D01*
X-24338Y291336D01*
X-24478Y291372D01*
X-24617Y291411D01*
X-24755Y291454D01*
X-24891Y291501D01*
X-25027Y291551D01*
X-25161Y291605D01*
X-25293Y291662D01*
X-25424Y291723D01*
X-25553Y291787D01*
X-25681Y291855D01*
X-25807Y291926D01*
X-25931Y292000D01*
X-26052Y292077D01*
X-26172Y292158D01*
X-26290Y292241D01*
X-26405Y292328D01*
X-26518Y292418D01*
X-26629Y292511D01*
X-26737Y292606D01*
X-26843Y292705D01*
X-26946Y292806D01*
X-26621Y300271D02*
X-26619Y300370D01*
X-26613Y300470D01*
X-26604Y300569D01*
X-26591Y300667D01*
X-26574Y300765D01*
X-26553Y300863D01*
X-26528Y300959D01*
X-26500Y301054D01*
X-26468Y301148D01*
X-26433Y301241D01*
X-26394Y301333D01*
X-26351Y301423D01*
X-26306Y301511D01*
X-26256Y301598D01*
X-26204Y301682D01*
X-26148Y301765D01*
X-26090Y301845D01*
X-26028Y301923D01*
X-25963Y301998D01*
X-25895Y302071D01*
X-25825Y302141D01*
X-25752Y302209D01*
X-25677Y302274D01*
X-25599Y302336D01*
X-25519Y302394D01*
X-25436Y302450D01*
X-25352Y302502D01*
X-25265Y302552D01*
X-25177Y302597D01*
X-25087Y302640D01*
X-24995Y302679D01*
X-24902Y302714D01*
X-24808Y302746D01*
X-24713Y302774D01*
X-24617Y302799D01*
X-24519Y302820D01*
X-24421Y302837D01*
X-24323Y302850D01*
X-24224Y302859D01*
X-24124Y302865D01*
X-24025Y302867D01*
X-23889Y302865D01*
X-23753Y302859D01*
X-23617Y302850D01*
X-23481Y302837D01*
X-23346Y302819D01*
X-23212Y302799D01*
X-23078Y302774D01*
X-22944Y302746D01*
X-22812Y302713D01*
X-22681Y302678D01*
X-22550Y302638D01*
X-22421Y302595D01*
X-22293Y302549D01*
X-22167Y302498D01*
X-22041Y302445D01*
X-21918Y302387D01*
X-21796Y302327D01*
X-21676Y302263D01*
X-21557Y302195D01*
X-21441Y302125D01*
X-21327Y302051D01*
X-21214Y301974D01*
X-21104Y301893D01*
X-25323Y297999D02*
X-25409Y298052D01*
X-25493Y298109D01*
X-25575Y298168D01*
X-25655Y298231D01*
X-25732Y298297D01*
X-25807Y298365D01*
X-25879Y298437D01*
X-25948Y298511D01*
X-26014Y298588D01*
X-26077Y298667D01*
X-26137Y298749D01*
X-26194Y298833D01*
X-26248Y298919D01*
X-26298Y299007D01*
X-26345Y299097D01*
X-26389Y299188D01*
X-26428Y299282D01*
X-26465Y299376D01*
X-26497Y299472D01*
X-26526Y299570D01*
X-26551Y299668D01*
X-26572Y299767D01*
X-26590Y299867D01*
X-26603Y299967D01*
X-26613Y300068D01*
X-26619Y300170D01*
X-26621Y300271D01*
X-21752Y296051D02*
X-21666Y295998D01*
X-21582Y295941D01*
X-21500Y295882D01*
X-21420Y295819D01*
X-21343Y295753D01*
X-21268Y295685D01*
X-21196Y295613D01*
X-21127Y295539D01*
X-21061Y295462D01*
X-20998Y295383D01*
X-20938Y295301D01*
X-20881Y295217D01*
X-20827Y295131D01*
X-20777Y295043D01*
X-20730Y294953D01*
X-20686Y294862D01*
X-20647Y294768D01*
X-20610Y294674D01*
X-20578Y294578D01*
X-20549Y294480D01*
X-20524Y294382D01*
X-20503Y294283D01*
X-20485Y294183D01*
X-20472Y294083D01*
X-20462Y293982D01*
X-20456Y293880D01*
X-20454Y293779D01*
X-21753Y296051D02*
X-25323Y297999D01*
X-27595Y283817D02*
X-27595Y272133D01*
X-23700Y277326D02*
X-27595Y283817D01*
X-23700Y277326D02*
X-19805Y283817D01*
X-19805Y272133D01*
X5842Y21903D02*
X-5842Y18008D01*
X-5842Y25797D02*
X5842Y21903D01*
X-5842Y33657D02*
X-5840Y33764D01*
X-5834Y33870D01*
X-5824Y33976D01*
X-5811Y34082D01*
X-5793Y34188D01*
X-5772Y34292D01*
X-5747Y34396D01*
X-5718Y34499D01*
X-5686Y34600D01*
X-5649Y34700D01*
X-5609Y34799D01*
X-5566Y34897D01*
X-5519Y34993D01*
X-5468Y35087D01*
X-5414Y35179D01*
X-5357Y35269D01*
X-5297Y35357D01*
X-5233Y35442D01*
X-5166Y35525D01*
X-5096Y35606D01*
X-5024Y35684D01*
X-4948Y35760D01*
X-4870Y35832D01*
X-4789Y35902D01*
X-4706Y35969D01*
X-4621Y36033D01*
X-4533Y36093D01*
X-4443Y36150D01*
X-4351Y36204D01*
X-4257Y36255D01*
X-4161Y36302D01*
X-4063Y36345D01*
X-3964Y36385D01*
X-3864Y36422D01*
X-3763Y36454D01*
X-3660Y36483D01*
X-3556Y36508D01*
X-3452Y36529D01*
X-3346Y36547D01*
X-3240Y36560D01*
X-3134Y36570D01*
X-3028Y36576D01*
X-2921Y36578D01*
X-5842Y33657D02*
X-5840Y33536D01*
X-5834Y33415D01*
X-5824Y33295D01*
X-5811Y33174D01*
X-5793Y33055D01*
X-5772Y32935D01*
X-5747Y32817D01*
X-5718Y32700D01*
X-5685Y32583D01*
X-5649Y32468D01*
X-5608Y32354D01*
X-5565Y32241D01*
X-5517Y32129D01*
X-5466Y32020D01*
X-5411Y31912D01*
X-5353Y31805D01*
X-5292Y31701D01*
X-5227Y31599D01*
X-5159Y31499D01*
X-5088Y31401D01*
X-5014Y31305D01*
X-4937Y31212D01*
X-4856Y31122D01*
X-4773Y31034D01*
X-4687Y30949D01*
X-4598Y30866D01*
X-4507Y30787D01*
X-4413Y30710D01*
X-4317Y30637D01*
X-4219Y30567D01*
X-4118Y30500D01*
X-4015Y30436D01*
X-3910Y30376D01*
X-3803Y30319D01*
X-3695Y30265D01*
X-3585Y30215D01*
X-3473Y30169D01*
X-3360Y30126D01*
X-3245Y30087D01*
X-649Y35605D02*
X-726Y35684D01*
X-807Y35760D01*
X-890Y35833D01*
X-975Y35903D01*
X-1063Y35970D01*
X-1153Y36034D01*
X-1245Y36094D01*
X-1340Y36151D01*
X-1436Y36205D01*
X-1534Y36256D01*
X-1634Y36303D01*
X-1736Y36347D01*
X-1839Y36387D01*
X-1943Y36423D01*
X-2049Y36455D01*
X-2155Y36484D01*
X-2263Y36509D01*
X-2371Y36531D01*
X-2481Y36548D01*
X-2590Y36562D01*
X-2700Y36571D01*
X-2811Y36577D01*
X-2921Y36579D01*
X-649Y35605D02*
X5842Y30087D01*
X5842Y36578D01*
X5842Y41009D02*
X5193Y41009D01*
X5193Y41658D01*
X5842Y41658D01*
X5842Y41009D01*
X-2921Y52580D02*
X-3028Y52578D01*
X-3134Y52572D01*
X-3240Y52562D01*
X-3346Y52549D01*
X-3452Y52531D01*
X-3556Y52510D01*
X-3660Y52485D01*
X-3763Y52456D01*
X-3864Y52424D01*
X-3964Y52387D01*
X-4063Y52347D01*
X-4161Y52304D01*
X-4257Y52257D01*
X-4351Y52206D01*
X-4443Y52152D01*
X-4533Y52095D01*
X-4621Y52035D01*
X-4706Y51971D01*
X-4789Y51904D01*
X-4870Y51834D01*
X-4948Y51762D01*
X-5024Y51686D01*
X-5096Y51608D01*
X-5166Y51527D01*
X-5233Y51444D01*
X-5297Y51359D01*
X-5357Y51271D01*
X-5414Y51181D01*
X-5468Y51089D01*
X-5519Y50995D01*
X-5566Y50899D01*
X-5609Y50801D01*
X-5649Y50702D01*
X-5686Y50602D01*
X-5718Y50501D01*
X-5747Y50398D01*
X-5772Y50294D01*
X-5793Y50190D01*
X-5811Y50084D01*
X-5824Y49978D01*
X-5834Y49872D01*
X-5840Y49766D01*
X-5842Y49659D01*
X-5840Y49538D01*
X-5834Y49417D01*
X-5824Y49297D01*
X-5811Y49176D01*
X-5793Y49057D01*
X-5772Y48937D01*
X-5747Y48819D01*
X-5718Y48702D01*
X-5685Y48585D01*
X-5649Y48470D01*
X-5608Y48356D01*
X-5565Y48243D01*
X-5517Y48131D01*
X-5466Y48022D01*
X-5411Y47914D01*
X-5353Y47807D01*
X-5292Y47703D01*
X-5227Y47601D01*
X-5159Y47501D01*
X-5088Y47403D01*
X-5014Y47307D01*
X-4937Y47214D01*
X-4856Y47124D01*
X-4773Y47036D01*
X-4687Y46951D01*
X-4598Y46868D01*
X-4507Y46789D01*
X-4413Y46712D01*
X-4317Y46639D01*
X-4219Y46569D01*
X-4118Y46502D01*
X-4015Y46438D01*
X-3910Y46378D01*
X-3803Y46321D01*
X-3695Y46267D01*
X-3585Y46217D01*
X-3473Y46171D01*
X-3360Y46128D01*
X-3245Y46089D01*
X-649Y51607D02*
X-726Y51686D01*
X-807Y51762D01*
X-890Y51835D01*
X-975Y51905D01*
X-1063Y51972D01*
X-1153Y52036D01*
X-1245Y52096D01*
X-1340Y52153D01*
X-1436Y52207D01*
X-1534Y52258D01*
X-1634Y52305D01*
X-1736Y52349D01*
X-1839Y52389D01*
X-1943Y52425D01*
X-2049Y52457D01*
X-2155Y52486D01*
X-2263Y52511D01*
X-2371Y52533D01*
X-2481Y52550D01*
X-2590Y52564D01*
X-2700Y52573D01*
X-2811Y52579D01*
X-2921Y52581D01*
X-649Y51606D02*
X5842Y46089D01*
X5842Y52580D01*
X5842Y57011D02*
X5193Y57011D01*
X5193Y57660D01*
X5842Y57660D01*
X5842Y57011D01*
X0Y62091D02*
X-230Y62094D01*
X-460Y62102D01*
X-689Y62116D01*
X-918Y62135D01*
X-1147Y62160D01*
X-1374Y62190D01*
X-1602Y62225D01*
X-1828Y62266D01*
X-2053Y62312D01*
X-2277Y62364D01*
X-2499Y62421D01*
X-2721Y62483D01*
X-2940Y62551D01*
X-3158Y62624D01*
X-3375Y62702D01*
X-3589Y62785D01*
X-3801Y62873D01*
X-4011Y62966D01*
X-4219Y63065D01*
X-4309Y63098D01*
X-4398Y63134D01*
X-4486Y63174D01*
X-4571Y63218D01*
X-4655Y63265D01*
X-4737Y63315D01*
X-4817Y63369D01*
X-4894Y63425D01*
X-4970Y63485D01*
X-5043Y63548D01*
X-5113Y63613D01*
X-5181Y63682D01*
X-5245Y63753D01*
X-5307Y63826D01*
X-5366Y63902D01*
X-5422Y63980D01*
X-5475Y64061D01*
X-5524Y64143D01*
X-5570Y64227D01*
X-5613Y64314D01*
X-5652Y64401D01*
X-5688Y64491D01*
X-5720Y64581D01*
X-5748Y64673D01*
X-5773Y64766D01*
X-5794Y64860D01*
X-5811Y64954D01*
X-5825Y65049D01*
X-5834Y65145D01*
X-5840Y65241D01*
X-5842Y65337D01*
X-5840Y65433D01*
X-5834Y65529D01*
X-5825Y65625D01*
X-5811Y65720D01*
X-5794Y65814D01*
X-5773Y65908D01*
X-5748Y66001D01*
X-5720Y66093D01*
X-5688Y66183D01*
X-5652Y66273D01*
X-5613Y66360D01*
X-5570Y66447D01*
X-5524Y66531D01*
X-5475Y66613D01*
X-5422Y66694D01*
X-5366Y66772D01*
X-5307Y66848D01*
X-5245Y66921D01*
X-5181Y66992D01*
X-5113Y67061D01*
X-5043Y67126D01*
X-4970Y67189D01*
X-4894Y67249D01*
X-4817Y67305D01*
X-4737Y67359D01*
X-4655Y67409D01*
X-4571Y67456D01*
X-4486Y67500D01*
X-4398Y67540D01*
X-4309Y67576D01*
X-4219Y67609D01*
X-4012Y67708D01*
X-3802Y67801D01*
X-3589Y67889D01*
X-3375Y67972D01*
X-3159Y68050D01*
X-2941Y68123D01*
X-2721Y68191D01*
X-2500Y68253D01*
X-2277Y68310D01*
X-2053Y68362D01*
X-1828Y68408D01*
X-1602Y68449D01*
X-1375Y68484D01*
X-1147Y68514D01*
X-918Y68539D01*
X-689Y68558D01*
X-460Y68572D01*
X-230Y68580D01*
X0Y68583D01*
X0Y62091D02*
X230Y62094D01*
X460Y62102D01*
X689Y62116D01*
X918Y62135D01*
X1147Y62160D01*
X1375Y62190D01*
X1602Y62225D01*
X1828Y62266D01*
X2053Y62312D01*
X2277Y62364D01*
X2500Y62421D01*
X2721Y62483D01*
X2941Y62551D01*
X3159Y62624D01*
X3375Y62702D01*
X3589Y62785D01*
X3801Y62873D01*
X4012Y62966D01*
X4219Y63065D01*
X4309Y63098D01*
X4398Y63134D01*
X4486Y63175D01*
X4571Y63218D01*
X4655Y63265D01*
X4737Y63315D01*
X4817Y63369D01*
X4894Y63425D01*
X4970Y63485D01*
X5043Y63548D01*
X5113Y63613D01*
X5181Y63682D01*
X5245Y63753D01*
X5307Y63826D01*
X5366Y63902D01*
X5422Y63980D01*
X5475Y64061D01*
X5524Y64143D01*
X5570Y64227D01*
X5613Y64314D01*
X5652Y64401D01*
X5688Y64491D01*
X5720Y64581D01*
X5748Y64673D01*
X5773Y64766D01*
X5794Y64860D01*
X5811Y64954D01*
X5825Y65049D01*
X5834Y65145D01*
X5840Y65241D01*
X5842Y65337D01*
X4219Y67608D02*
X4012Y67707D01*
X3801Y67800D01*
X3589Y67888D01*
X3375Y67971D01*
X3159Y68049D01*
X2941Y68122D01*
X2721Y68190D01*
X2500Y68252D01*
X2277Y68309D01*
X2053Y68361D01*
X1828Y68407D01*
X1602Y68448D01*
X1375Y68483D01*
X1147Y68513D01*
X918Y68538D01*
X689Y68557D01*
X460Y68571D01*
X230Y68579D01*
X0Y68582D01*
X4219Y67609D02*
X4309Y67576D01*
X4398Y67540D01*
X4486Y67500D01*
X4571Y67456D01*
X4655Y67409D01*
X4737Y67359D01*
X4817Y67305D01*
X4894Y67249D01*
X4970Y67189D01*
X5043Y67126D01*
X5113Y67061D01*
X5181Y66992D01*
X5245Y66921D01*
X5307Y66848D01*
X5366Y66772D01*
X5422Y66694D01*
X5475Y66613D01*
X5524Y66531D01*
X5570Y66447D01*
X5613Y66360D01*
X5652Y66273D01*
X5688Y66183D01*
X5720Y66093D01*
X5748Y66001D01*
X5773Y65908D01*
X5794Y65814D01*
X5811Y65720D01*
X5825Y65625D01*
X5834Y65529D01*
X5840Y65433D01*
X5842Y65337D01*
X3246Y62740D02*
X-3246Y67933D01*
X-94203Y151202D02*
X-101992Y151202D01*
D91*
X37000Y271750D02*
X60500Y271750D01*
X60500Y288250D01*
X37000Y288250D01*
X-37000Y288250D02*
X-60500Y288250D01*
X-60500Y271750D01*
X-37000Y271750D01*
D92*
X53000Y79500D02*
X127000Y79500D01*
X127000Y5500D01*
X53000Y5500D01*
X53000Y79500D01*
X30000Y82500D02*
X150000Y82500D01*
X150000Y2500D01*
X30000Y2500D01*
X30000Y82500D01*
X-53000Y79500D02*
X-127000Y79500D01*
X-53000Y79500D02*
X-53000Y5500D01*
X-127000Y5500D01*
X-127000Y79500D01*
X-150000Y82500D02*
X-30000Y82500D01*
X-30000Y2500D01*
X-150000Y2500D01*
X-150000Y82500D01*
X-104000Y266300D02*
X104000Y266300D01*
X104000Y203600D01*
X-104000Y203600D01*
X-104000Y266300D01*
D12*
X114800Y156150D02*
X114800Y143450D01*
X114800Y156150D02*
X121150Y162500D01*
X133850Y162500D01*
X140200Y156150D01*
X133850Y137100D02*
X121150Y137100D01*
X114800Y143450D01*
X133850Y137100D02*
X140200Y143450D01*
X140200Y156150D01*
X121150Y162500D02*
X114800Y168850D01*
X114800Y181550D01*
X121150Y187900D01*
X133850Y187900D01*
X140200Y181550D01*
X140200Y168850D01*
X133850Y162500D01*
X103450Y135400D02*
X97100Y129050D01*
X97100Y116350D02*
X103450Y110000D01*
X97100Y103650D01*
X97100Y90950D02*
X103450Y84600D01*
X103450Y135400D02*
X141550Y135400D01*
X147900Y129050D01*
X147900Y116350D01*
X141550Y110000D01*
X147900Y103650D01*
X147900Y90950D01*
X141550Y84600D01*
X141550Y110000D02*
X103450Y110000D01*
X103450Y84600D02*
X141550Y84600D01*
X97100Y90950D02*
X97100Y103650D01*
X97100Y116350D02*
X97100Y129050D01*
X-107300Y196550D02*
X-107300Y209250D01*
X-107300Y196550D02*
X-113650Y190200D01*
X-126350Y190200D01*
X-132700Y196550D01*
X-113650Y190200D02*
X-107300Y183850D01*
X-107300Y171150D01*
X-113650Y164800D01*
X-126350Y164800D01*
X-132700Y171150D01*
X-132700Y183850D01*
X-126350Y190200D01*
X-126350Y215600D02*
X-113650Y215600D01*
X-107300Y209250D01*
X-126350Y215600D02*
X-132700Y209250D01*
X-132700Y196550D01*
X-113650Y164800D02*
X-107300Y158450D01*
X-107300Y145750D01*
X-113650Y139400D01*
X-126350Y139400D01*
X-132700Y145750D01*
X-132700Y158450D01*
X-126350Y164800D01*
M02*
