M48
;GenerationSoftware,Autodesk,EAGLE,9.6.2*%
;CreationDate,2022-03-11T23:35:45Z*%
FMAT,2
ICI,OFF
METRIC,TZ,000.000
T7C0.350
T6C0.813
T5C1.016
T4C1.100
T3C1.120
T2C1.152
T1C3.000
%
G90
M71
T1
X0Y12150
T2
X8500Y4250
X-12500Y22750
T3
X4520Y15500
X1980Y15500
T4
X1270Y23500
X-1270Y23500
X-3810Y23500
X-6350Y23500
X-8890Y23500
X8890Y23500
X6350Y23500
X3810Y23500
T5
X13520Y12270
X12750Y14980
X12750Y17520
X10980Y12270
X10980Y9730
X13520Y9730
X-12000Y20290
X-12000Y17750
X-12000Y15210
T6
X-4520Y15500
X-1980Y15500
T7
X6250Y21750
X11750Y23000
X7896Y26809
X3378Y29170
X-6679Y17822
X2750Y6500
X2250Y3528
X10250Y1500
X-8500Y2750
X9472Y6750
X-7500Y6750
X-8500Y26500
X-10278Y6750
X-10250Y2750
X-3805Y26805
X-8472Y21250
X-1928Y26000
X-11028Y8500
X-11000Y11500
X8250Y8250
X7500Y11750
M30