G04 EAGLE Gerber RS-274X export*
G75*
%MOMM*%
%FSLAX34Y34*%
%LPD*%
%INSoldermask Bottom*%
%IPPOS*%
%AMOC8*
5,1,8,0,0,1.08239X$1,22.5*%
G01*
%ADD10C,3.203200*%
%ADD11C,5.000000*%
%ADD12C,1.355200*%
%ADD13R,1.303200X1.203200*%
%ADD14R,1.203200X1.303200*%
%ADD15R,0.703200X1.203200*%
%ADD16R,0.853200X1.731200*%
%ADD17P,1.649562X8X22.500000*%
%ADD18C,1.883200*%
%ADD19R,1.453200X0.803200*%
%ADD20R,1.103200X0.903200*%
%ADD21R,1.803200X2.203200*%
%ADD22R,0.903200X1.103200*%
%ADD23R,1.043200X0.663200*%
%ADD24C,1.853200*%
%ADD25C,1.727200*%
%ADD26P,1.869504X8X292.500000*%
%ADD27R,1.803400X0.762000*%
%ADD28R,0.803200X1.453200*%
%ADD29C,0.959600*%


D10*
X0Y121500D03*
D11*
X0Y121500D03*
D12*
X85000Y42500D03*
X-125000Y227500D03*
D13*
X29000Y215000D03*
X46000Y215000D03*
D14*
X122500Y199000D03*
X122500Y216000D03*
X-67500Y146500D03*
X-67500Y163500D03*
X-7500Y276000D03*
X-7500Y259000D03*
X52500Y259000D03*
X52500Y276000D03*
D15*
X-28900Y260100D03*
X-28900Y284100D03*
D16*
X101550Y147890D03*
X88850Y147890D03*
X76150Y147890D03*
X63450Y147890D03*
X63450Y202110D03*
X76150Y202110D03*
X88850Y202110D03*
X101550Y202110D03*
D17*
X-45200Y155000D03*
X-19800Y155000D03*
D18*
X19800Y155000D03*
X45200Y155000D03*
D19*
X-49500Y279550D03*
X-49500Y260450D03*
X-70500Y270000D03*
D20*
X-5000Y183500D03*
X-5000Y196500D03*
D21*
X41500Y190000D03*
X13500Y190000D03*
D20*
X-17500Y183500D03*
X-17500Y196500D03*
X-80000Y183500D03*
X-80000Y196500D03*
D22*
X71000Y130000D03*
X84000Y130000D03*
X4000Y295000D03*
X-9000Y295000D03*
D23*
X91500Y260000D03*
X68500Y260000D03*
D19*
X12000Y260500D03*
X12000Y279500D03*
X33000Y270000D03*
D24*
X-88900Y235000D03*
X-63500Y235000D03*
X-38100Y235000D03*
X-12700Y235000D03*
X12700Y235000D03*
X38100Y235000D03*
X63500Y235000D03*
X88900Y235000D03*
D25*
X119880Y149800D02*
X135120Y149800D01*
X135120Y175200D02*
X119880Y175200D01*
D26*
X109800Y122700D03*
X135200Y122700D03*
X109800Y97300D03*
X135200Y97300D03*
D27*
X-40383Y129650D03*
X-40383Y116950D03*
X-40383Y104250D03*
X-40383Y91550D03*
X-40383Y78850D03*
X-40383Y66150D03*
X-40383Y53450D03*
X-40383Y40750D03*
X-40383Y28050D03*
X-40383Y15350D03*
X-134617Y15350D03*
X-134617Y28050D03*
X-134617Y40750D03*
X-134617Y53450D03*
X-134617Y66150D03*
X-134617Y78850D03*
X-134617Y91550D03*
X-134617Y104250D03*
X-134617Y116950D03*
X-134617Y129650D03*
D25*
X-127620Y202900D02*
X-112380Y202900D01*
X-112380Y177500D02*
X-127620Y177500D01*
X-127620Y152100D02*
X-112380Y152100D01*
D20*
X-67500Y209000D03*
X-67500Y196000D03*
D28*
X-52050Y208000D03*
X-32950Y208000D03*
X-42500Y187000D03*
D29*
X62500Y217500D03*
X117500Y230000D03*
X78963Y268095D03*
X33782Y291705D03*
X-66787Y178218D03*
X-84718Y212500D03*
X27500Y65000D03*
X22500Y35282D03*
X102500Y15000D03*
X-85000Y27500D03*
X-102500Y27500D03*
X-102782Y67500D03*
X-85000Y265000D03*
X-75000Y67500D03*
X94718Y67500D03*
X75000Y117500D03*
X82500Y82500D03*
X-110282Y85000D03*
X-110000Y115000D03*
X-19282Y260000D03*
X-38046Y268046D03*
M02*
