G04 EAGLE Gerber RS-274X export*
G75*
%MOMM*%
%FSLAX34Y34*%
%LPD*%
%INBoard Outline*%
%IPPOS*%
%AMOC8*
5,1,8,0,0,1.08239X$1,22.5*%
G01*
%ADD10C,0.150000*%
%ADD11C,0.000000*%
%ADD12C,0.254000*%


D10*
X-155000Y155000D02*
X-155000Y0D01*
X155000Y0D01*
X155000Y155000D01*
X154984Y158794D01*
X154875Y162587D01*
X154674Y166376D01*
X154380Y170158D01*
X153993Y173933D01*
X153514Y177697D01*
X152943Y181448D01*
X152281Y185184D01*
X151527Y188902D01*
X150682Y192601D01*
X149747Y196278D01*
X148723Y199932D01*
X147609Y203559D01*
X146407Y207157D01*
X145117Y210726D01*
X143740Y214261D01*
X142277Y217762D01*
X140729Y221226D01*
X139097Y224651D01*
X137381Y228035D01*
X135583Y231376D01*
X133703Y234672D01*
X131744Y237921D01*
X129705Y241121D01*
X127589Y244270D01*
X125396Y247367D01*
X123129Y250409D01*
X120787Y253394D01*
X118373Y256322D01*
X115889Y259189D01*
X113334Y261994D01*
X110712Y264737D01*
X108024Y267414D01*
X105270Y270025D01*
X102454Y272567D01*
X99576Y275040D01*
X96639Y277442D01*
X93644Y279771D01*
X90593Y282026D01*
X87487Y284205D01*
X84329Y286308D01*
X81120Y288334D01*
X77863Y290279D01*
X74559Y292145D01*
X71211Y293929D01*
X67820Y295631D01*
X64388Y297249D01*
X60917Y298783D01*
X57410Y300231D01*
X53869Y301593D01*
X50296Y302868D01*
X46692Y304055D01*
X43060Y305154D01*
X39403Y306163D01*
X35722Y307083D01*
X32019Y307912D01*
X28298Y308650D01*
X24559Y309297D01*
X20806Y309852D01*
X17040Y310316D01*
X13264Y310686D01*
X9480Y310965D01*
X5690Y311151D01*
X1897Y311243D01*
X-1897Y311243D01*
X-5690Y311151D01*
X-9480Y310965D01*
X-13264Y310686D01*
X-17040Y310316D01*
X-20806Y309852D01*
X-24559Y309297D01*
X-28298Y308650D01*
X-32019Y307912D01*
X-35722Y307083D01*
X-39403Y306163D01*
X-43060Y305154D01*
X-46692Y304055D01*
X-50296Y302868D01*
X-53869Y301593D01*
X-57410Y300231D01*
X-60917Y298783D01*
X-64388Y297249D01*
X-67820Y295631D01*
X-71211Y293929D01*
X-74559Y292145D01*
X-77863Y290279D01*
X-81120Y288334D01*
X-84329Y286308D01*
X-87487Y284205D01*
X-90593Y282026D01*
X-93644Y279771D01*
X-96639Y277442D01*
X-99576Y275040D01*
X-102454Y272567D01*
X-105270Y270025D01*
X-108024Y267414D01*
X-110712Y264737D01*
X-113334Y261994D01*
X-115889Y259189D01*
X-118373Y256322D01*
X-120787Y253394D01*
X-123129Y250409D01*
X-125396Y247367D01*
X-127589Y244270D01*
X-129705Y241121D01*
X-131744Y237921D01*
X-133703Y234672D01*
X-135583Y231376D01*
X-137381Y228035D01*
X-139097Y224651D01*
X-140729Y221226D01*
X-142277Y217762D01*
X-143740Y214261D01*
X-145117Y210726D01*
X-146407Y207157D01*
X-147609Y203559D01*
X-148723Y199932D01*
X-149747Y196278D01*
X-150682Y192601D01*
X-151527Y188902D01*
X-152281Y185184D01*
X-152943Y181448D01*
X-153514Y177697D01*
X-153993Y173933D01*
X-154380Y170158D01*
X-154674Y166376D01*
X-154875Y162587D01*
X-154984Y158794D01*
X-155000Y155000D01*
D11*
X-15000Y121500D02*
X-14995Y121868D01*
X-14982Y122236D01*
X-14959Y122603D01*
X-14928Y122970D01*
X-14887Y123336D01*
X-14838Y123701D01*
X-14779Y124064D01*
X-14712Y124426D01*
X-14636Y124787D01*
X-14550Y125145D01*
X-14457Y125501D01*
X-14354Y125854D01*
X-14243Y126205D01*
X-14123Y126553D01*
X-13995Y126898D01*
X-13858Y127240D01*
X-13713Y127579D01*
X-13560Y127913D01*
X-13398Y128244D01*
X-13229Y128571D01*
X-13051Y128893D01*
X-12866Y129212D01*
X-12673Y129525D01*
X-12472Y129834D01*
X-12264Y130137D01*
X-12048Y130435D01*
X-11825Y130728D01*
X-11595Y131016D01*
X-11358Y131298D01*
X-11114Y131573D01*
X-10864Y131843D01*
X-10607Y132107D01*
X-10343Y132364D01*
X-10073Y132614D01*
X-9798Y132858D01*
X-9516Y133095D01*
X-9228Y133325D01*
X-8935Y133548D01*
X-8637Y133764D01*
X-8334Y133972D01*
X-8025Y134173D01*
X-7712Y134366D01*
X-7393Y134551D01*
X-7071Y134729D01*
X-6744Y134898D01*
X-6413Y135060D01*
X-6079Y135213D01*
X-5740Y135358D01*
X-5398Y135495D01*
X-5053Y135623D01*
X-4705Y135743D01*
X-4354Y135854D01*
X-4001Y135957D01*
X-3645Y136050D01*
X-3287Y136136D01*
X-2926Y136212D01*
X-2564Y136279D01*
X-2201Y136338D01*
X-1836Y136387D01*
X-1470Y136428D01*
X-1103Y136459D01*
X-736Y136482D01*
X-368Y136495D01*
X0Y136500D01*
X368Y136495D01*
X736Y136482D01*
X1103Y136459D01*
X1470Y136428D01*
X1836Y136387D01*
X2201Y136338D01*
X2564Y136279D01*
X2926Y136212D01*
X3287Y136136D01*
X3645Y136050D01*
X4001Y135957D01*
X4354Y135854D01*
X4705Y135743D01*
X5053Y135623D01*
X5398Y135495D01*
X5740Y135358D01*
X6079Y135213D01*
X6413Y135060D01*
X6744Y134898D01*
X7071Y134729D01*
X7393Y134551D01*
X7712Y134366D01*
X8025Y134173D01*
X8334Y133972D01*
X8637Y133764D01*
X8935Y133548D01*
X9228Y133325D01*
X9516Y133095D01*
X9798Y132858D01*
X10073Y132614D01*
X10343Y132364D01*
X10607Y132107D01*
X10864Y131843D01*
X11114Y131573D01*
X11358Y131298D01*
X11595Y131016D01*
X11825Y130728D01*
X12048Y130435D01*
X12264Y130137D01*
X12472Y129834D01*
X12673Y129525D01*
X12866Y129212D01*
X13051Y128893D01*
X13229Y128571D01*
X13398Y128244D01*
X13560Y127913D01*
X13713Y127579D01*
X13858Y127240D01*
X13995Y126898D01*
X14123Y126553D01*
X14243Y126205D01*
X14354Y125854D01*
X14457Y125501D01*
X14550Y125145D01*
X14636Y124787D01*
X14712Y124426D01*
X14779Y124064D01*
X14838Y123701D01*
X14887Y123336D01*
X14928Y122970D01*
X14959Y122603D01*
X14982Y122236D01*
X14995Y121868D01*
X15000Y121500D01*
X14995Y121132D01*
X14982Y120764D01*
X14959Y120397D01*
X14928Y120030D01*
X14887Y119664D01*
X14838Y119299D01*
X14779Y118936D01*
X14712Y118574D01*
X14636Y118213D01*
X14550Y117855D01*
X14457Y117499D01*
X14354Y117146D01*
X14243Y116795D01*
X14123Y116447D01*
X13995Y116102D01*
X13858Y115760D01*
X13713Y115421D01*
X13560Y115087D01*
X13398Y114756D01*
X13229Y114429D01*
X13051Y114107D01*
X12866Y113788D01*
X12673Y113475D01*
X12472Y113166D01*
X12264Y112863D01*
X12048Y112565D01*
X11825Y112272D01*
X11595Y111984D01*
X11358Y111702D01*
X11114Y111427D01*
X10864Y111157D01*
X10607Y110893D01*
X10343Y110636D01*
X10073Y110386D01*
X9798Y110142D01*
X9516Y109905D01*
X9228Y109675D01*
X8935Y109452D01*
X8637Y109236D01*
X8334Y109028D01*
X8025Y108827D01*
X7712Y108634D01*
X7393Y108449D01*
X7071Y108271D01*
X6744Y108102D01*
X6413Y107940D01*
X6079Y107787D01*
X5740Y107642D01*
X5398Y107505D01*
X5053Y107377D01*
X4705Y107257D01*
X4354Y107146D01*
X4001Y107043D01*
X3645Y106950D01*
X3287Y106864D01*
X2926Y106788D01*
X2564Y106721D01*
X2201Y106662D01*
X1836Y106613D01*
X1470Y106572D01*
X1103Y106541D01*
X736Y106518D01*
X368Y106505D01*
X0Y106500D01*
X-368Y106505D01*
X-736Y106518D01*
X-1103Y106541D01*
X-1470Y106572D01*
X-1836Y106613D01*
X-2201Y106662D01*
X-2564Y106721D01*
X-2926Y106788D01*
X-3287Y106864D01*
X-3645Y106950D01*
X-4001Y107043D01*
X-4354Y107146D01*
X-4705Y107257D01*
X-5053Y107377D01*
X-5398Y107505D01*
X-5740Y107642D01*
X-6079Y107787D01*
X-6413Y107940D01*
X-6744Y108102D01*
X-7071Y108271D01*
X-7393Y108449D01*
X-7712Y108634D01*
X-8025Y108827D01*
X-8334Y109028D01*
X-8637Y109236D01*
X-8935Y109452D01*
X-9228Y109675D01*
X-9516Y109905D01*
X-9798Y110142D01*
X-10073Y110386D01*
X-10343Y110636D01*
X-10607Y110893D01*
X-10864Y111157D01*
X-11114Y111427D01*
X-11358Y111702D01*
X-11595Y111984D01*
X-11825Y112272D01*
X-12048Y112565D01*
X-12264Y112863D01*
X-12472Y113166D01*
X-12673Y113475D01*
X-12866Y113788D01*
X-13051Y114107D01*
X-13229Y114429D01*
X-13398Y114756D01*
X-13560Y115087D01*
X-13713Y115421D01*
X-13858Y115760D01*
X-13995Y116102D01*
X-14123Y116447D01*
X-14243Y116795D01*
X-14354Y117146D01*
X-14457Y117499D01*
X-14550Y117855D01*
X-14636Y118213D01*
X-14712Y118574D01*
X-14779Y118936D01*
X-14838Y119299D01*
X-14887Y119664D01*
X-14928Y120030D01*
X-14959Y120397D01*
X-14982Y120764D01*
X-14995Y121132D01*
X-15000Y121500D01*
X79240Y42500D02*
X79242Y42651D01*
X79248Y42803D01*
X79258Y42954D01*
X79272Y43105D01*
X79290Y43255D01*
X79312Y43405D01*
X79337Y43554D01*
X79367Y43703D01*
X79400Y43850D01*
X79438Y43997D01*
X79479Y44143D01*
X79524Y44287D01*
X79573Y44430D01*
X79626Y44572D01*
X79682Y44713D01*
X79742Y44852D01*
X79806Y44989D01*
X79873Y45125D01*
X79944Y45259D01*
X80018Y45391D01*
X80096Y45521D01*
X80177Y45649D01*
X80261Y45774D01*
X80349Y45898D01*
X80440Y46019D01*
X80534Y46138D01*
X80631Y46254D01*
X80731Y46367D01*
X80834Y46478D01*
X80940Y46586D01*
X81049Y46692D01*
X81161Y46794D01*
X81275Y46893D01*
X81392Y46990D01*
X81511Y47083D01*
X81633Y47173D01*
X81757Y47260D01*
X81883Y47344D01*
X82011Y47424D01*
X82142Y47501D01*
X82274Y47574D01*
X82409Y47644D01*
X82545Y47711D01*
X82683Y47773D01*
X82822Y47832D01*
X82963Y47888D01*
X83105Y47939D01*
X83249Y47987D01*
X83394Y48032D01*
X83540Y48072D01*
X83687Y48108D01*
X83835Y48141D01*
X83983Y48170D01*
X84133Y48194D01*
X84283Y48215D01*
X84433Y48232D01*
X84584Y48245D01*
X84735Y48254D01*
X84886Y48259D01*
X85038Y48260D01*
X85189Y48257D01*
X85341Y48250D01*
X85492Y48239D01*
X85642Y48224D01*
X85792Y48205D01*
X85942Y48182D01*
X86091Y48156D01*
X86240Y48125D01*
X86387Y48091D01*
X86533Y48052D01*
X86679Y48010D01*
X86823Y47964D01*
X86966Y47914D01*
X87108Y47861D01*
X87248Y47803D01*
X87387Y47742D01*
X87524Y47678D01*
X87659Y47610D01*
X87792Y47538D01*
X87924Y47463D01*
X88053Y47384D01*
X88180Y47302D01*
X88306Y47217D01*
X88428Y47129D01*
X88549Y47037D01*
X88667Y46942D01*
X88782Y46844D01*
X88895Y46743D01*
X89005Y46639D01*
X89113Y46533D01*
X89217Y46423D01*
X89319Y46311D01*
X89418Y46196D01*
X89513Y46079D01*
X89606Y45959D01*
X89695Y45836D01*
X89781Y45712D01*
X89864Y45585D01*
X89944Y45456D01*
X90020Y45325D01*
X90092Y45192D01*
X90161Y45057D01*
X90227Y44921D01*
X90288Y44783D01*
X90347Y44643D01*
X90401Y44502D01*
X90452Y44359D01*
X90499Y44215D01*
X90542Y44070D01*
X90581Y43924D01*
X90617Y43776D01*
X90648Y43628D01*
X90676Y43479D01*
X90700Y43330D01*
X90720Y43180D01*
X90736Y43029D01*
X90748Y42878D01*
X90756Y42727D01*
X90760Y42576D01*
X90760Y42424D01*
X90756Y42273D01*
X90748Y42122D01*
X90736Y41971D01*
X90720Y41820D01*
X90700Y41670D01*
X90676Y41521D01*
X90648Y41372D01*
X90617Y41224D01*
X90581Y41076D01*
X90542Y40930D01*
X90499Y40785D01*
X90452Y40641D01*
X90401Y40498D01*
X90347Y40357D01*
X90288Y40217D01*
X90227Y40079D01*
X90161Y39943D01*
X90092Y39808D01*
X90020Y39675D01*
X89944Y39544D01*
X89864Y39415D01*
X89781Y39288D01*
X89695Y39164D01*
X89606Y39041D01*
X89513Y38921D01*
X89418Y38804D01*
X89319Y38689D01*
X89217Y38577D01*
X89113Y38467D01*
X89005Y38361D01*
X88895Y38257D01*
X88782Y38156D01*
X88667Y38058D01*
X88549Y37963D01*
X88428Y37871D01*
X88306Y37783D01*
X88180Y37698D01*
X88053Y37616D01*
X87924Y37537D01*
X87792Y37462D01*
X87659Y37390D01*
X87524Y37322D01*
X87387Y37258D01*
X87248Y37197D01*
X87108Y37139D01*
X86966Y37086D01*
X86823Y37036D01*
X86679Y36990D01*
X86533Y36948D01*
X86387Y36909D01*
X86240Y36875D01*
X86091Y36844D01*
X85942Y36818D01*
X85792Y36795D01*
X85642Y36776D01*
X85492Y36761D01*
X85341Y36750D01*
X85189Y36743D01*
X85038Y36740D01*
X84886Y36741D01*
X84735Y36746D01*
X84584Y36755D01*
X84433Y36768D01*
X84283Y36785D01*
X84133Y36806D01*
X83983Y36830D01*
X83835Y36859D01*
X83687Y36892D01*
X83540Y36928D01*
X83394Y36968D01*
X83249Y37013D01*
X83105Y37061D01*
X82963Y37112D01*
X82822Y37168D01*
X82683Y37227D01*
X82545Y37289D01*
X82409Y37356D01*
X82274Y37426D01*
X82142Y37499D01*
X82011Y37576D01*
X81883Y37656D01*
X81757Y37740D01*
X81633Y37827D01*
X81511Y37917D01*
X81392Y38010D01*
X81275Y38107D01*
X81161Y38206D01*
X81049Y38308D01*
X80940Y38414D01*
X80834Y38522D01*
X80731Y38633D01*
X80631Y38746D01*
X80534Y38862D01*
X80440Y38981D01*
X80349Y39102D01*
X80261Y39226D01*
X80177Y39351D01*
X80096Y39479D01*
X80018Y39609D01*
X79944Y39741D01*
X79873Y39875D01*
X79806Y40011D01*
X79742Y40148D01*
X79682Y40287D01*
X79626Y40428D01*
X79573Y40570D01*
X79524Y40713D01*
X79479Y40857D01*
X79438Y41003D01*
X79400Y41150D01*
X79367Y41297D01*
X79337Y41446D01*
X79312Y41595D01*
X79290Y41745D01*
X79272Y41895D01*
X79258Y42046D01*
X79248Y42197D01*
X79242Y42349D01*
X79240Y42500D01*
X-130760Y227500D02*
X-130758Y227651D01*
X-130752Y227803D01*
X-130742Y227954D01*
X-130728Y228105D01*
X-130710Y228255D01*
X-130688Y228405D01*
X-130663Y228554D01*
X-130633Y228703D01*
X-130600Y228850D01*
X-130562Y228997D01*
X-130521Y229143D01*
X-130476Y229287D01*
X-130427Y229430D01*
X-130374Y229572D01*
X-130318Y229713D01*
X-130258Y229852D01*
X-130194Y229989D01*
X-130127Y230125D01*
X-130056Y230259D01*
X-129982Y230391D01*
X-129904Y230521D01*
X-129823Y230649D01*
X-129739Y230774D01*
X-129651Y230898D01*
X-129560Y231019D01*
X-129466Y231138D01*
X-129369Y231254D01*
X-129269Y231367D01*
X-129166Y231478D01*
X-129060Y231586D01*
X-128951Y231692D01*
X-128839Y231794D01*
X-128725Y231893D01*
X-128608Y231990D01*
X-128489Y232083D01*
X-128367Y232173D01*
X-128243Y232260D01*
X-128117Y232344D01*
X-127989Y232424D01*
X-127858Y232501D01*
X-127726Y232574D01*
X-127591Y232644D01*
X-127455Y232711D01*
X-127317Y232773D01*
X-127178Y232832D01*
X-127037Y232888D01*
X-126895Y232939D01*
X-126751Y232987D01*
X-126606Y233032D01*
X-126460Y233072D01*
X-126313Y233108D01*
X-126165Y233141D01*
X-126017Y233170D01*
X-125867Y233194D01*
X-125717Y233215D01*
X-125567Y233232D01*
X-125416Y233245D01*
X-125265Y233254D01*
X-125114Y233259D01*
X-124962Y233260D01*
X-124811Y233257D01*
X-124659Y233250D01*
X-124508Y233239D01*
X-124358Y233224D01*
X-124208Y233205D01*
X-124058Y233182D01*
X-123909Y233156D01*
X-123760Y233125D01*
X-123613Y233091D01*
X-123467Y233052D01*
X-123321Y233010D01*
X-123177Y232964D01*
X-123034Y232914D01*
X-122892Y232861D01*
X-122752Y232803D01*
X-122613Y232742D01*
X-122476Y232678D01*
X-122341Y232610D01*
X-122208Y232538D01*
X-122076Y232463D01*
X-121947Y232384D01*
X-121820Y232302D01*
X-121694Y232217D01*
X-121572Y232129D01*
X-121451Y232037D01*
X-121333Y231942D01*
X-121218Y231844D01*
X-121105Y231743D01*
X-120995Y231639D01*
X-120887Y231533D01*
X-120783Y231423D01*
X-120681Y231311D01*
X-120582Y231196D01*
X-120487Y231079D01*
X-120394Y230959D01*
X-120305Y230836D01*
X-120219Y230712D01*
X-120136Y230585D01*
X-120056Y230456D01*
X-119980Y230325D01*
X-119908Y230192D01*
X-119839Y230057D01*
X-119773Y229921D01*
X-119712Y229783D01*
X-119653Y229643D01*
X-119599Y229502D01*
X-119548Y229359D01*
X-119501Y229215D01*
X-119458Y229070D01*
X-119419Y228924D01*
X-119383Y228776D01*
X-119352Y228628D01*
X-119324Y228479D01*
X-119300Y228330D01*
X-119280Y228180D01*
X-119264Y228029D01*
X-119252Y227878D01*
X-119244Y227727D01*
X-119240Y227576D01*
X-119240Y227424D01*
X-119244Y227273D01*
X-119252Y227122D01*
X-119264Y226971D01*
X-119280Y226820D01*
X-119300Y226670D01*
X-119324Y226521D01*
X-119352Y226372D01*
X-119383Y226224D01*
X-119419Y226076D01*
X-119458Y225930D01*
X-119501Y225785D01*
X-119548Y225641D01*
X-119599Y225498D01*
X-119653Y225357D01*
X-119712Y225217D01*
X-119773Y225079D01*
X-119839Y224943D01*
X-119908Y224808D01*
X-119980Y224675D01*
X-120056Y224544D01*
X-120136Y224415D01*
X-120219Y224288D01*
X-120305Y224164D01*
X-120394Y224041D01*
X-120487Y223921D01*
X-120582Y223804D01*
X-120681Y223689D01*
X-120783Y223577D01*
X-120887Y223467D01*
X-120995Y223361D01*
X-121105Y223257D01*
X-121218Y223156D01*
X-121333Y223058D01*
X-121451Y222963D01*
X-121572Y222871D01*
X-121694Y222783D01*
X-121820Y222698D01*
X-121947Y222616D01*
X-122076Y222537D01*
X-122208Y222462D01*
X-122341Y222390D01*
X-122476Y222322D01*
X-122613Y222258D01*
X-122752Y222197D01*
X-122892Y222139D01*
X-123034Y222086D01*
X-123177Y222036D01*
X-123321Y221990D01*
X-123467Y221948D01*
X-123613Y221909D01*
X-123760Y221875D01*
X-123909Y221844D01*
X-124058Y221818D01*
X-124208Y221795D01*
X-124358Y221776D01*
X-124508Y221761D01*
X-124659Y221750D01*
X-124811Y221743D01*
X-124962Y221740D01*
X-125114Y221741D01*
X-125265Y221746D01*
X-125416Y221755D01*
X-125567Y221768D01*
X-125717Y221785D01*
X-125867Y221806D01*
X-126017Y221830D01*
X-126165Y221859D01*
X-126313Y221892D01*
X-126460Y221928D01*
X-126606Y221968D01*
X-126751Y222013D01*
X-126895Y222061D01*
X-127037Y222112D01*
X-127178Y222168D01*
X-127317Y222227D01*
X-127455Y222289D01*
X-127591Y222356D01*
X-127726Y222426D01*
X-127858Y222499D01*
X-127989Y222576D01*
X-128117Y222656D01*
X-128243Y222740D01*
X-128367Y222827D01*
X-128489Y222917D01*
X-128608Y223010D01*
X-128725Y223107D01*
X-128839Y223206D01*
X-128951Y223308D01*
X-129060Y223414D01*
X-129166Y223522D01*
X-129269Y223633D01*
X-129369Y223746D01*
X-129466Y223862D01*
X-129560Y223981D01*
X-129651Y224102D01*
X-129739Y224226D01*
X-129823Y224351D01*
X-129904Y224479D01*
X-129982Y224609D01*
X-130056Y224741D01*
X-130127Y224875D01*
X-130194Y225011D01*
X-130258Y225148D01*
X-130318Y225287D01*
X-130374Y225428D01*
X-130427Y225570D01*
X-130476Y225713D01*
X-130521Y225857D01*
X-130562Y226003D01*
X-130600Y226150D01*
X-130633Y226297D01*
X-130663Y226446D01*
X-130688Y226595D01*
X-130710Y226745D01*
X-130728Y226895D01*
X-130742Y227046D01*
X-130752Y227197D01*
X-130758Y227349D01*
X-130760Y227500D01*
D12*
X-155000Y0D02*
X155000Y0D01*
X155000Y157500D01*
X154301Y171004D01*
X152428Y184396D01*
X149395Y197574D01*
X145225Y210438D01*
X139949Y222889D01*
X133609Y234832D01*
X126252Y246178D01*
X117933Y256840D01*
X108718Y266735D01*
X98675Y275790D01*
X87880Y283936D01*
X76418Y291109D01*
X64373Y297256D01*
X51839Y302330D01*
X38910Y306292D01*
X25685Y309112D01*
X12264Y310769D01*
X-1250Y311250D01*
X-14754Y310551D01*
X-28146Y308678D01*
X-41324Y305645D01*
X-54188Y301475D01*
X-66639Y296199D01*
X-78583Y289859D01*
X-89928Y282502D01*
X-100590Y274183D01*
X-110485Y264968D01*
X-119540Y254925D01*
X-127686Y244130D01*
X-134859Y232667D01*
X-141006Y220623D01*
X-146080Y208089D01*
X-150042Y195160D01*
X-152862Y181934D01*
X-154519Y168514D01*
X-155000Y155000D01*
X-155000Y0D01*
X15000Y120964D02*
X14924Y119896D01*
X14771Y118835D01*
X14543Y117788D01*
X14241Y116760D01*
X13867Y115756D01*
X13422Y114781D01*
X12908Y113841D01*
X12329Y112940D01*
X11687Y112082D01*
X10985Y111272D01*
X10228Y110515D01*
X9418Y109813D01*
X8560Y109171D01*
X7659Y108592D01*
X6719Y108078D01*
X5744Y107633D01*
X4740Y107259D01*
X3712Y106957D01*
X2665Y106729D01*
X1604Y106576D01*
X536Y106500D01*
X-536Y106500D01*
X-1604Y106576D01*
X-2665Y106729D01*
X-3712Y106957D01*
X-4740Y107259D01*
X-5744Y107633D01*
X-6719Y108078D01*
X-7659Y108592D01*
X-8560Y109171D01*
X-9418Y109813D01*
X-10228Y110515D01*
X-10985Y111272D01*
X-11687Y112082D01*
X-12329Y112940D01*
X-12908Y113841D01*
X-13422Y114781D01*
X-13867Y115756D01*
X-14241Y116760D01*
X-14543Y117788D01*
X-14771Y118835D01*
X-14924Y119896D01*
X-15000Y120964D01*
X-15000Y122036D01*
X-14924Y123104D01*
X-14771Y124165D01*
X-14543Y125212D01*
X-14241Y126240D01*
X-13867Y127244D01*
X-13422Y128219D01*
X-12908Y129159D01*
X-12329Y130060D01*
X-11687Y130918D01*
X-10985Y131728D01*
X-10228Y132485D01*
X-9418Y133187D01*
X-8560Y133829D01*
X-7659Y134408D01*
X-6719Y134922D01*
X-5744Y135367D01*
X-4740Y135741D01*
X-3712Y136043D01*
X-2665Y136271D01*
X-1604Y136424D01*
X-536Y136500D01*
X536Y136500D01*
X1604Y136424D01*
X2665Y136271D01*
X3712Y136043D01*
X4740Y135741D01*
X5744Y135367D01*
X6719Y134922D01*
X7659Y134408D01*
X8560Y133829D01*
X9418Y133187D01*
X10228Y132485D01*
X10985Y131728D01*
X11687Y130918D01*
X12329Y130060D01*
X12908Y129159D01*
X13422Y128219D01*
X13867Y127244D01*
X14241Y126240D01*
X14543Y125212D01*
X14771Y124165D01*
X14924Y123104D01*
X15000Y122036D01*
X15000Y120964D01*
X90760Y42177D02*
X90688Y41534D01*
X90544Y40903D01*
X90330Y40292D01*
X90049Y39709D01*
X89705Y39162D01*
X89302Y38656D01*
X88844Y38198D01*
X88338Y37795D01*
X87791Y37451D01*
X87208Y37170D01*
X86597Y36956D01*
X85966Y36812D01*
X85323Y36740D01*
X84677Y36740D01*
X84034Y36812D01*
X83403Y36956D01*
X82792Y37170D01*
X82209Y37451D01*
X81662Y37795D01*
X81156Y38198D01*
X80698Y38656D01*
X80295Y39162D01*
X79951Y39709D01*
X79670Y40292D01*
X79456Y40903D01*
X79312Y41534D01*
X79240Y42177D01*
X79240Y42823D01*
X79312Y43466D01*
X79456Y44097D01*
X79670Y44708D01*
X79951Y45291D01*
X80295Y45838D01*
X80698Y46344D01*
X81156Y46802D01*
X81662Y47205D01*
X82209Y47549D01*
X82792Y47830D01*
X83403Y48044D01*
X84034Y48188D01*
X84677Y48260D01*
X85323Y48260D01*
X85966Y48188D01*
X86597Y48044D01*
X87208Y47830D01*
X87791Y47549D01*
X88338Y47205D01*
X88844Y46802D01*
X89302Y46344D01*
X89705Y45838D01*
X90049Y45291D01*
X90330Y44708D01*
X90544Y44097D01*
X90688Y43466D01*
X90760Y42823D01*
X90760Y42177D01*
X-119240Y227177D02*
X-119312Y226534D01*
X-119456Y225903D01*
X-119670Y225292D01*
X-119951Y224709D01*
X-120295Y224162D01*
X-120698Y223656D01*
X-121156Y223198D01*
X-121662Y222795D01*
X-122209Y222451D01*
X-122792Y222170D01*
X-123403Y221956D01*
X-124034Y221812D01*
X-124677Y221740D01*
X-125323Y221740D01*
X-125966Y221812D01*
X-126597Y221956D01*
X-127208Y222170D01*
X-127791Y222451D01*
X-128338Y222795D01*
X-128844Y223198D01*
X-129302Y223656D01*
X-129705Y224162D01*
X-130049Y224709D01*
X-130330Y225292D01*
X-130544Y225903D01*
X-130688Y226534D01*
X-130760Y227177D01*
X-130760Y227823D01*
X-130688Y228466D01*
X-130544Y229097D01*
X-130330Y229708D01*
X-130049Y230291D01*
X-129705Y230838D01*
X-129302Y231344D01*
X-128844Y231802D01*
X-128338Y232205D01*
X-127791Y232549D01*
X-127208Y232830D01*
X-126597Y233044D01*
X-125966Y233188D01*
X-125323Y233260D01*
X-124677Y233260D01*
X-124034Y233188D01*
X-123403Y233044D01*
X-122792Y232830D01*
X-122209Y232549D01*
X-121662Y232205D01*
X-121156Y231802D01*
X-120698Y231344D01*
X-120295Y230838D01*
X-119951Y230291D01*
X-119670Y229708D01*
X-119456Y229097D01*
X-119312Y228466D01*
X-119240Y227823D01*
X-119240Y227177D01*
M02*
